<svg xmlns="http://www.w3.org/2000/svg" width="512" height="512" fill="none"><circle cx="256" cy="256" r="256" fill="#fff"/><path fill="#86DA2F" d="M444.764 297.722c19.171-1.475 34.656 11.06 36.13 30.232 1.475 19.909-12.535 36.131-31.706 37.605-18.434 1.475-34.656-12.535-36.131-30.969-1.475-19.909 11.798-34.656 31.707-36.868Z"/><path fill="#24C2FF" d="M211.755 454.78c0-19.171 14.747-33.918 32.444-33.918 17.697 0 34.656 16.222 34.656 34.656 0 17.697-14.747 33.181-31.707 33.918-21.383 0-35.393-13.272-35.393-34.656Z"/><path fill="#FFCB12" d="M264.107 239.47c-2.95 1.475-4.425-.737-5.162-2.949-27.282-50.878-19.171-115.029 28.757-153.372 12.535-10.323 36.131-12.535 46.454-2.212 4.424 3.687 5.162 8.111 5.899 13.273 1.475 11.06 3.687 22.121 11.06 30.969 8.111 9.586 18.435 13.273 30.232 12.535 10.323 0 20.647-1.475 27.283 10.323 3.687 6.637 2.212 32.444-3.687 37.606-2.949 2.212-5.162.737-7.374 0-16.959-6.636-34.656-6.636-52.352-3.687-5.899.737-8.849-.737-8.849-7.374-.737-11.06-2.949-21.383-8.848-30.969-11.061-19.909-31.707-20.646-44.979-2.212-11.061 14.747-14.01 32.444-16.96 50.141-2.949 15.484-2.212 31.706-1.474 47.928 0 0-.738 0 0 0Z"/><path fill="#86DA2F" d="M282.543 250.531c-1.475-2.212-.738-4.424 1.474-5.899 42.03-38.343 104.706-45.717 153.372-8.111 12.535 10.323 20.646 31.707 14.01 44.242-2.95 5.161-6.636 7.373-11.061 8.848-10.323 4.424-19.908 8.848-26.545 18.434-6.636 9.586-8.111 20.646-5.161 32.444 2.212 9.586 5.899 19.909-3.687 28.757-5.162 5.162-30.232 9.586-36.868 5.162-2.95-2.212-2.212-4.424-1.475-7.374 2.212-18.434-2.212-35.393-8.848-51.615-2.212-5.899-1.475-8.849 4.424-10.323 10.323-2.95 19.909-8.111 27.282-15.485 16.222-15.485 12.535-35.393-8.848-44.242-16.959-7.373-34.656-5.899-51.615-4.424-16.222.737-31.707 5.162-46.454 9.586Z"/><path fill="#24C2FF" d="M272.958 269.702c2.212-2.212 3.687-1.474 5.899 0 48.666 29.495 73.737 87.746 51.616 144.523-5.899 14.748-25.071 29.495-39.081 25.808-5.898-1.475-8.848-4.424-11.797-8.111-6.637-8.848-14.01-16.959-25.071-20.646-11.798-3.687-22.121-1.475-32.444 4.424-8.848 5.162-17.696 11.798-28.757 5.162-6.636-3.687-17.697-26.545-15.485-33.919 1.475-2.949 4.425-2.949 7.374-2.949 18.434-2.95 33.181-11.798 47.191-23.596 4.425-3.687 8.111-3.687 11.798 1.475 5.899 8.848 13.273 16.222 22.858 21.383 19.172 11.061 37.606 1.475 39.818-20.646 2.212-18.434-4.424-34.656-10.323-50.878-6.636-14.747-14.747-28.757-23.596-42.03Z"/><path fill="#0069DA" d="M249.362 274.126c-2.949 14.748-9.586 28.758-18.434 41.293-26.545 39.817-64.888 56.039-112.079 51.615-16.96-1.474-30.97-15.484-32.444-29.494-.738-5.899.737-10.323 4.424-14.748 5.161-6.636 9.586-12.535 11.798-20.646 4.424-16.222-1.475-29.494-13.273-41.292-16.222-16.222-14.01-30.969 5.162-42.767 2.212-1.475 5.161-2.95 8.111-4.424 4.424-2.212 8.111-2.212 9.585 2.949 6.637 16.959 19.909 29.495 34.656 39.818 5.162 4.424 5.162 7.373.738 12.535-8.849 9.586-14.01 21.383-14.747 34.656-1.475 16.222 8.111 26.545 24.333 26.545 10.323 0 19.908-3.687 28.757-8.111 22.858-11.798 40.555-28.757 57.514-46.454 2.212-.737 2.95-2.212 5.899-1.475Z"/><path fill="#FF4649" d="M128.433 119.28c1.474 0 5.161.738 8.848 1.475 27.282 5.161 44.242-4.424 53.09-30.232 5.899-16.96 18.434-22.12 34.656-13.273.738 0 .738.738 1.475.738 16.959 9.585 16.959 11.06 6.636 25.808-8.848 11.797-13.272 25.07-15.484 39.08-1.475 8.111-4.425 9.585-11.798 6.636-11.798-4.424-24.333-4.424-36.868 0-14.01 4.424-19.909 16.959-15.485 30.969 5.899 18.434 22.121 26.545 36.131 36.131 14.01 9.586 30.232 14.747 45.716 21.384 2.212.737 5.899.737 5.162 4.424-.738 2.212-3.687 2.212-6.636 2.212-33.182 1.475-64.888-3.687-90.696-25.808-24.333-19.909-42.03-44.242-39.08-78.16 2.212-11.061 10.323-19.172 24.333-21.384Z"/><path fill="#0069DA" d="M67.97 326.479c-17.697 2.212-35.393-12.535-36.868-30.969-1.475-17.697 13.272-35.393 30.232-36.868 19.171-2.212 36.868 11.06 38.343 28.757.737 16.959-10.323 37.605-31.707 39.08Z"/><path fill="#FFCB12" d="M377.664 63.978c18.434-1.475 36.131 13.272 37.606 31.706 1.474 17.697-13.273 34.657-30.97 36.131-19.171 1.475-36.131-12.535-37.605-30.969-1.475-18.434 11.798-35.393 30.969-36.868Z"/><path fill="#FF4649" d="M185.21 77.988c2.212 19.171-11.061 35.393-30.969 38.343-16.96 2.212-34.657-11.798-36.869-28.02-2.212-21.384 9.586-36.868 29.495-39.08 18.434-2.212 36.131 11.797 38.343 28.757Z"/><circle cx="434.5" cy="434.5" r="77.5" fill="#e91f63" style="stroke-width:.302734"/><path fill="#fff" d="M425.077 383.035h-35.382a1.514 1.514 0 0 0 0 3.027h32.77c.235-.346.477-.693.727-1.038l1.108-1.53z" style="stroke-width:.302734"/><path fill="#fff" fill-opacity=".7" d="M414.02 402.627a209.462 209.462 0 0 0-.82 2.205h-37.43a1.514 1.514 0 0 1 0-3.027h38.595l-.109.196z" style="stroke-width:.302734"/><path fill="#fff" fill-opacity=".3" d="M409.98 420.271h-40.265a1.514 1.514 0 0 0 0 3.028h39.85l.026-.131.01-.045c.187-.955.31-1.593.387-2.094a31.968 31.968 0 0 1-.007-.758z" style="stroke-width:.302734"/><path fill="#fff" d="M411.238 439.041H368.2a1.514 1.514 0 0 0 0 3.027h45.341a47.373 47.373 0 0 0-.91-1.146 15.756 15.756 0 0 1-1.394-1.881z" style="stroke-width:.302734"/><path fill="#fff" fill-opacity=".6" d="M422.95 457.508h-50.208a1.514 1.514 0 0 0 0 3.027h51.827a186.596 186.596 0 0 0-.904-1.726 1609.327 1609.327 0 0 1-.715-1.301z" style="stroke-width:.302734"/><path fill="#fff" d="M431.847 476.277h-46.995a1.514 1.514 0 0 0 0 3.028h48.221a229.097 229.097 0 0 0-1.226-3.028zm16.36-102.063c-.593 2.65-4.773-.583-5.566 2.416-4.681-3.297-.287 3.569-.907 4.002l-.038-.008-.371-.112c-.231-.138-.56-.362-1.029-.795-4.15 2.15-5.404 8.068-9.75 10.635-3.452 4.765-5.167 10.326-8.025 15.473-1.903 5.057-3.702 10.135-3.432 15.62-.448 4.333-2.816 9.88.477 13.61 4.823 5.852 8.423 12.776 12.089 19.435 5.731 10.793 10.419 22.138 14.341 33.648.902-2.5.33 5.446 1.953 6.309.166-3.997.605-10.315 1.172-15.18.545-12.904-3.392-25.428-3.271-38.289.031-.537.053-1.091.085-1.638l.306-1.557-.19-.037c.447-6.279 1.482-12.972 6.867-16.838 5.451-3.688 12.452-3.51 18.54-5.62 1.357-.48 2.749-.81 4.131-.967.012-.002.028.009.038.007 4.025-.424 8.067.41 11.88 1.827.057.022.127.055.183.076.347.13.723.267 1.065.406 2.831.825 8.41 3.097 9.848 1.309-3.308-4.176-9.096-5.064-13.709-7.362-.74-.291-1.657-.63-2.588-.904l-4.546-2-1.118-.537-.008.038-16.373-6.66a8.319 8.319 0 0 0-.702-.85l16.134 5.314.014-.076c.558.245 1.117.465 1.692.649l-.007.037 11.272 4.47c1.87 1.151 3.912 2.134 5.904 2.666 3.236 1.141 6.5 6.952 7.535 7.408.496-5.346-4.27-8.723-8.309-11.11-4.585-3.468-12.18-4.863-11.687-11.853-.12-.517-.237-1.033-.406-1.545l-1.452-3.014.083-.023c-2.072-3.718-5.41-6.776-9.273-8.459-3.728-2.174-7.956-4.435-12.117-5.823-2.269 3.95-2.379-3.955-6.277-2.38-3.098-.238-2.843.643-4.714-1.719h.256zm19.325 16.692c1.102.187 2.313.634 3.491 1.319 3.128 1.821 4.834 4.704 3.823 6.438-1.01 1.733-4.38 1.65-7.506-.178-3.127-1.828-4.844-4.655-3.83-6.4.632-1.088 2.188-1.49 4.022-1.18z" style="stroke-width:.302734"/><path fill="#e91f63" d="M466.893 398.626c3.134 2.005 5.676 2.01 6.962 0 1.286-2.01-.044-4.352-3.178-6.357-3.134-2.006-5.828-2.01-7.115 0-1.286 2.01.196 4.352 3.33 6.357z" style="stroke-width:.302734"/><path fill="#fff" fill-rule="evenodd" d="M471.284 399.026c1.137-.001 1.765-.39 2.036-.812.27-.423.36-1.156-.116-2.189-.467-1.015-1.411-2.12-2.772-2.99-1.36-.871-2.76-1.265-3.877-1.264-1.137.001-1.765.39-2.035.813-.27.422-.36 1.155.115 2.188.468 1.015 1.412 2.121 2.772 2.991 1.36.87 2.76 1.264 3.877 1.263zm3.31.003c-1.286 2.01-4.869 2.014-8.003.009-3.134-2.005-4.632-5.26-3.346-7.27 1.286-2.01 4.87-2.015 8.003-.01 3.135 2.005 5.03 6.005 3.346 7.27z" clip-rule="evenodd" style="stroke-width:.302734"/></svg>