<svg width="512" height="512" xml:space="preserve" xmlns="http://www.w3.org/2000/svg">
<path style="fill:#fff;stroke:none;stroke-width:1px;stroke-linecap:butt;stroke-linejoin:miter;stroke-opacity:1" d="m67.158 295.202 145.106-143.387 100.75 16.506 127.123 126.881-23.123 29.614-330.98-3.594-18.876-26.02"/>
<path style="fill:#0d597f;stroke-width:3.43855" d="M127.914 34.214 0 256l127.914 221.785h256.172L512 256.001 384.086 34.214Zm84.35 117.601 57.767 59.487 42.983-42.98 97.654 97.997 29.469 28.883c-4.264 2.957-8.287 5.393-12.035 7.36-3.748 1.95-7.28 3.462-10.557 4.607-3.267 1.142-6.284 1.916-9.076 2.404-2.785.485-5.328.688-7.635.688-2.785 0-5.171-.276-7.22-.696a27.864 27.864 0 0 1-5.09-1.539 20.203 20.203 0 0 1-3.087-1.59 10.461 10.461 0 0 1-1.146-.822l.355.244-26.271-26.029-45.045-45.045-6.139 6.139-32.95-32.588-2.425 2.437 32.78 32.747-.963.962 51.922 50.891c-4.264 2.957-8.286 5.39-12.034 7.357-3.748 1.95-7.283 3.463-10.556 4.608-3.267 1.141-6.29 1.916-9.078 2.404-2.786.485-5.331.688-7.635.688-2.75 0-5.171-.276-7.22-.696a28.007 28.007 0 0 1-5.089-1.539 20.165 20.165 0 0 1-3.084-1.59 10.342 10.342 0 0 1-1.148-.82l-22.66-23.314-64.99-64.989-23.416 22.454-65.676 65.677c-.07.059-.447.377-1.149.825a19.9 19.9 0 0 1-3.084 1.585c-1.34.568-3.04 1.127-5.09 1.543-2.063.42-4.456.696-7.22.696-2.304 0-4.848-.203-7.633-.692-2.785-.485-5.808-1.258-9.078-2.4-3.267-1.135-6.809-2.644-10.557-4.607-3.748-1.995-7.736-4.403-12-7.36zm-26.721 104.346v53.924a45.613 45.613 0 0 1-7.6-.764c-2.785-.509-5.772-1.293-9.007-2.441a83.227 83.227 0 0 1-10.42-4.608c-3.714-1.96-7.633-4.343-11.829-7.255z"/>
</svg>
