<svg width="512" height="512" viewBox="0 0 512 512" fill="none" xmlns="http://www.w3.org/2000/svg">
<defs>
<linearGradient id="paint0_linear_201_2" x1="55.7289" y1="443.382" x2="351.186" y2="153.173" gradientUnits="userSpaceOnUse">
<stop stop-color="#62AEEF"/>
<stop offset="1" stop-color="#98C379"/>
</linearGradient>
<clipPath id="clip0_201_2">
<rect width="512" height="512" fill="white"/>
</clipPath>
</defs>
<g clip-path="url(#clip0_201_2)">
<path d="M256 512C397.385 512 512 397.385 512 256C512 114.615 397.385 0 256 0C114.615 0 0 114.615 0 256C0 397.385 114.615 512 256 512Z" fill="#1D2128"/>
<path d="M256.334 84.9991V85.0061C242.234 119.568 233.733 142.178 218.034 175.712C231.69 182.613 243.642 193.596 258.657 211.209C241.583 197.705 228.273 189.55 213.443 185.361C193.352 227.275 161.875 286.98 98 401.726C116.936 390.621 223.989 362.666 214.266 337.352C211.643 331.031 206.365 330.192 198.242 327.305V311.221C206.38 308.325 211.643 307.496 214.266 301.171C216.894 294.835 213.756 290.522 210.048 282.719L221.422 271.351C229.262 275.078 233.547 278.192 239.874 275.565H239.877C246.199 272.942 247.033 267.68 249.93 259.544H266.017C268.924 267.72 269.75 272.947 276.066 275.565H276.07C282.412 278.192 286.756 275.043 294.526 271.351L305.896 282.719C302.178 290.547 299.058 294.845 301.681 301.171V301.174C304.295 307.48 309.488 308.3 317.706 311.221V327.305C264.526 357.018 388.804 391.47 414.727 401.726C404.961 383.751 396.243 367.546 387.92 352.115C374.809 341.955 361.132 328.733 333.235 314.418C352.409 319.4 366.139 325.147 376.84 331.571C292.209 174.034 285.355 153.101 256.334 84.9991ZM257.972 299.358C246.976 299.358 238.064 308.272 238.064 319.265C238.064 330.258 246.976 339.169 257.972 339.169C268.967 339.169 277.883 330.258 277.883 319.265C277.883 308.272 268.967 299.358 257.972 299.358Z" fill="url(#paint0_linear_201_2)"/>
</g>
</svg>
