<svg width="512" height="512" fill="none" xmlns="http://www.w3.org/2000/svg">
<circle cx="256" cy="256" r="256" fill="#fff"/>
<path fill-rule="evenodd" clip-rule="evenodd" d="M255.962 3.515c-17.85 43.756-28.616 72.377-48.49 114.832 12.185 12.914 27.142 27.953 51.431 44.938-26.113-10.744-43.926-21.53-57.238-32.723-25.435 53.063-65.284 128.65-146.15 273.923 63.558-36.686 112.827-59.304 158.744-67.934a116.3 116.3 0 0 1-3.017-27.219l.076-2.036c1.008-40.712 22.19-72.02 47.284-69.894 25.093 2.125 44.597 36.872 43.588 77.585-.19 7.66-1.054 15.03-2.564 21.866 45.418 8.882 94.16 31.442 156.86 67.632-12.364-22.757-23.399-43.27-33.937-62.807-16.599-12.863-33.912-29.604-69.229-47.727 24.275 6.306 41.655 13.582 55.203 21.714C301.38 116.222 292.703 89.721 255.963 3.515h-.001Z" fill="#1793D1"/>
</svg>
