<svg height="512" width="512" xmlns="http://www.w3.org/2000/svg">
<circle style="fill:#fff;fill-opacity:1;stroke-width:8.74298;stroke-dasharray:8.74298,8.74298;stop-color:#000;stroke:none" cx="256" cy="256" r="256"/>
<path style="fill:#658de5;fill-opacity:1;stroke-width:1.93458" d="M57.745 398.121c0-1.311 190.016-362.764 196.386-373.572l4.4-7.466 4.807 8.434c2.643 4.638 22.016 41.515 43.05 81.947 21.035 40.434 63.45 121.726 94.257 180.65 43.229 82.686 55.416 107.515 53.4 108.792-1.436.911-18.746 1.668-38.467 1.684l-35.856.028-10.574-10.722c-26.529-26.9-72.896-51.288-124.715-65.596l-23.215-6.41 29.019-1.457c27.26-1.368 58.013-.444 74.827 2.242 5.62.899 7.393.53 7.393-1.535 0-5.103-71.135-135.134-73.927-135.134-2.034 0-16.395 25.032-72.141 125.749-27.385 49.477-49.943 90.142-50.127 90.366-.825 1.002-78.517 2.976-78.517 1.995z"/>
</svg>
