<svg xmlns="http://www.w3.org/2000/svg" xmlns:xlink="http://www.w3.org/1999/xlink" width="512" height="512"><defs><linearGradient xlink:href="#a" id="d" x1="237.186" x2="237.072" y1="296.2" y2="304.08" gradientTransform="translate(-232.187 -115.547) scale(1.23382)" gradientUnits="userSpaceOnUse"/><linearGradient id="a"><stop offset="0" style="stop-color:#001313;stop-opacity:1"/><stop offset="1" style="stop-color:#001313;stop-opacity:0"/></linearGradient><linearGradient xlink:href="#b" id="e" x1="994.809" x2="982.344" y1="1533.278" y2="1556.765" gradientTransform="translate(-2099.423 -3485.723) scale(2.31936)" gradientUnits="userSpaceOnUse"/><linearGradient id="b"><stop offset="0" style="stop-color:#020202;stop-opacity:1"/><stop offset="1" style="stop-color:#020202;stop-opacity:0"/></linearGradient><linearGradient xlink:href="#b" id="f" x1="1022.515" x2="1018.597" y1="1582.428" y2="1575.638" gradientTransform="matrix(2.3811 0 0 2.2591 -2178.269 -3438.755)" gradientUnits="userSpaceOnUse"/><linearGradient xlink:href="#b" id="g" x1="940.433" x2="930.589" y1="1612.467" y2="1594.47" gradientTransform="translate(-2099.423 -3485.723) scale(2.31936)" gradientUnits="userSpaceOnUse"/><linearGradient xlink:href="#b" id="h" x1="965.605" x2="951.661" y1="1571.427" y2="1571.345" gradientTransform="translate(-2099.423 -3485.723) scale(2.31936)" gradientUnits="userSpaceOnUse"/><linearGradient xlink:href="#b" id="i" x1="946.234" x2="961.373" y1="1655.864" y2="1655.846" gradientTransform="translate(-2099.423 -3485.723) scale(2.31936)" gradientUnits="userSpaceOnUse"/><linearGradient xlink:href="#a" id="j" x1="366.154" x2="350.922" y1="427.324" y2="419.642" gradientTransform="translate(-296.382 -110.159) scale(1.23382)" gradientUnits="userSpaceOnUse"/><linearGradient xlink:href="#b" id="k" x1="936.335" x2="933.378" y1="1628.774" y2="1622.977" gradientTransform="translate(-2099.423 -3485.723) scale(2.31936)" gradientUnits="userSpaceOnUse"/><linearGradient xlink:href="#b" id="l" x1="950.33" x2="941.971" y1="1618.617" y2="1645.767" gradientTransform="translate(-2099.423 -3485.723) scale(2.31936)" gradientUnits="userSpaceOnUse"/><linearGradient xlink:href="#b" id="m" x1="1008.201" x2="1015.731" y1="1681.329" y2="1668.374" gradientTransform="translate(-2099.423 -3485.723) scale(2.31936)" gradientUnits="userSpaceOnUse"/><linearGradient xlink:href="#c" id="n" x1="1148.342" x2="1145.437" y1="1585.508" y2="1629.975" gradientTransform="translate(-282.868 -491.668) scale(.34992)" gradientUnits="userSpaceOnUse"/><linearGradient id="c"><stop offset="0" style="stop-color:#008066;stop-opacity:0"/><stop offset="1" style="stop-color:#0fc;stop-opacity:1"/></linearGradient><linearGradient xlink:href="#c" id="o" x1="1148.342" x2="1145.437" y1="1585.508" y2="1629.975" gradientTransform="translate(-211.152 -375.487) scale(.26565)" gradientUnits="userSpaceOnUse"/><linearGradient xlink:href="#c" id="p" x1="1148.342" x2="1145.437" y1="1585.508" y2="1629.975" gradientTransform="translate(-217.309 -786.915) scale(.55423)" gradientUnits="userSpaceOnUse"/><linearGradient xlink:href="#a" id="q" x1="348.048" x2="361.21" y1="194.78" y2="187.235" gradientTransform="translate(-296.382 -110.159) scale(1.23382)" gradientUnits="userSpaceOnUse"/></defs><circle cx="256" cy="256" r="256" style="fill:#fff;stroke-width:117.924;stroke-dasharray:117.924,117.924;stop-color:#000"/><path d="M123.982 65.458h230.052l-58.24 100.864h-124.76l-51.983 90.04 52.7 91.298h243.367l-59.723 103.436H119.04L5.004 253.576l109.173-189.09Z" style="fill:#fff;fill-opacity:1;stroke:none;stroke-width:.613663px;stroke-linecap:butt;stroke-linejoin:miter;stroke-opacity:1"/><path d="m114.177 64.486 181.618 101.84 58.24-100.868zm57.579 283.174-52.713 103.436h236.36l59.719-103.436Z" style="fill:#0a8;stroke:none;stroke-width:.613663px;stroke-linecap:butt;stroke-linejoin:miter;stroke-opacity:1"/><path d="m114.177 64.486 181.618 101.84h-124.76l-51.984 90.04 52.7 91.294-52.712 103.436L5 253.576l109.177-189.09" style="fill:#0cf;stroke:none;stroke-width:.613663px;stroke-linecap:butt;stroke-linejoin:miter;stroke-opacity:1"/><path d="m5.004 253.58 114.043 2.787 3.19 5.461-113.651-2.289z" style="fill:url(#d);fill-opacity:1;stroke:none;stroke-width:1.2338px;stroke-linecap:butt;stroke-linejoin:miter;stroke-opacity:1"/><path d="M295.795 166.326 114.177 64.486l-13.812 24.91 137.677 76.35z" style="fill:url(#e);fill-opacity:1;stroke:none;stroke-width:.613663px;stroke-linecap:butt;stroke-linejoin:miter;stroke-opacity:1"/><path d="M170.131 165.374 355.124 60.9l-59.787 98.254Z" style="fill:url(#f);fill-opacity:1;stroke:none;stroke-width:.613651px;stroke-linecap:butt;stroke-linejoin:miter;stroke-opacity:1"/><path d="m171.035 166.326 183-100.868-58.24 100.868z" style="fill:#0a8;fill-opacity:1;stroke:none;stroke-width:.613663px;stroke-linecap:butt;stroke-linejoin:miter;stroke-opacity:1"/><path d="m5.004 253.58 166.03-87.254-51.983 90.04z" style="fill:#0a8;stroke:none;stroke-width:.613663px;stroke-linecap:butt;stroke-linejoin:miter;stroke-opacity:1"/><path d="m5.004 253.58 166.03-87.254-11.218-17.544L16.734 231.72Z" style="fill:url(#g);fill-opacity:1;stroke:none;stroke-width:.613663px;stroke-linecap:butt;stroke-linejoin:miter;stroke-opacity:1"/><path d="m171.035 166.326-56.858-101.84 4.87 191.88z" style="fill:#0a8;fill-opacity:1;stroke:none;stroke-width:.613663px;stroke-linecap:butt;stroke-linejoin:miter;stroke-opacity:1"/><path d="m171.756 347.66 183.648 103.436 59.718-103.436Z" style="fill:#0cf;fill-opacity:1;stroke:none;stroke-width:.613663px;stroke-linecap:butt;stroke-linejoin:miter;stroke-opacity:1"/><path d="m114.177 64.486-13.812 24.91 1.325 166.152 17.357.819z" style="fill:url(#h);fill-opacity:1;stroke:none;stroke-width:.613663px;stroke-linecap:butt;stroke-linejoin:miter;stroke-opacity:1"/><path d="m119.047 256.367-87.067 43.66L119.04 451.1Z" style="fill:#0a8;fill-opacity:1;stroke:none;stroke-width:.613663px;stroke-linecap:butt;stroke-linejoin:miter;stroke-opacity:1"/><path d="M119.047 256.367v194.725l21.337-41.632 1.645-114.148z" style="fill:url(#i);fill-opacity:1;stroke:none;stroke-width:.613663px;stroke-linecap:butt;stroke-linejoin:miter;stroke-opacity:1"/><path d="m119.04 451.096-8.214-14.79 52.9-102.159 8.026 13.513z" style="fill:url(#j);fill-opacity:1;stroke:none;stroke-width:1.2338px;stroke-linecap:butt;stroke-linejoin:miter;stroke-opacity:1"/><path d="m31.98 300.028 87.071-43.661-17.361-.819-75.544 36.093z" style="fill:url(#k);fill-opacity:1;stroke:none;stroke-width:.613663px;stroke-linecap:butt;stroke-linejoin:miter;stroke-opacity:1"/><path d="m31.98 300.028 139.776 47.632-52.709-91.293Z" style="fill:#0a8;fill-opacity:1;stroke:none;stroke-width:.613663px;stroke-linecap:butt;stroke-linejoin:miter;stroke-opacity:1"/><path d="M171.756 347.66 31.98 300.028l15.178 26.206 114.87 41.725z" style="fill:url(#l);fill-opacity:1;stroke:none;stroke-width:.613663px;stroke-linecap:butt;stroke-linejoin:miter;stroke-opacity:1"/><path d="m171.756 347.66 183.648 103.436 22.008-39.18L259.22 346.65Z" style="fill:url(#m);fill-opacity:1;stroke:none;stroke-width:.613663px;stroke-linecap:butt;stroke-linejoin:miter;stroke-opacity:1"/><g transform="translate(-18.702 .542) scale(4.0517)"><circle cx="117.952" cy="75.441" r="9.689" style="fill:#0cf;fill-opacity:1;stroke:none;stroke-width:.0925842;stroke-opacity:1"/><circle cx="118.085" cy="75.341" r="9.689" style="fill:url(#n);fill-opacity:1;stroke:none;stroke-width:.0925842;stroke-opacity:1"/></g><g transform="translate(-.867 -8.388) scale(4.0517)"><circle cx="93.138" cy="55.045" r="7.356" style="fill:#0cf;fill-opacity:1;stroke:none;stroke-width:.070287;stroke-opacity:1"/><circle cx="93.239" cy="54.969" r="7.356" style="fill:url(#o);fill-opacity:1;stroke:none;stroke-width:.070287;stroke-opacity:1"/></g><circle cx="417.536" cy="111.312" r="15.348" style="fill:#0cf;fill-opacity:1;stroke:none;stroke-width:.14664;stroke-opacity:1"/><circle cx="417.747" cy="111.154" r="15.348" style="fill:url(#p);fill-opacity:1;stroke:none;stroke-width:.14664;stroke-opacity:1"/><path d="m171.035 166.326-56.858-101.84 14.485-.207 53.442 95.175z" style="fill:url(#q);fill-opacity:1;stroke:none;stroke-width:1.2338px;stroke-linecap:butt;stroke-linejoin:miter;stroke-opacity:1"/><circle cx="434.5" cy="434.5" r="77.5" fill="#e91f63" style="stroke-width:.302734"/><path fill="#fff" d="M425.077 383.035h-35.382a1.514 1.514 0 0 0 0 3.027h32.77c.235-.346.477-.693.727-1.038l1.108-1.53z" style="stroke-width:.302734"/><path fill="#fff" fill-opacity=".7" d="M414.02 402.627a209.462 209.462 0 0 0-.82 2.205h-37.43a1.514 1.514 0 0 1 0-3.027h38.595l-.109.196z" style="stroke-width:.302734"/><path fill="#fff" fill-opacity=".3" d="M409.98 420.271h-40.265a1.514 1.514 0 0 0 0 3.028h39.85l.026-.131.01-.045c.187-.955.31-1.593.387-2.094a31.968 31.968 0 0 1-.007-.758z" style="stroke-width:.302734"/><path fill="#fff" d="M411.238 439.041H368.2a1.514 1.514 0 0 0 0 3.027h45.341a47.373 47.373 0 0 0-.91-1.146 15.756 15.756 0 0 1-1.394-1.881z" style="stroke-width:.302734"/><path fill="#fff" fill-opacity=".6" d="M422.95 457.508h-50.208a1.514 1.514 0 0 0 0 3.027h51.827a186.596 186.596 0 0 0-.904-1.726 1609.327 1609.327 0 0 1-.715-1.301z" style="stroke-width:.302734"/><path fill="#fff" d="M431.847 476.277h-46.995a1.514 1.514 0 0 0 0 3.028h48.221a229.097 229.097 0 0 0-1.226-3.028zm16.36-102.063c-.593 2.65-4.773-.583-5.566 2.416-4.681-3.297-.287 3.569-.907 4.002l-.038-.008-.371-.112c-.231-.138-.56-.362-1.029-.795-4.15 2.15-5.404 8.068-9.75 10.635-3.452 4.765-5.167 10.326-8.025 15.473-1.903 5.057-3.702 10.135-3.432 15.62-.448 4.333-2.816 9.88.477 13.61 4.823 5.852 8.423 12.776 12.089 19.435 5.731 10.793 10.419 22.138 14.341 33.648.902-2.5.33 5.446 1.953 6.309.166-3.997.605-10.315 1.172-15.18.545-12.904-3.392-25.428-3.271-38.289.031-.537.053-1.091.085-1.638l.306-1.557-.19-.037c.447-6.279 1.482-12.972 6.867-16.838 5.451-3.688 12.452-3.51 18.54-5.62 1.357-.48 2.749-.81 4.131-.967.012-.002.028.009.038.007 4.025-.424 8.067.41 11.88 1.827.057.022.127.055.183.076.347.13.723.267 1.065.406 2.831.825 8.41 3.097 9.848 1.309-3.308-4.176-9.096-5.064-13.709-7.362-.74-.291-1.657-.63-2.588-.904l-4.546-2-1.118-.537-.008.038-16.373-6.66a8.319 8.319 0 0 0-.702-.85l16.134 5.314.014-.076c.558.245 1.117.465 1.692.649l-.007.037 11.272 4.47c1.87 1.151 3.912 2.134 5.904 2.666 3.236 1.141 6.5 6.952 7.535 7.408.496-5.346-4.27-8.723-8.309-11.11-4.585-3.468-12.18-4.863-11.687-11.853-.12-.517-.237-1.033-.406-1.545l-1.452-3.014.083-.023c-2.072-3.718-5.41-6.776-9.273-8.459-3.728-2.174-7.956-4.435-12.117-5.823-2.269 3.95-2.379-3.955-6.277-2.38-3.098-.238-2.843.643-4.714-1.719h.256zm19.325 16.692c1.102.187 2.313.634 3.491 1.319 3.128 1.821 4.834 4.704 3.823 6.438-1.01 1.733-4.38 1.65-7.506-.178-3.127-1.828-4.844-4.655-3.83-6.4.632-1.088 2.188-1.49 4.022-1.18z" style="stroke-width:.302734"/><path fill="#e91f63" d="M466.893 398.626c3.134 2.005 5.676 2.01 6.962 0 1.286-2.01-.044-4.352-3.178-6.357-3.134-2.006-5.828-2.01-7.115 0-1.286 2.01.196 4.352 3.33 6.357z" style="stroke-width:.302734"/><path fill="#fff" fill-rule="evenodd" d="M471.284 399.026c1.137-.001 1.765-.39 2.036-.812.27-.423.36-1.156-.116-2.189-.467-1.015-1.411-2.12-2.772-2.99-1.36-.871-2.76-1.265-3.877-1.264-1.137.001-1.765.39-2.035.813-.27.422-.36 1.155.115 2.188.468 1.015 1.412 2.121 2.772 2.991 1.36.87 2.76 1.264 3.877 1.263zm3.31.003c-1.286 2.01-4.869 2.014-8.003.009-3.134-2.005-4.632-5.26-3.346-7.27 1.286-2.01 4.87-2.015 8.003-.01 3.135 2.005 5.03 6.005 3.346 7.27z" clip-rule="evenodd" style="stroke-width:.302734"/></svg>