<svg width="512" height="512" viewBox="0 0 512 512" fill="none" xmlns="http://www.w3.org/2000/svg">
<defs>
<clipPath id="clip0_205_13">
<rect width="512" height="512" fill="white"/>
</clipPath>
</defs>
<g clip-path="url(#clip0_205_13)">
<circle cx="256" cy="256" r="256" fill="#A04E8B"/>
<path fill-rule="evenodd" clip-rule="evenodd" d="M256.067 463H257.892L288.073 432.647L318.254 402.295H359.596H400.938V361.045V319.795L432.035 288.536L463.133 257.277L432.035 226.017L400.938 194.758V153.508V112.258H359.73H318.521L287.294 81.1292L256.067 50L224.839 81.1292L193.612 112.258H152.403H111.195V153.508V194.758L80.0976 226.017L49 257.277L80.0976 288.536L111.195 319.795V361.045V402.295H152.537H193.879L224.06 432.647L254.242 463H256.067ZM239.221 398.922H256.067H272.912V367.471V336.02L264.489 328.099L256.067 320.179L247.644 328.099L239.221 336.02V367.471V398.922ZM166.518 368.668L189.393 345.945L212.268 323.222V312.17V301.119H201.079H189.89L167.186 323.514L144.481 345.909L155.499 357.288L166.518 368.668ZM341.784 368.57H343.405H345.027L356.186 357.743L367.345 346.916L344.645 324.018L321.945 301.119H310.905H299.865V313.675V326.232L320.824 347.401L341.784 368.57ZM114.564 274.139H145.984H177.403L185.315 265.708L193.228 257.277L185.315 248.845L177.403 240.414H145.984H114.564V257.277V274.139ZM334.73 274.139H366.15H397.569V257.277V240.414H366.15H334.73L326.818 248.845L318.905 257.277L326.818 265.708L334.73 274.139ZM189.528 213.434H200.898H212.268V202.383V191.332L189.393 168.609L166.518 145.885L155.465 157.3L144.413 168.715L166.97 191.074L189.528 213.434ZM253.872 193.199H255.594H257.317L265.114 185.866L272.912 178.533V147.082V115.631H256.067H239.221V146.609V177.588L246.546 185.393L253.872 193.199Z" fill="white"/>
<path d="M247.93 289.439L239.222 295.15V284.644V274.139H229.115H219.008V271.875V269.611L224.584 263.444L230.159 257.276L224.584 251.109L219.008 244.942V242.678V240.414H229.115H239.222V229.908V219.403L247.93 225.114L256.638 230.826L262.514 225.502L268.39 220.179H270.652H272.913V230.296V240.414H283.408H293.903L288.384 248.845L282.865 257.276L288.384 265.708L293.903 274.139H283.408H272.913V284.257V294.374H270.652H268.39L262.514 289.051L256.638 283.727L247.93 289.439ZM312.416 213.434H299.866V200.871V188.309L322.492 165.486L345.118 142.662L330.213 127.46L315.309 112.258H358.124H400.939V155.117V197.976L385.753 183.056L370.566 168.137L347.766 190.785L324.965 213.434H312.416Z" fill="#EDA527"/>
</g>
</svg>
