<svg xmlns="http://www.w3.org/2000/svg" width="512" height="512"><circle cx="256" cy="256" r="256" style="fill:#fff;stroke-width:23.9308;stroke-dasharray:23.9308,23.9308;stop-color:#000"/><path d="M284.565 11c-7.59.637-15.14 1.014-22.6 1.977l3.283.45c5.49-2.01 13.493-1.103 19.317-2.427Zm-33.155 3.495c-12.343.75-29.466 7.183-24.18 1.332-20.133 8.982-55.888 21.594-75.953 40.408l-.636-4.218c-9.194 11.038-40.099 32.96-42.561 47.256l-2.454.574c-4.784 8.101-7.88 17.29-11.675 25.627-6.257 10.663-9.176 4.1-8.286 5.771-12.308 24.955-18.421 45.918-23.703 63.115 3.764 5.625.094 33.868 1.518 56.469-6.181 111.618 78.338 219.995 170.722 245.017 13.541 4.844 33.675 4.657 50.804 5.154-20.21-5.779-22.823-3.065-42.509-9.928-14.2-6.687-17.307-14.32-27.365-23.05l3.98 7.033c-19.727-6.98-11.475-8.639-27.524-13.722l4.253-5.55c-6.393-.484-16.937-10.779-19.82-16.476l-6.99.273c-8.403-10.37-12.882-17.836-12.557-23.624l-2.259 4.024c-2.562-4.396-30.922-38.888-16.21-30.86-2.734-2.498-6.36-4.068-10.3-11.224l2.992-3.424c-7.08-9.11-13.027-20.784-12.575-24.674 3.777 5.1 6.39 6.055 8.984 6.927-17.879-44.36-18.881-2.445-32.422-45.156l2.868-.23c-2.196-3.307-3.528-6.906-5.295-10.43l1.244-12.425c-12.872-14.883-3.595-63.282-1.738-89.827 1.288-10.794 10.739-22.283 17.932-40.302l-4.377-.75c8.376-14.612 47.825-58.685 66.097-56.417 8.85-11.119-1.756-.04-3.486-2.841 19.442-20.12 25.557-14.216 38.678-17.835 14.152-8.4-12.145 3.276-5.436-3.203 24.462-6.249 17.33-14.204 49.242-17.376 3.366 1.916-7.81 2.96-10.616 5.445 20.382-9.972 64.499-7.706 93.154 5.533 33.25 15.538 70.607 61.47 72.08 104.687l1.676.45c-.85 17.179 2.63 37.047-3.397 55.296l4.103-8.64c.484 13.13-3.84 19.503-7.739 30.781l-7.016 3.503c-5.742 11.151.556 7.086-3.556 15.955-8.964 7.97-27.202 24.942-33.04 26.492-4.26-.095 2.886-5.029 3.822-6.963-12 8.242-9.63 12.37-27.984 17.376l-.538-1.191c-45.264 21.294-108.144-20.906-107.317-78.487-.483 3.655-1.37 2.74-2.374 4.218-2.336-29.626 13.685-59.383 40.7-71.533 26.422-13.08 57.398-7.711 76.324 9.928-10.396-13.618-31.088-28.054-55.613-26.703-24.023.38-46.498 15.646-53.998 32.219-12.308 7.748-13.734 29.865-19.097 33.913-7.215 53.03 13.565 75.944 48.73 102.896 5.535 3.732 1.562 4.297 2.312 7.139-11.684-5.472-22.38-13.732-31.177-23.844 4.667 6.831 9.7 13.472 16.21 18.69-11.015-3.732-25.724-26.686-30.021-27.62 18.99 33.999 77.042 59.626 107.44 46.911-14.065.52-31.936.283-47.74-5.56-6.638-3.415-15.663-10.483-14.05-11.807 41.487 15.498 84.34 11.736 120.237-17.04 9.131-7.112 19.108-19.212 21.99-19.38-4.341 6.53.74 3.14-2.594 8.905 9.1-14.675-3.953-5.975 9.407-25.345l4.933 6.795c-1.834-12.18 15.127-26.975 13.405-46.241 3.89-5.892 4.342 6.345.212 19.9 5.729-15.037 1.51-17.456 2.983-29.863 1.59 4.17 3.685 8.598 4.756 12.999-3.732-14.531 3.83-24.463 5.7-32.908-1.843-.818-5.767 6.425-6.662-10.74.131-7.454 2.074-3.91 2.824-5.744-1.464-.84-5.297-6.556-7.633-17.517 1.694-2.576 4.526 6.68 6.83 7.06-1.482-8.716-4.035-15.366-4.139-22.053-6.732-14.07-2.382 1.87-7.845-6.045-7.166-22.352 5.945-5.18 6.83-15.338 10.862 15.737 17.058 40.128 19.9 50.23-2.169-12.316-5.675-24.257-9.954-35.801 3.298 1.387-5.313-25.336 4.289-7.634-10.257-37.736-43.897-72.998-74.842-89.544 3.786 3.466 8.564 7.816 6.847 8.498-15.389-9.163-12.682-9.876-14.887-13.749-12.538-5.1-13.36.411-21.664.01-23.63-12.534-28.184-11.2-49.93-19.053l.988 4.624c-15.656-5.214-18.237 1.978-35.158.018-1.03-.805 5.422-2.917 10.731-3.69-15.136 1.998-14.425-2.976-29.236.557 3.65-2.562 7.507-4.256 11.401-6.433zm12.231 2.823c4.333.778 9.362 1.375 8.657 2.41 4.74-1.04 5.815-1.998-8.657-2.41zm8.657 2.41-3.062.635 2.85-.256zm-199.782 96.18c-.004.265.02.486.062.67a19.7 19.7 0 0 0-.062-.67zm.062.67c.824 11.214-8.659 15.436 2.17 7.863 5.596-12.604-1.45-4.669-2.17-7.862zm-9.054 36.517c-7.03 8.987-3.24 10.901-3.98 17.014 2.544-7.807 3.008-12.496 3.98-17.014zm289.335 54.28c-1.004.026-2.29 2.576-2.939 5.366 1.514.787 2.71 10.309 4.175 4.422.49-7.311-.232-9.812-1.236-9.787zm88.785 24.64-1.191 2.991c-2.187 15.534-6.908 30.905-14.146 45.156 7.997-15.037 13.169-31.484 15.337-48.148zm-94.036 5.47c-1.084 5.387-4.008 10.034-6.76 14.941-15.176 9.556-1.427-5.675-.008-11.463-16.32 20.54-2.241 12.317-2.833 18.055 4.834-6.673 8.359-13.978 9.601-21.532zm-33.092 31.364c-6.601 1.617-13.317 1.651-20.085 1.032-8.12.113 1.534 4.185 12.134 5.816a108.477 108.477 0 0 0 7.95-6.848zm-102.455 1.059c1.79 6.583 5.449 12.233 8.86 17.984l-2.497-7.36c-2.824-3.121-4.492-6.879-6.363-10.624zm-6.257 11.119-1.138 5.692c5.336 7.247 9.574 15.098 16.387 20.764-4.902-9.57-8.548-13.52-15.249-26.456z" style="fill:#a80030;fill-opacity:1;stroke-width:4.51824"/><circle cx="434.5" cy="434.5" r="77.5" fill="#e91f63" style="stroke-width:.302734"/><path fill="#fff" d="M425.077 383.035h-35.382a1.514 1.514 0 0 0 0 3.027h32.77c.235-.346.477-.693.727-1.038l1.108-1.53z" style="stroke-width:.302734"/><path fill="#fff" fill-opacity=".7" d="M414.02 402.627a209.462 209.462 0 0 0-.82 2.205h-37.43a1.514 1.514 0 0 1 0-3.027h38.595l-.109.196z" style="stroke-width:.302734"/><path fill="#fff" fill-opacity=".3" d="M409.98 420.271h-40.265a1.514 1.514 0 0 0 0 3.028h39.85l.026-.131.01-.045c.187-.955.31-1.593.387-2.094a31.968 31.968 0 0 1-.007-.758z" style="stroke-width:.302734"/><path fill="#fff" d="M411.238 439.041H368.2a1.514 1.514 0 0 0 0 3.027h45.341a47.373 47.373 0 0 0-.91-1.146 15.756 15.756 0 0 1-1.394-1.881z" style="stroke-width:.302734"/><path fill="#fff" fill-opacity=".6" d="M422.95 457.508h-50.208a1.514 1.514 0 0 0 0 3.027h51.827a186.596 186.596 0 0 0-.904-1.726 1609.327 1609.327 0 0 1-.715-1.301z" style="stroke-width:.302734"/><path fill="#fff" d="M431.847 476.277h-46.995a1.514 1.514 0 0 0 0 3.028h48.221a229.097 229.097 0 0 0-1.226-3.028zm16.36-102.063c-.593 2.65-4.773-.583-5.566 2.416-4.681-3.297-.287 3.569-.907 4.002l-.038-.008-.371-.112c-.231-.138-.56-.362-1.029-.795-4.15 2.15-5.404 8.068-9.75 10.635-3.452 4.765-5.167 10.326-8.025 15.473-1.903 5.057-3.702 10.135-3.432 15.62-.448 4.333-2.816 9.88.477 13.61 4.823 5.852 8.423 12.776 12.089 19.435 5.731 10.793 10.419 22.138 14.341 33.648.902-2.5.33 5.446 1.953 6.309.166-3.997.605-10.315 1.172-15.18.545-12.904-3.392-25.428-3.271-38.289.031-.537.053-1.091.085-1.638l.306-1.557-.19-.037c.447-6.279 1.482-12.972 6.867-16.838 5.451-3.688 12.452-3.51 18.54-5.62 1.357-.48 2.749-.81 4.131-.967.012-.002.028.009.038.007 4.025-.424 8.067.41 11.88 1.827.057.022.127.055.183.076.347.13.723.267 1.065.406 2.831.825 8.41 3.097 9.848 1.309-3.308-4.176-9.096-5.064-13.709-7.362-.74-.291-1.657-.63-2.588-.904l-4.546-2-1.118-.537-.008.038-16.373-6.66a8.319 8.319 0 0 0-.702-.85l16.134 5.314.014-.076c.558.245 1.117.465 1.692.649l-.007.037 11.272 4.47c1.87 1.151 3.912 2.134 5.904 2.666 3.236 1.141 6.5 6.952 7.535 7.408.496-5.346-4.27-8.723-8.309-11.11-4.585-3.468-12.18-4.863-11.687-11.853-.12-.517-.237-1.033-.406-1.545l-1.452-3.014.083-.023c-2.072-3.718-5.41-6.776-9.273-8.459-3.728-2.174-7.956-4.435-12.117-5.823-2.269 3.95-2.379-3.955-6.277-2.38-3.098-.238-2.843.643-4.714-1.719h.256zm19.325 16.692c1.102.187 2.313.634 3.491 1.319 3.128 1.821 4.834 4.704 3.823 6.438-1.01 1.733-4.38 1.65-7.506-.178-3.127-1.828-4.844-4.655-3.83-6.4.632-1.088 2.188-1.49 4.022-1.18z" style="stroke-width:.302734"/><path fill="#e91f63" d="M466.893 398.626c3.134 2.005 5.676 2.01 6.962 0 1.286-2.01-.044-4.352-3.178-6.357-3.134-2.006-5.828-2.01-7.115 0-1.286 2.01.196 4.352 3.33 6.357z" style="stroke-width:.302734"/><path fill="#fff" fill-rule="evenodd" d="M471.284 399.026c1.137-.001 1.765-.39 2.036-.812.27-.423.36-1.156-.116-2.189-.467-1.015-1.411-2.12-2.772-2.99-1.36-.871-2.76-1.265-3.877-1.264-1.137.001-1.765.39-2.035.813-.27.422-.36 1.155.115 2.188.468 1.015 1.412 2.121 2.772 2.991 1.36.87 2.76 1.264 3.877 1.263zm3.31.003c-1.286 2.01-4.869 2.014-8.003.009-3.134-2.005-4.632-5.26-3.346-7.27 1.286-2.01 4.87-2.015 8.003-.01 3.135 2.005 5.03 6.005 3.346 7.27z" clip-rule="evenodd" style="stroke-width:.302734"/></svg>