<svg width="512" height="512" viewBox="0 0 512 512" fill="none" xmlns="http://www.w3.org/2000/svg">
<defs>
<clipPath id="clip0_205_37">
<rect width="512" height="512" fill="white"/>
</clipPath>
</defs>
<g clip-path="url(#clip0_205_37)">
<path fill-rule="evenodd" clip-rule="evenodd" d="M327.863 10.3594C192.184 -29.3212 50.0573 48.4773 10.3583 184.151C-29.3215 319.816 48.4857 461.959 184.167 501.64C319.816 541.32 461.976 463.531 501.644 327.863C541.319 192.168 463.51 50.0401 327.863 10.3594Z" fill="#EFF4F8"/>
<path fill-rule="evenodd" clip-rule="evenodd" d="M326.228 15.9427C193.63 -22.83 54.7317 53.1918 15.9418 185.788C-22.8376 318.367 53.2026 457.282 185.798 496.059C318.366 534.838 457.296 458.814 496.058 326.233C534.838 193.622 458.795 54.7241 326.23 15.947L326.228 15.9427Z" fill="white"/>
<path opacity="0.8" fill-rule="evenodd" clip-rule="evenodd" d="M331.614 47.7265C299.843 36.1366 267.293 33.0067 235.708 35.9445C199.087 38.8343 181.209 50.1754 182.267 48.1237C122.382 69.5028 71.7521 115.489 48.3018 179.984C6.54496 294.842 65.6867 421.859 180.372 463.677C295.103 505.497 421.932 446.272 463.689 331.417C505.459 216.559 446.317 89.5592 331.614 47.7265V47.7265ZM187.922 442.909C175.698 438.441 164.279 432.755 153.524 426.264C206.966 430.37 276.705 418.053 323.735 374.04C323.735 374.04 413.388 302.405 348.53 184.849C348.53 184.849 358.985 232.226 345.656 271.202C345.656 271.202 332.944 324.199 276.437 339.597C193.21 362.275 98.3773 304.02 58.7357 275.798C55.7519 246.787 58.4044 216.812 69.0358 187.565C84.7939 144.232 114.42 110.421 150.619 87.7127C141.572 151.023 148.725 209.31 159.008 233.726C172.808 266.465 196.795 304.649 243.59 309.544C290.382 314.455 316.187 270.665 316.187 270.665C340.192 234.184 343.951 181.802 343.588 180.539C343.222 179.26 337.191 175.802 337.191 175.802C321.036 241.179 294.394 263.021 294.394 263.021C252.386 303.575 222.633 275.449 222.633 275.449C190.653 241.101 213.046 185.275 213.046 185.275C225.57 147.249 262.068 91.5956 303.426 63.2975C310.313 65.0022 317.245 66.0608 324.052 68.5402C349.082 77.6681 371.003 91.4232 389.543 108.321C359.301 119.359 310.47 142.698 310.47 142.698C233.071 175.296 227.844 224.598 227.844 224.598C219.838 275.419 260.155 253.911 260.155 253.911C301.659 233.695 322.047 170.699 322.047 170.699C309.096 168.235 298.894 172.168 298.894 172.168C282.329 213.054 248.532 229.873 248.532 229.873C235.237 236.917 232.141 224.471 232.141 224.471C229.898 215.156 241.757 213.558 241.757 213.558C260.17 206.405 271.952 187.061 274.622 179.148C277.276 171.221 282.218 170.605 282.218 170.605C307.455 162.552 330.463 160.751 330.463 160.751C361.795 156.896 409.757 171.839 409.757 171.839C420.511 176.165 430.824 179.402 439.984 181.99C457.56 225.91 460.34 275.923 442.921 323.867C405.367 427.229 291.187 480.542 187.92 442.909H187.922Z" fill="#00B7FF"/>
</g>
</svg>
