<svg width="512" height="512" xmlns="http://www.w3.org/2000/svg">
<circle style="fill:#fff;stroke-width:3.24137;stroke-dasharray:3.24137,3.24137;stop-color:#000" cx="256" cy="256" r="256"/>
<path style="color:#000;font-style:normal;font-variant:normal;font-weight:100;font-stretch:normal;font-size:medium;line-height:150%;font-family:'Fira Sans';-inkscape-font-specification:'Fira Sans Thin';text-indent:0;text-align:start;text-decoration:none;text-decoration-line:none;text-decoration-style:solid;text-decoration-color:#000;letter-spacing:0;word-spacing:0;text-transform:none;writing-mode:lr-tb;direction:ltr;baseline-shift:baseline;text-anchor:start;white-space:normal;clip-rule:nonzero;display:inline;overflow:visible;visibility:visible;isolation:auto;mix-blend-mode:normal;color-interpolation:sRGB;color-interpolation-filters:linearRGB;solid-color:#000;solid-opacity:1;fill:#000;fill-opacity:1;fill-rule:nonzero;stroke:none;stroke-width:14.5964;stroke-linecap:round;stroke-linejoin:round;stroke-miterlimit:4;stroke-dasharray:none;stroke-dashoffset:0;stroke-opacity:1;color-rendering:auto;image-rendering:auto;shape-rendering:auto;text-rendering:auto;enable-background:accumulate" d="M45.411 116.236c512.94 122.409 27.71 221.943 27.71 221.943-9.559 1.529-17.271 6.507-21.913 14.074-5.215 8.5-5.656 19.988-.786 28.063 5.926 9.827 13.433 13.225 19.91 14.688 10.188 2.304 18.412-1.366 18.412-1.366s112.586-33.493 185.488-77.86c3.123 7.323 7.037 13.917 11.872 19.717 14.875 17.841 36.644 27.308 60.988 27.308h104.886c8.067 0 14.606-6.538 14.61-14.606v-3.677c0-8.069-6.541-14.61-14.61-14.612h-104.57c-16.906 0-27.806-4.974-36.996-15.916-3.487-4.15-6.517-9.806-8.892-16.993 20.527-16.283 33.855-33.492 33.42-50.71-.311-12.254-8.84-27.322-27.792-43.098 1.038-1.675 2.124-3.205 3.264-4.562 9.19-10.942 20.09-15.922 36.995-15.922h104.57c8.069 0 14.612-6.542 14.612-14.611v-3.673c0-8.068-6.542-14.61-14.611-14.61H347.092c-24.383 0-46.191 9.705-61.022 27.822-1.923 2.31-3.681 4.76-5.323 7.311-44.633-26.188-119.628-52.144-235.335-68.71Z"/>
</svg>
