<svg width="512" height="512" fill="none" xmlns="http://www.w3.org/2000/svg">
<circle cx="256" cy="256" r="256" fill="#fff"/>
<path d="M256 0C114.615 0 0 114.615 0 256s114.615 256 256 256 256-114.615 256-256S397.385 0 256 0Zm0 21.333c107.492 0 198.105 72.276 225.893 170.88-23.934 49.368-57.991 93.816-99.466 129.734-19.925 17.254-41.678 32.636-65.707 43.466-24.029 10.831-50.459 16.976-76.773 15.467-19.77-1.134-39.3-6.641-56.614-16.24 45.884-24.863 87.284-58.012 121.174-97.707 22.244-26.054 41.706-55.664 49.2-89.093 3.746-16.714 4.381-34.219.88-50.987-3.502-16.767-11.255-32.746-22.987-45.226-11.462-12.193-26.508-20.83-42.64-25.28-16.132-4.45-33.298-4.795-49.76-1.787-32.923 6.017-62.318 25.151-85.893 48.907-41.556 41.872-67.246 100.955-62.534 159.76 2.356 29.402 12.21 58.293 29.094 82.48 3.768 5.398 7.912 10.541 12.346 15.413-24.596 8.608-50.064 14.736-75.893 18.187C34.144 343.473 21.333 301.237 21.333 256 21.333 126.397 126.397 21.333 256 21.333Zm1.493 47.414c16.496.022 33.105 5.016 46.267 14.96 11.859 8.958 20.645 21.704 25.627 35.706 4.981 14.003 6.259 29.209 4.56 43.974-3.399 29.529-18.296 56.61-36.294 80.266-31.867 41.887-74.224 75.412-121.333 98.88a379.381 379.381 0 0 1-14.64 6.88c-10.251-8.97-19.036-19.609-25.733-31.466-13.994-24.777-18.609-54.208-15.894-82.534 2.715-28.325 12.436-55.624 25.494-80.906 15.14-29.314 35.777-57.08 64.666-73.014 14.445-7.967 30.784-12.769 47.28-12.746Zm231.067 155.84A236.737 236.737 0 0 1 490.667 256c0 129.603-105.064 234.667-234.667 234.667-72.786 0-137.837-33.135-180.88-85.147 26.567-6.034 52.534-14.701 77.44-25.733 10.892 8.294 22.92 15.098 35.707 20 36.822 14.116 78.627 12.074 115.893-.827 37.266-12.901 70.312-36.056 99.12-62.987 34.318-32.081 63.253-69.894 85.28-111.386Z" fill="#000"/>
</svg>
