<svg width="512" height="512" viewBox="0 0 512 512" fill="none" xmlns="http://www.w3.org/2000/svg">
<defs>
<clipPath id="clip0_205_96">
<rect width="512" height="512" fill="white"/>
</clipPath>
</defs>
<g clip-path="url(#clip0_205_96)">
<circle cx="256" cy="256" r="256" fill="white"/>
<path d="M287.816 97.3981C321.829 146.401 464.952 335.953 367.453 375.459C321.903 396.807 114.401 362.923 117.378 368.462C102.492 393.381 90.6582 413.438 90.6582 413.438C90.6582 413.438 250.677 420.784 374.226 403.789C550.618 379.63 337.905 149.28 287.89 97.6184L287.816 97.3981Z" fill="#7F7FFF"/>
<path d="M287.816 97.3981C276.503 98.986 69 359.505 69 359.505C69 359.505 83.9598 363.835 117.973 368.849C128.988 360.112 283.946 93.8274 288.411 97.626C288.332 97.5189 288.203 97.4794 288.023 97.5045L287.816 97.3981Z" fill="#FF7F7F"/>
<path d="M287.813 97.3981C280.668 96.2129 117.375 368.621 117.375 368.621C117.375 368.621 265.485 384.576 326.515 383.512C498.442 380.549 327.825 151.035 288.111 97.0942C288.059 97.041 287.998 97.0122 287.926 97L287.813 97.3981Z" fill="#7F3FBF"/>
</g>
</svg>
