<svg width="512" height="512" fill="none" xmlns="http://www.w3.org/2000/svg">
<circle cx="253.5" cy="253.5" r="248.5" fill="#fff"/>
<path d="M256.135 5C114.761 5 .295 117.283.045 255.907H0v194.228h.045c.068 31.438 26.084 56.904 58.17 56.904H256.16C397.56 506.95 512 394.681 512 256.132 512 117.508 397.41 5.225 255.91 5.225l.225-.225Zm52.018 103.316c42.991 0 83.58 32.263 83.58 76.772 0 4.128.025 8.259-.664 12.94-1.191 11.841-12.232 20.35-24.253 18.681-12.022-1.689-20.18-12.878-17.957-24.584.204-1.336.277-3.433.277-7.04 0-25.24-21.07-34.987-40.99-34.987-19.914 0-37.863 16.414-37.888 34.987.344 21.475 0 42.785 0 64.227l36.963-.271c28.86-.586 29.185 42.009.333 41.809l-37.288.271c-.09 17.274.136 14.15.045 22.849 0 0 .313 21.127-.33 37.136-4.462 47.033-45.316 84.619-94.409 84.619-52.043 0-94.908-41.684-94.908-92.815 1.563-52.581 44.341-93.941 98.235-93.466l30.06-.222v41.735l-30.06.27h-.159c-29.61.859-54.994 20.573-55.47 51.656 0 28.315 23.344 51.006 52.319 51.006 28.935 0 52.093-20.635 52.093-50.956l-.045-158.066c.015-2.934.113-5.266.442-8.502 4.884-38.661 40.164-68.125 80.103-68.125l-.029.076Z" fill="#51A2DA"/>
</svg>
