<svg xmlns="http://www.w3.org/2000/svg" width="512" height="512" fill="none"><g filter="url(#a)"><path fill="#000" d="M44.94 24c-7.61.044-13.823 1.918-17.957 6.054-17.84 17.85 7.789 74.601 30.056 113.382-19.416 33.738-30.536 72.831-30.536 114.534C26.503 384.947 129.49 488 256.389 488s229.886-103.053 229.886-230.03c0-41.988-11.353-81.312-31.017-115.207 22.185-38.764 47.513-94.953 29.768-112.709-17.696-17.707-73.621 7.44-112.35 29.595-34.132-20.092-73.849-31.709-116.287-31.709-42.592 0-82.457 11.674-116.672 31.9C109.995 42.804 70.017 23.86 44.94 24Z"/></g><path fill="url(#b)" d="M27.97 30.97C1.53 57.41 70.777 169.532 82.638 181.394c11.862 11.855 42.915.039 69.352-26.404 26.441-26.44 38.262-57.49 26.401-69.352C166.53 73.778 54.411 4.53 27.971 30.97Z"/><path fill="url(#c)" d="M172.045 126C122.765 80.88 57.854 28.028 33 30.273c18.204-13.047 90.848 32.548 148 73.735-1.315 6.64-4.381 14.182-8.955 21.992Z"/><path fill="url(#d)" d="M29.748 33.749C4.293 59.203 70.958 167.145 82.38 178.563c11.418 11.418 41.312.04 66.766-25.418 25.455-25.457 36.832-55.348 25.418-66.766C163.144 74.96 55.202 8.291 29.748 33.75Z"/><path fill="url(#e)" d="M29.748 33.749C4.293 59.203 70.958 167.145 82.38 178.563c11.418 11.418 41.312.04 66.766-25.418 25.455-25.457 36.832-55.348 25.418-66.766C163.144 74.96 55.202 8.291 29.748 33.75Z"/><path fill="url(#f)" d="M29.748 33.749C4.293 59.203 70.958 167.145 82.38 178.563c11.418 11.418 41.312.04 66.766-25.418 25.455-25.457 36.832-55.348 25.418-66.766C163.144 74.96 55.202 8.291 29.748 33.75Z"/><path fill="url(#g)" d="M257 489c127.026 0 230-102.975 230-230S384.026 29 257 29C129.975 29 27 131.975 27 259s102.975 230 230 230Z"/><path fill="url(#h)" d="M256.5 483C377.726 483 476 384.95 476 264S377.726 45 256.5 45C135.273 45 37 143.05 37 264s98.273 219 219.5 219Z"/><path fill="url(#i)" d="M48.164 267.474c0-120.016 97.291-217.307 217.308-217.307 108.181 0 197.887 79.053 214.528 182.545C467.567 119.826 371.89 32 255.691 32 131.047 32 30 133.05 30 257.692 30 373.891 117.823 469.57 230.71 482 127.221 465.359 48.164 375.657 48.164 267.474Z"/><path fill="url(#j)" d="M464.833 250.526c0 120.02-97.291 217.307-217.307 217.307-108.18 0-197.882-79.05-214.526-182.542C45.436 398.177 141.109 486 257.308 486 381.954 486 483 384.953 483 260.308 483 144.109 395.177 48.433 282.291 36c103.486 16.644 182.542 106.35 182.542 214.526Z" opacity=".63"/><g filter="url(#k)"><path fill="url(#l)" d="M456 205.417c0 90.805-59.694-106.76-255.999-32.004C124.812 202.049 59 296.222 59 205.417S147.873 41 257.5 41 456 114.612 456 205.417Z"/></g><path fill="url(#m)" d="M194.639 121.439c-1.791 11.964 10.09 28.503 16.861 7.214 6.771-21.29 7.017-49.312 32.252-62.07 25.235-12.756 45.621-14.726 66.993-6.478 14.682 5.668 22.558 12.687 26.049 16.53-9.295-10.998-46.671-49.008-98.398-19.855-59.958 33.801-41.903-7.737-47.746 38.512-5.841 46.258 3.989 26.147 3.989 26.147Zm142.155-44.804c1.48 1.748 2.276 2.841 2.276 2.841s-.682-1.093-2.276-2.841Zm-2.426 29.956c-58.92-10.61-131.325 26.449-182.028 89.095 20.306-35.368.592-91.82-1.483-85.863-29.627 84.896-75.632 84.317-87.454 111.429-15.63 35.842-1.659 78.52 31.189 95.847-16.321 86.854 65.572 145.827 115.925 145.827 50.836 0 8.902-71.165 8.902-146.089 0-74.918-7.314-167.243 114.949-210.246Zm133.801 131.024c-14.632-66.017-33.655-90.961-33.655-90.961s32.19 63.083 23.414 120.299c-8.779 57.218-45.481 60.263-46.826 74.822-1.345 14.559 13.171 17.607 24.879 10.27-.003 0 46.816-48.416 32.188-114.43Zm-49.853-5.976c-99.498 42.542-114.731 53.669-146.32 86.559-38.046 39.608-35.666 109.944-15.633 138.903 20.033 28.971 65.026 29.229 100.483.582 51.37-41.492-24.857-124.815 61.47-226.044Z"/><path fill="url(#n)" d="M456 205.417c0 90.805-59.694-106.76-255.999-32.004C124.812 202.049 59 296.222 59 205.417S147.873 41 257.5 41 456 114.612 456 205.417Z"/><g filter="url(#o)" opacity=".44"><path fill="#000" fill-rule="evenodd" d="M461.871 270.937c-12.212 1.935-27.605-41.067-42.524-58.334-28.321-32.779-101.541-64.531-48.65-102.692 52.171-37.642 73.187 29.402 88.774 90.217 5.764 22.489 14.612 68.874 2.4 70.809Z" clip-rule="evenodd"/></g><path fill="url(#p)" d="M269.825 54.193c15.355-15.329 106.478 14.86 141.419 34.404 14.143 7.904 16.945 29.684 6.295 48.574-10.646 18.893-34.969 32.657-44.859 19.836-61.079-79.143-110.734-94.95-102.855-102.814Z" opacity=".15"/><path fill="url(#q)" d="M486.03 30.97c26.44 26.44-42.806 138.562-54.67 150.424-11.858 11.855-42.911.04-69.351-26.404-26.44-26.443-38.261-57.49-26.4-69.352C347.47 73.778 459.59 4.53 486.03 30.97Z"/><path fill="url(#r)" d="M484.252 33.749c25.455 25.454-41.212 133.396-52.63 144.814-11.421 11.418-41.311.04-66.769-25.418-25.457-25.454-36.832-55.348-25.417-66.766 11.42-11.42 119.362-78.088 144.816-52.63Z"/><path fill="url(#s)" d="M484.252 33.749c25.455 25.454-41.212 133.396-52.63 144.814-11.421 11.418-41.311.04-66.769-25.418-25.457-25.454-36.832-55.348-25.417-66.766 11.42-11.42 119.362-78.088 144.816-52.63Z"/><path fill="url(#t)" d="M345.013 126C394.626 80.88 459.975 28.028 485 30.273c-18.33-13.047-91.464 32.548-149 73.735 1.321 6.64 4.408 14.182 9.013 21.992Z"/><path fill="url(#u)" d="M431.123 181.587c-11.829 11.826-42.806.04-69.181-26.338s-38.167-57.349-26.335-69.18c2.595-2.592 9.994-7.938 20.239-14.424-15.187-6.081-27.95-6.44-34.788.404-13.971 13.97 1.994 52.579 35.658 86.239 33.66 33.657 72.272 49.622 86.239 35.658 6.302-6.305 6.492-17.635 1.728-31.252-6.091 9.546-11.081 16.415-13.56 18.893Z"/><path fill="url(#v)" d="m331.689 127 8.311-1.051c-5.027-8.866-8.056-17.31-8.721-24.44L318 99c2.5 8.508 7.173 18.086 13.689 28Z"/><path fill="url(#w)" d="M433.734 128.801c-20.516 26.406-30.772 19.072-60.734 31.929 23.372 20.02 48.343 28.049 58.553 17.828 2.706-2.712 8.528-10.87 15.49-22.067 4.626-9.544 9.518-19.408 14.537-29.158 24.907-48.409-11.827-19.146-27.846 1.468Z" opacity=".53"/><path fill="url(#x)" d="M433.758 67.653c-26.001 15.88-49.885 24.207-53.338 18.598-3.459-5.61 14.821-23.026 40.823-38.906 26.001-15.877 49.885-24.203 53.338-18.597 3.455 5.61-14.822 23.028-40.823 38.905Z"/><path fill="url(#y)" d="M87.642 42.514c20.104 13.553 33.421 29.01 29.749 34.525-3.669 5.516-22.938-1.002-43.035-14.556C54.255 48.929 40.934 33.476 44.61 27.96c3.663-5.515 22.934 1.006 43.032 14.554Z"/><path fill="url(#z)" d="M168.371 187.029c-30.332 34.704-72.095 48.047-93.29 29.802-21.19-18.242-13.78-61.161 16.551-95.859 30.329-34.704 72.093-48.047 93.287-29.805 21.191 18.242 13.778 61.162-16.548 95.862Z"/><path fill="url(#A)" d="M134.375 220.771c-14.476 27.939-40.034 43.521-57.087 34.815-17.049-8.715-19.138-38.423-4.662-66.362 14.474-27.933 40.032-43.518 57.084-34.809 17.052 8.709 19.139 38.424 4.665 66.356Z"/><path fill="url(#B)" d="M480 260.008c0-18.9-2.368-37.237-6.808-54.754.141 2.848.212 5.711.212 8.589 0 93.473-75.775 169.248-169.244 169.248-93.473 0-169.251-75.775-169.251-169.248 0-93.472 75.778-169.247 169.251-169.247 2.878 0 5.741.074 8.582.216C295.235 40.367 276.895 38 257.998 38 135.392 38 36 137.395 36 260.005 36 382.608 135.392 482 257.998 482 380.611 482.003 480 382.611 480 260.008Z"/><path fill="url(#C)" d="M262.738 457.963c-117.857 0-213.398-97.459-213.398-217.675C49.34 148.512 105.028 70.01 183.814 38 99.484 68.13 39 150.012 39 246.312 39 368.198 135.867 467 255.352 467 332.83 467 400.79 425.449 439 363.004c-38.432 57.328-103.035 94.959-176.262 94.959Z"/><path fill="url(#D)" d="M397.9 112.738c-23.646 14.663-49.031 16.425-56.695 3.939-7.664-12.486 5.291-34.492 28.938-49.152 23.649-14.663 93.495-43.989 101.159-31.506 7.661 12.486-49.758 62.062-73.402 76.719Z"/><path fill="url(#E)" d="M488.086 37c-4.611 26.619-19.985 52.857-44.827 71.977-28.851 22.209-63.876 29.746-94.259 23.262 4.28 6.039 9.404 12.114 15.287 17.963 25.572 25.407 55.602 36.766 67.076 25.37 10.722-10.657 69.944-105.5 56.723-138.572Z"/><defs><radialGradient id="b" cx="0" cy="0" r="1" gradientTransform="rotate(180 169.786 -18.226) scale(337.312)" gradientUnits="userSpaceOnUse"><stop offset=".364" stop-color="#FF2F00"/><stop offset=".498" stop-color="#fff"/><stop offset=".557" stop-color="#FFB700"/><stop offset=".619" stop-color="#F80"/><stop offset=".738" stop-color="#F30"/><stop offset=".791" stop-color="#F10"/><stop offset=".941" stop-color="#7C0000"/><stop offset="1" stop-color="#EB0000"/></radialGradient><radialGradient id="g" cx="0" cy="0" r="1" gradientTransform="translate(254.425 493.873) scale(471.744)" gradientUnits="userSpaceOnUse"><stop/><stop offset="1" stop-color="#fff"/></radialGradient><radialGradient id="h" cx="0" cy="0" r="1" gradientTransform="matrix(390.257 0 0 389.368 189.244 171.973)" gradientUnits="userSpaceOnUse"><stop stop-color="red"/><stop offset=".113" stop-color="#E20000"/><stop offset=".456" stop-color="#8D0000"/><stop offset=".612" stop-color="#6B0000"/><stop offset=".953" stop-color="red"/></radialGradient><radialGradient id="m" cx="0" cy="0" r="1" gradientTransform="matrix(-211.516 0 0 -212.068 263.998 262.505)" gradientUnits="userSpaceOnUse"><stop stop-color="red"/><stop offset=".477" stop-color="#FF7A00"/><stop offset=".837" stop-color="#FFD000"/><stop offset="1" stop-color="#FFF200"/></radialGradient><radialGradient id="p" cx="0" cy="0" r="1" gradientTransform="matrix(-264.5245 -464.23136 410.22553 -233.75134 263.383 -312.771)" gradientUnits="userSpaceOnUse"><stop offset=".364" stop-color="#FF2F00"/><stop offset=".498" stop-color="#fff"/><stop offset=".557" stop-color="#FFB700"/><stop offset=".619" stop-color="#F80"/><stop offset=".738" stop-color="#F30"/><stop offset=".791" stop-color="#F10"/><stop offset=".941" stop-color="#7C0000"/><stop offset="1" stop-color="#EB0000"/></radialGradient><radialGradient id="q" cx="0" cy="0" r="1" gradientTransform="matrix(337.308 0 0 337.314 174.429 -36.452)" gradientUnits="userSpaceOnUse"><stop offset=".364" stop-color="#FF2F00"/><stop offset=".498" stop-color="#fff"/><stop offset=".557" stop-color="#FFB700"/><stop offset=".619" stop-color="#F80"/><stop offset=".738" stop-color="#F30"/><stop offset=".791" stop-color="#F10"/><stop offset=".941" stop-color="#7C0000"/><stop offset="1" stop-color="#EB0000"/></radialGradient><radialGradient id="u" cx="0" cy="0" r="1" gradientTransform="matrix(164.138 0 0 164.137 320.808 81.06)" gradientUnits="userSpaceOnUse"><stop stop-color="#B00000"/><stop offset="1" stop-color="#EBBFBF"/></radialGradient><radialGradient id="v" cx="0" cy="0" r="1" gradientTransform="matrix(59.7131 0 0 58.6952 308.923 82.16)" gradientUnits="userSpaceOnUse"><stop stop-color="#B00000"/><stop offset="1" stop-color="#fff"/></radialGradient><radialGradient id="x" cx="0" cy="0" r="1" gradientTransform="rotate(58.358 162.265 411.538) scale(10.4164 48.1713)" gradientUnits="userSpaceOnUse"><stop offset=".258" stop-color="#fff"/><stop offset=".376" stop-color="#AFAFAF"/><stop offset="1"/></radialGradient><radialGradient id="y" cx="0" cy="0" r="1" gradientTransform="matrix(5.80263 -8.71748 31.90722 21.23846 81 52.5)" gradientUnits="userSpaceOnUse"><stop offset=".258" stop-color="#fff"/><stop offset=".376" stop-color="#AFAFAF"/><stop offset="1"/></radialGradient><radialGradient id="z" cx="0" cy="0" r="1" gradientTransform="rotate(40.723 -142.47 252.147) scale(44.214 72.8753)" gradientUnits="userSpaceOnUse"><stop offset=".258" stop-color="#fff"/><stop offset=".376" stop-color="#AFAFAF"/><stop offset="1"/></radialGradient><radialGradient id="A" cx="0" cy="0" r="1" gradientTransform="matrix(26.96133 13.77532 -22.63678 44.30516 103.498 205.004)" gradientUnits="userSpaceOnUse"><stop offset=".258" stop-color="#fff"/><stop offset=".376" stop-color="#AFAFAF"/><stop offset="1"/></radialGradient><radialGradient id="C" cx="0" cy="0" r="1" gradientTransform="matrix(0 -371.942 366.204 0 176.605 161.416)" gradientUnits="userSpaceOnUse"><stop stop-color="red"/><stop offset=".612" stop-color="#6B0000"/><stop offset="1" stop-color="red"/></radialGradient><radialGradient id="D" cx="0" cy="0" r="1" gradientTransform="matrix(55.09586 89.73592 -117.9793 72.43667 352.39 111.9)" gradientUnits="userSpaceOnUse"><stop stop-color="#fff"/><stop offset="1"/></radialGradient><linearGradient id="c" x1="181.003" x2="33.002" y1="77" y2="77" gradientUnits="userSpaceOnUse"><stop stop-color="#fff"/><stop offset=".502" stop-color="#787878"/><stop offset=".845" stop-color="#222"/><stop offset="1"/></linearGradient><linearGradient id="d" x1="32.542" x2="55.976" y1="130.866" y2="116.22" gradientUnits="userSpaceOnUse"><stop offset=".083" stop-color="#fff"/><stop offset=".543" stop-color="#787878"/><stop offset=".858" stop-color="#222"/><stop offset="1"/></linearGradient><linearGradient id="e" x1="32.542" x2="55.976" y1="130.866" y2="116.22" gradientUnits="userSpaceOnUse"><stop offset=".083" stop-color="#fff"/><stop offset=".543" stop-color="#787878"/><stop offset=".858" stop-color="#222"/><stop offset="1"/></linearGradient><linearGradient id="f" x1="141.965" x2="89.233" y1="35.232" y2="93.823" gradientUnits="userSpaceOnUse"><stop offset=".083" stop-color="#fff"/><stop offset=".543" stop-color="#787878"/><stop offset=".858" stop-color="#222"/><stop offset="1"/></linearGradient><linearGradient id="i" x1="29.999" x2="479.999" y1="257.002" y2="257.002" gradientUnits="userSpaceOnUse"><stop offset=".083" stop-color="#fff"/><stop offset=".543" stop-color="#787878"/><stop offset=".858" stop-color="#222"/><stop offset="1"/></linearGradient><linearGradient id="j" x1="482.999" x2="33" y1="261.001" y2="261.001" gradientUnits="userSpaceOnUse"><stop offset=".083" stop-color="#fff"/><stop offset=".543" stop-color="#787878"/><stop offset=".858" stop-color="#222"/><stop offset="1"/></linearGradient><linearGradient id="l" x1="257.5" x2="257.5" y1="37.628" y2="270.936" gradientUnits="userSpaceOnUse"><stop offset=".083" stop-color="#fff"/><stop offset=".543" stop-color="#787878"/><stop offset=".858" stop-color="#222"/><stop offset="1"/></linearGradient><linearGradient id="n" x1="257.5" x2="257.5" y1="37.628" y2="270.936" gradientUnits="userSpaceOnUse"><stop offset=".083" stop-color="#fff"/><stop offset=".543" stop-color="#787878"/><stop offset=".858" stop-color="#222"/><stop offset="1"/></linearGradient><linearGradient id="r" x1="356.187" x2="423.577" y1="45.432" y2="93.776" gradientUnits="userSpaceOnUse"><stop offset=".083" stop-color="#fff"/><stop offset=".543" stop-color="#787878"/><stop offset=".858" stop-color="#222"/><stop offset="1"/></linearGradient><linearGradient id="s" x1="356.187" x2="423.577" y1="45.432" y2="93.776" gradientUnits="userSpaceOnUse"><stop offset=".083" stop-color="#fff"/><stop offset=".543" stop-color="#787878"/><stop offset=".858" stop-color="#222"/><stop offset="1"/></linearGradient><linearGradient id="t" x1="335.998" x2="484.999" y1="77" y2="77" gradientUnits="userSpaceOnUse"><stop stop-color="#fff"/><stop offset=".502" stop-color="#787878"/><stop offset=".845" stop-color="#222"/><stop offset="1"/></linearGradient><linearGradient id="w" x1="596.032" x2="381.593" y1="-42.27" y2="191.768" gradientUnits="userSpaceOnUse"><stop offset=".163" stop-color="#FF5900"/><stop offset=".187" stop-color="#FF5000"/><stop offset=".292" stop-color="#FF2F00"/><stop offset="1" stop-color="#EB0000"/></linearGradient><linearGradient id="B" x1="441.696" x2="132.078" y1="60.032" y2="397.081" gradientUnits="userSpaceOnUse"><stop offset=".01" stop-color="#34B3D1"/><stop offset=".174" stop-color="#fff"/><stop offset=".332" stop-color="#FDBF6F"/><stop offset=".427" stop-color="#FFFF7F"/><stop offset=".5" stop-color="#673920"/><stop offset=".652" stop-color="#B55004"/><stop offset="1" stop-color="#4E0901"/></linearGradient><linearGradient id="E" x1="470.406" x2="451.355" y1="125.402" y2="112.128" gradientUnits="userSpaceOnUse"><stop offset=".083" stop-color="#fff"/><stop offset=".543" stop-color="#787878"/><stop offset=".858" stop-color="#222"/><stop offset="1"/></linearGradient><filter id="a" width="488.232" height="482.232" x="11.884" y="14.884" color-interpolation-filters="sRGB" filterUnits="userSpaceOnUse"><feFlood flood-opacity="0" result="BackgroundImageFix"/><feBlend in="SourceGraphic" in2="BackgroundImageFix" result="shape"/><feGaussianBlur result="effect1_foregroundBlur_108_19" stdDeviation="4.558"/></filter><filter id="k" width="414.561" height="220.561" x="50.219" y="32.219" color-interpolation-filters="sRGB" filterUnits="userSpaceOnUse"><feFlood flood-opacity="0" result="BackgroundImageFix"/><feBlend in="SourceGraphic" in2="BackgroundImageFix" result="shape"/><feGaussianBlur result="effect1_foregroundBlur_108_19" stdDeviation="4.39"/></filter><filter id="o" width="138.926" height="194.926" x="340.537" y="87.537" color-interpolation-filters="sRGB" filterUnits="userSpaceOnUse"><feFlood flood-opacity="0" result="BackgroundImageFix"/><feBlend in="SourceGraphic" in2="BackgroundImageFix" result="shape"/><feGaussianBlur result="effect1_foregroundBlur_108_19" stdDeviation="5.731"/></filter></defs><circle cx="434.5" cy="434.5" r="77.5" fill="#e91f63" style="stroke-width:.302734"/><path fill="#fff" d="M425.077 383.035h-35.382a1.514 1.514 0 0 0 0 3.027h32.77c.235-.346.477-.693.727-1.038l1.108-1.53z" style="stroke-width:.302734"/><path fill="#fff" fill-opacity=".7" d="M414.02 402.627a209.462 209.462 0 0 0-.82 2.205h-37.43a1.514 1.514 0 0 1 0-3.027h38.595l-.109.196z" style="stroke-width:.302734"/><path fill="#fff" fill-opacity=".3" d="M409.98 420.271h-40.265a1.514 1.514 0 0 0 0 3.028h39.85l.026-.131.01-.045c.187-.955.31-1.593.387-2.094a31.968 31.968 0 0 1-.007-.758z" style="stroke-width:.302734"/><path fill="#fff" d="M411.238 439.041H368.2a1.514 1.514 0 0 0 0 3.027h45.341a47.373 47.373 0 0 0-.91-1.146 15.756 15.756 0 0 1-1.394-1.881z" style="stroke-width:.302734"/><path fill="#fff" fill-opacity=".6" d="M422.95 457.508h-50.208a1.514 1.514 0 0 0 0 3.027h51.827a186.596 186.596 0 0 0-.904-1.726 1609.327 1609.327 0 0 1-.715-1.301z" style="stroke-width:.302734"/><path fill="#fff" d="M431.847 476.277h-46.995a1.514 1.514 0 0 0 0 3.028h48.221a229.097 229.097 0 0 0-1.226-3.028zm16.36-102.063c-.593 2.65-4.773-.583-5.566 2.416-4.681-3.297-.287 3.569-.907 4.002l-.038-.008-.371-.112c-.231-.138-.56-.362-1.029-.795-4.15 2.15-5.404 8.068-9.75 10.635-3.452 4.765-5.167 10.326-8.025 15.473-1.903 5.057-3.702 10.135-3.432 15.62-.448 4.333-2.816 9.88.477 13.61 4.823 5.852 8.423 12.776 12.089 19.435 5.731 10.793 10.419 22.138 14.341 33.648.902-2.5.33 5.446 1.953 6.309.166-3.997.605-10.315 1.172-15.18.545-12.904-3.392-25.428-3.271-38.289.031-.537.053-1.091.085-1.638l.306-1.557-.19-.037c.447-6.279 1.482-12.972 6.867-16.838 5.451-3.688 12.452-3.51 18.54-5.62 1.357-.48 2.749-.81 4.131-.967.012-.002.028.009.038.007 4.025-.424 8.067.41 11.88 1.827.057.022.127.055.183.076.347.13.723.267 1.065.406 2.831.825 8.41 3.097 9.848 1.309-3.308-4.176-9.096-5.064-13.709-7.362-.74-.291-1.657-.63-2.588-.904l-4.546-2-1.118-.537-.008.038-16.373-6.66a8.319 8.319 0 0 0-.702-.85l16.134 5.314.014-.076c.558.245 1.117.465 1.692.649l-.007.037 11.272 4.47c1.87 1.151 3.912 2.134 5.904 2.666 3.236 1.141 6.5 6.952 7.535 7.408.496-5.346-4.27-8.723-8.309-11.11-4.585-3.468-12.18-4.863-11.687-11.853-.12-.517-.237-1.033-.406-1.545l-1.452-3.014.083-.023c-2.072-3.718-5.41-6.776-9.273-8.459-3.728-2.174-7.956-4.435-12.117-5.823-2.269 3.95-2.379-3.955-6.277-2.38-3.098-.238-2.843.643-4.714-1.719h.256zm19.325 16.692c1.102.187 2.313.634 3.491 1.319 3.128 1.821 4.834 4.704 3.823 6.438-1.01 1.733-4.38 1.65-7.506-.178-3.127-1.828-4.844-4.655-3.83-6.4.632-1.088 2.188-1.49 4.022-1.18z" style="stroke-width:.302734"/><path fill="#e91f63" d="M466.893 398.626c3.134 2.005 5.676 2.01 6.962 0 1.286-2.01-.044-4.352-3.178-6.357-3.134-2.006-5.828-2.01-7.115 0-1.286 2.01.196 4.352 3.33 6.357z" style="stroke-width:.302734"/><path fill="#fff" fill-rule="evenodd" d="M471.284 399.026c1.137-.001 1.765-.39 2.036-.812.27-.423.36-1.156-.116-2.189-.467-1.015-1.411-2.12-2.772-2.99-1.36-.871-2.76-1.265-3.877-1.264-1.137.001-1.765.39-2.035.813-.27.422-.36 1.155.115 2.188.468 1.015 1.412 2.121 2.772 2.991 1.36.87 2.76 1.264 3.877 1.263zm3.31.003c-1.286 2.01-4.869 2.014-8.003.009-3.134-2.005-4.632-5.26-3.346-7.27 1.286-2.01 4.87-2.015 8.003-.01 3.135 2.005 5.03 6.005 3.346 7.27z" clip-rule="evenodd" style="stroke-width:.302734"/></svg>