<svg width="512" height="512" viewBox="0 0 512 512" fill="none" xmlns="http://www.w3.org/2000/svg">
<path fill-rule="evenodd" clip-rule="evenodd" d="M8.02734 345.602L15.0969 225.419L57.5145 134.928L116.899 78.371L194.665 51.5065L287.983 58.5761L354.438 103.822L409.58 171.69L444.928 280.561L481.69 270.664L502.899 276.32L463.309 322.979L459.068 354.085L484.518 402.159L451.998 385.192L412.408 341.36L384.13 373.88L385.544 393.675L396.855 434.679L392.613 458.715L338.885 404.986L317.676 426.195L248.394 447.404H162.145L102.76 433.265L85.7929 429.023L54.6867 454.474L51.8589 433.265L63.1702 403.572L8.02734 345.602V345.602Z" fill="#BFCFE7"/>
<path fill-rule="evenodd" clip-rule="evenodd" d="M123.975 296.822C123.975 306.233 120.44 315.272 114.123 322.007C107.807 328.742 99.2103 332.639 90.1703 332.866C81.1303 333.093 72.3633 329.632 65.742 323.222C59.1207 316.812 55.17 307.962 54.7337 298.561C54.2975 289.16 57.4103 279.955 63.4073 272.91C69.4043 265.866 77.81 261.542 86.8289 260.861C95.8479 260.18 104.765 263.197 111.676 269.267C118.586 275.337 122.943 283.979 123.814 293.347" fill="white"/>
<path fill-rule="evenodd" clip-rule="evenodd" d="M200.321 302.477C200.321 310.043 197.578 317.31 192.68 322.724C187.781 328.138 181.115 331.271 174.104 331.454C167.094 331.636 160.295 328.854 155.16 323.701C150.025 318.547 146.961 311.432 146.623 303.875C146.285 296.317 148.699 288.917 153.35 283.254C158.001 277.591 164.519 274.114 171.514 273.567C178.508 273.02 185.423 275.446 190.783 280.325C196.142 285.205 199.52 292.153 200.196 299.684" fill="white"/>
<path d="M199.099 46.2896C136.653 50.792 87.5187 82.5044 45.4312 144.95C21.549 180.578 14.5018 202.307 1.19039 280.805C0.0158576 287.852 -0.375646 303.708 0.407377 320.543C1.97342 351.277 0.603134 348.145 16.8509 358.716C20.5702 361.065 29.1835 370.461 36.0349 379.27C42.6906 388.275 50.5208 397.475 53.0657 399.433L57.9596 403.152L51.8911 416.268C42.4949 436.235 43.0821 463.837 52.8699 463.837C56.5893 463.837 70.8794 453.462 81.646 443.086L90.455 434.473L110.031 442.108C179.72 469.318 262.916 463.249 327.515 426.447L344.742 416.464L351.397 423.902C355.117 428.209 363.143 437.801 369.015 445.24C389.178 470.297 393.093 472.45 397.987 460.509C406.013 441.716 404.056 425.664 389.766 389.254L386.242 380.053L399.749 367.133C415.997 351.669 414.039 352.06 422.848 363.61C435.181 380.053 460.629 398.846 480.205 406.284C493.908 411.374 494.103 406.676 481.771 386.513C459.063 350.103 457.693 339.336 472.962 317.803C483.533 302.534 495.474 290.984 505.457 286.286C513.483 282.567 513.875 280.022 508.002 274.541C498.018 265.536 478.247 263.187 461.999 268.864C452.212 272.387 450.45 271.213 447.905 260.055C416.976 122.439 326.536 39.2424 213.781 45.3108C210.453 45.5065 203.993 45.8981 199.099 46.2896ZM274.465 63.1246C307.548 71.3463 332.409 86.028 356.879 111.868C400.532 158.458 425.393 214.248 437.726 293.138C437.921 293.529 440.858 291.376 444.381 288.439C455.148 279.435 476.877 273.758 490.384 276.89C495.669 277.869 495.474 278.26 478.051 296.27C447.709 327.591 445.947 350.103 471.396 385.926C473.941 389.254 474.528 391.407 472.962 391.407C463.37 391.407 421.086 345.6 422.065 336.204C423.24 324.458 407.579 332.68 398.183 348.928C395.442 353.43 390.94 359.303 388.004 362.044L382.718 366.938L377.237 360.282C372.148 354.409 371.365 354.018 367.645 356.562L363.73 359.303L367.645 365.959C379.978 385.926 392.702 422.728 392.898 437.41C392.898 453.657 388.2 453.462 376.65 436.627C367.645 423.119 342.197 395.518 335.933 392.386C322.621 385.339 315.183 390.037 325.362 399.041C335.345 407.655 335.345 407.655 310.484 421.358C265.069 446.219 157.991 452.287 118.644 432.516C96.915 421.358 62.462 395.126 53.8487 383.185L49.7378 377.117L54.436 378.291C56.9808 378.879 67.1601 381.619 77.1436 384.36C117.274 395.322 228.659 397.084 249.996 387.1C277.793 374.18 280.925 355.584 253.52 365.959C204.776 384.556 104.354 379.074 44.4524 354.801C29.9665 348.928 16.8509 343.447 15.2848 342.86C11.7612 341.489 13.523 279.435 17.8296 254.378C29.575 185.668 66.3771 119.894 109.639 90.3346C114.141 87.2025 121.189 82.5044 125.3 79.568C152.705 60.7755 230.029 52.358 274.465 63.1246V63.1246ZM75.5776 422.924C78.1224 426.251 79.8842 428.992 79.4927 429.384C70.8794 435.256 57.7638 442.499 56.785 441.52C55.0232 439.759 59.5256 426.252 63.4407 421.358C67.9431 415.681 69.9007 415.876 75.5776 422.924Z" fill="black"/>
<path d="M69.5155 257.51C46.2205 270.038 39.1733 312.126 57.5744 328.961C88.1123 357.345 130.787 336.791 131.374 293.529C131.766 266.515 93.5934 244.394 69.5155 257.51ZM104.164 267.689C125.893 281.196 129.221 297.836 114.539 318.39C91.0486 351.081 43.6757 320.739 58.3574 282.371C64.6216 265.732 88.308 258.097 104.164 267.689Z" fill="black"/>
<path d="M80.669 275.715C62.268 283.35 65.2043 315.062 84.3884 316.628C93.0016 317.411 96.5252 315.062 100.44 305.666C108.662 285.895 97.504 268.864 80.669 275.715ZM96.1337 284.329C97.3083 286.09 97.504 288.048 96.721 288.831C94.3719 291.376 80.669 286.873 80.0818 283.35C78.9072 277.086 92.0229 277.869 96.1337 284.329V284.329Z" fill="black"/>
<path d="M163.664 270.038C133.909 279.043 134.888 324.85 165.23 335.812C178.346 340.315 185.98 339.336 194.006 331.897C220.042 307.036 196.942 259.859 163.664 270.038V270.038ZM181.478 280.805C198.704 289.81 201.249 309.189 186.959 324.263C175.018 336.987 152.114 322.305 152.114 302.338C152.114 283.545 166.404 272.975 181.478 280.805Z" fill="black"/>
<path d="M162.889 290.788C154.471 303.708 161.519 323.48 173.264 319.76C184.814 316.041 189.316 310.364 189.316 299.402C189.316 287.069 169.545 280.609 162.889 290.788ZM179.528 292.55C182.66 296.27 180.507 299.206 175.613 298.031C170.915 296.857 168.957 294.312 170.719 291.571C172.481 288.831 176.788 289.222 179.528 292.55Z" fill="black"/>
</svg>
