<svg xmlns="http://www.w3.org/2000/svg" width="512" height="512" fill="none"><defs><linearGradient id="a" x1="412.82" x2="504.015" y1="212.156" y2="212.156" gradientUnits="userSpaceOnUse"><stop stop-color="#2972E2"/><stop offset="1" stop-color="#26C7FC"/></linearGradient><linearGradient id="b" x1="280.523" x2="343.114" y1="291.197" y2="275.082" gradientUnits="userSpaceOnUse"><stop stop-color="#26C4FB"/><stop offset="1" stop-color="#2977E3"/></linearGradient><linearGradient id="c" x1="295.044" x2="360.179" y1="275.064" y2="258.295" gradientUnits="userSpaceOnUse"><stop stop-color="#26C4FB"/><stop offset="1" stop-color="#2977E3"/></linearGradient><linearGradient id="d" x1="314.18" x2="412.82" y1="170.788" y2="170.788" gradientUnits="userSpaceOnUse"><stop stop-color="#2972E2"/><stop offset="1" stop-color="#26C7FC"/></linearGradient><linearGradient id="e" x1="409.808" x2="408.797" y1="199.093" y2="217.778" gradientUnits="userSpaceOnUse"><stop stop-color="#26C4FB"/><stop offset="1" stop-color="#2977E3"/></linearGradient><linearGradient id="f" x1="51.046" x2="246.723" y1="184.186" y2="148.348" gradientUnits="userSpaceOnUse"><stop stop-color="#26C4FB"/><stop offset="1" stop-color="#2977E3"/></linearGradient><linearGradient id="g" x1="130.527" x2="315.3" y1="142.894" y2="142.894" gradientUnits="userSpaceOnUse"><stop stop-color="#26C4FB"/><stop offset="1" stop-color="#2977E3"/></linearGradient><linearGradient id="h" x1="412.82" x2="460.687" y1="162.604" y2="162.604" gradientUnits="userSpaceOnUse"><stop stop-color="#279FF0"/><stop offset="1" stop-color="#8DE1FD"/></linearGradient><linearGradient id="i" x1="412.529" x2="503.723" y1="172.513" y2="172.513" gradientUnits="userSpaceOnUse"><stop stop-color="#279FF0"/><stop offset="1" stop-color="#8DE1FD"/></linearGradient><linearGradient id="j" x1="468.364" x2="504.015" y1="240.945" y2="240.945" gradientUnits="userSpaceOnUse"><stop stop-color="#279FF0"/><stop offset="1" stop-color="#8DE1FD"/></linearGradient><linearGradient id="k" x1="333.453" x2="423.11" y1="101.654" y2="101.654" gradientUnits="userSpaceOnUse"><stop stop-color="#26C4FB"/><stop offset="1" stop-color="#2977E3"/></linearGradient><linearGradient id="l" x1="241.977" x2="382.757" y1="85.675" y2="85.675" gradientUnits="userSpaceOnUse"><stop stop-color="#279FF0"/><stop offset="1" stop-color="#8DE1FD"/></linearGradient><linearGradient id="m" x1="130.527" x2="335.039" y1="110.14" y2="110.14" gradientUnits="userSpaceOnUse"><stop stop-color="#26C4FB"/><stop offset="1" stop-color="#2977E3"/></linearGradient><linearGradient id="n" x1="333.722" x2="423.111" y1="129.165" y2="123.787" gradientUnits="userSpaceOnUse"><stop stop-color="#2972E2"/><stop offset="1" stop-color="#26C7FC"/></linearGradient><linearGradient id="o" x1="355.754" x2="423.111" y1="162.604" y2="162.604" gradientUnits="userSpaceOnUse"><stop stop-color="#2972E2"/><stop offset="1" stop-color="#26C7FC"/></linearGradient><linearGradient id="p" x1="312.35" x2="412.82" y1="177.027" y2="177.027" gradientUnits="userSpaceOnUse"><stop stop-color="#2972E2"/><stop offset="1" stop-color="#26C7FC"/></linearGradient><linearGradient id="q" x1="296.687" x2="157.166" y1="178.67" y2="217.002" gradientUnits="userSpaceOnUse"><stop stop-color="#2972E2"/><stop offset="1" stop-color="#26C7FC"/></linearGradient><linearGradient id="r" x1="361.893" x2="356.846" y1="253.52" y2="190.459" gradientUnits="userSpaceOnUse"><stop stop-color="#26C4FB"/><stop offset="1" stop-color="#2977E3"/></linearGradient><linearGradient id="s" x1="82.373" x2="298.076" y1="225.349" y2="168.819" gradientUnits="userSpaceOnUse"><stop stop-color="#26C4FB"/><stop offset="1" stop-color="#2977E3"/></linearGradient><linearGradient id="t" x1="8.005" x2="234.865" y1="252.893" y2="252.893" gradientUnits="userSpaceOnUse"><stop stop-color="#26C4FB"/><stop offset="1" stop-color="#2977E3"/></linearGradient><linearGradient id="u" x1="20.528" x2="234.866" y1="266.847" y2="266.847" gradientUnits="userSpaceOnUse"><stop stop-color="#26C4FB"/><stop offset="1" stop-color="#2977E3"/></linearGradient><linearGradient id="v" x1="129.114" x2="175.186" y1="263.179" y2="320.834" gradientUnits="userSpaceOnUse"><stop stop-color="#279FF0"/><stop offset="1" stop-color="#8DE1FD"/></linearGradient><linearGradient id="w" x1="134.272" x2="234.866" y1="278.311" y2="313.445" gradientUnits="userSpaceOnUse"><stop stop-color="#26C4FB"/><stop offset="1" stop-color="#2977E3"/></linearGradient><linearGradient id="x" x1="234.865" x2="352.842" y1="287.984" y2="287.984" gradientUnits="userSpaceOnUse"><stop stop-color="#26C4FB"/><stop offset="1" stop-color="#2977E3"/></linearGradient><linearGradient id="y" x1="234.865" x2="336.777" y1="302.57" y2="302.57" gradientUnits="userSpaceOnUse"><stop stop-color="#2972E2"/><stop offset="1" stop-color="#26C7FC"/></linearGradient><linearGradient id="z" x1="149.064" x2="246.503" y1="300.535" y2="334.089" gradientUnits="userSpaceOnUse"><stop stop-color="#26C4FB"/><stop offset="1" stop-color="#2977E3"/></linearGradient><linearGradient id="A" x1="234.865" x2="321.238" y1="318.076" y2="318.076" gradientUnits="userSpaceOnUse"><stop stop-color="#2972E2"/><stop offset="1" stop-color="#26C7FC"/></linearGradient><linearGradient id="B" x1="193.904" x2="259.269" y1="330.09" y2="328.644" gradientUnits="userSpaceOnUse"><stop stop-color="#26C4FB"/><stop offset="1" stop-color="#2977E3"/></linearGradient><linearGradient id="C" x1="234.865" x2="294.804" y1="325.393" y2="325.393" gradientUnits="userSpaceOnUse"><stop stop-color="#26C4FB"/><stop offset="1" stop-color="#2977E3"/></linearGradient><linearGradient id="D" x1="229.811" x2="351.516" y1="213.012" y2="312.417" gradientUnits="userSpaceOnUse"><stop stop-color="#26C4FB"/><stop offset="1" stop-color="#2977E3"/></linearGradient></defs><circle cx="256" cy="256" r="256" fill="#fff"/><path fill="#297BE5" d="M234.103 439.961c-29.639-9.867-67.912-22.323-68.611-22.323-.529 0-1.142 1.106-2.127 3.828a48.066 48.066 0 0 0-1.379 4.174c0 .182-.255.687-.565 1.106-.638.881 1.567 1.987-31.814-15.938-24.797-13.306-25.447-13.628-26.231-12.978-.334.279-3.214 4.156-6.392 8.616l-5.784 8.099-.614-1.476c-.644-1.544-11.472-32.325-21.272-60.494-3.154-9.053-5.912-16.466-6.137-16.466-.59 0-8.02 5.165-20.871 14.492-6.265 4.544-11.454 8.202-11.533 8.129-.079-.073 3.512-8.366 7.984-18.434 14.285-32.149 15.324-34.646 14.45-34.646-.14 0-7.17 3.542-15.629 7.874-8.451 4.333-15.372 7.772-15.372 7.638 0-.128 2.515-7.96 5.59-17.39 3.062-9.436 5.578-17.426 5.578-17.748 0-.729.4-.851-11.812 3.561-5.39 1.944-9.953 3.487-10.129 3.42-.346-.121 4.782-5.778 25.902-28.557 11.758-12.687 13.04-14.236 17.822-21.509 12.31-18.745 22.42-34.525 22.42-34.992 0-.286-.425-.407-.996-.286-.553.122-5.31 1.154-10.56 2.309-5.256 1.154-9.844 2.041-10.19 1.969-.353-.073 11.386-7.626 26.078-16.789 55.013-34.299 66.126-41.068 69.097-42.082 1.125-.383 2.048-.802 2.048-.93 0-.122-4.678-.079-10.39.097-5.705.182-10.275.231-10.153.116.261-.244 51.27-39.884 72.566-56.386 17.147-13.295 32.155-24.724 35.132-26.753 1.762-1.197 2.51-1.422 4.691-1.422 1.428 0 16.065.911 32.519 2.011 75.799 5.092 102.783 7.012 103.646 7.37.516.22 9.916 11.527 20.883 25.137l19.948 24.742 18.41 8.488c10.129 4.673 18.447 8.525 18.484 8.561 0 0 1.482 2.564.383 1.216l1.257 1.44c2.431 2.782 41.5 55.085 41.688 55.814.17.644-4.915 44.477-5.438 46.901-.182.851-26.091 25.988-26.091 28.266-.078-.079.547-10.007 1.392-22.062.845-12.055 2.916-24.043 1.823-26.03l-2.273-4.107-1.944-.261c-2.127-.286-40.558-2.735-91.469-5.833-18.046-1.106-34.476-2.127-36.505-2.267l-3.682-.267v1.397c0 1.471 4.295 39.142 10.293 90.23l3.572 30.441-1.561 2.266a1508.405 1508.405 0 0 1-9.333 13.003l-7.765 10.755 1.136 2.035 1.136 2.036-9.904 12.334c-5.45 6.787-9.904 12.681-9.904 13.106 0 .426.948 3.002 2.102 5.742l2.109 4.977-1.483 1.166c-.814.638-7.34 5.013-14.497 9.722l-13.015 8.567.115 1.519c.061.833.729 3.998 1.483 7.048.753 3.038 1.294 5.596 1.203 5.687-.176.183-16.6-2.005-33.783-4.496a459.945 459.945 0 0 0-11.453-1.58c-.426 0-.499 1.349-.322 5.827.133 3.312.06 5.803-.164 5.779-.219-.025-6.423-2.054-13.793-4.509Z"/><path fill="url(#a)" d="m404.318 195.296 99.696 7-31.826 23.557-67.87-30.557Z"/><path fill="url(#b)" d="m298.291 214.272 54.605 125.465-90.685-127.805 36.08 2.34Z"/><path fill="url(#c)" d="m338.162 213.603 14.862 126.516-57.978-130.094 43.116 3.578Z"/><path fill="url(#d)" d="m314.174 155.941 98.645 42.533-57.067-55.359-41.578 12.826Z"/><path fill="url(#e)" d="m472.2 225.768-59.71-28.029-179.487 12.99L472.2 225.768Z"/><path fill="url(#f)" d="m50.8 213.798 98.786-61.217 256.604-16.77L50.8 213.798Z"/><path fill="url(#g)" d="M334.285 104.41s-191.961 46.16-203.761 48.876l9.831-1.428-9.721 1.422 225.41-9.867-12.031-21.127-9.728-17.876Z"/><path fill="url(#h)" d="m460.686 144.075-47.868 54.399 10.293-71.728 37.575 17.329Z"/><path fill="url(#i)" d="M504.203 202.326 460.2 143.68l-47.673 54.12 91.676 4.526Z"/><path fill="url(#j)" d="m468.36 279.608 3.828-53.755 31.827-23.557-5.9 48.365-29.755 28.947"/><path fill="url(#k)" d="m423.111 126.746-40.6-50.176-50.492 28.272 91.092 21.904Z"/><path fill="url(#l)" d="m241.978 67 92.125 37.362 48.651-27.743L241.978 67Z"/><path fill="url(#m)" d="M130.524 153.286 241.978 67l92.757 37.605-204.211 48.681Z"/><path fill="url(#n)" d="m423.111 126.746-67.712 17.098-21.357-39.373 89.069 22.275Z"/><path fill="url(#o)" d="m423.112 126.746-71.121 17.201 60.822 54.527 10.299-71.728Z"/><path fill="url(#p)" d="m319.539 192.811 93.28 5.663-98.773-43.061 5.493 37.398Z"/><path fill="url(#q)" d="M320.086 192.775 49.683 250.108l264.71-94.847 5.693 37.514Z"/><path fill="url(#r)" d="m235.16 210.748 85.351-18.065 94.1 5.347-179.451 12.718Z"/><path fill="url(#s)" d="M314.338 155.443 77.371 207.88l-27.688 42.228 264.655-94.665Z"/><path fill="url(#t)" d="m234.862 210.772-185.18 39.336L8 295.023l226.862-84.251Z"/><path fill="url(#u)" d="m20.523 322.936 214.34-112.164-201.786 74.942-12.554 37.222Z"/><path fill="url(#v)" d="m28.599 361.1 24.887-55.414 181.377-94.914L28.599 361.1Z"/><path fill="url(#w)" d="m90.72 416.137-28.272-81.225 172.415-124.14L90.72 416.137Z"/><path fill="url(#x)" d="m352.841 339.524-18.58 25.689-99.399-154.441 117.979 128.752Z"/><path fill="url(#y)" d="m316.178 394.385-81.316-183.619L336.776 369.12l-20.598 25.265Z"/><path fill="url(#z)" d="M161.604 428.636 103.76 397.55l131.103-186.778-73.259 217.864Z"/><path fill="url(#A)" d="m321.24 405.808-86.378-195.042 56.216 214.625 30.162-19.583Z"/><path fill="url(#B)" d="m234.863 210.772 14.4 234.494-84.026-27.434 69.626-207.06Z"/><path fill="url(#C)" d="m234.862 210.772 13.617 222.536 46.64 6.623-60.257-229.159Z"/><path fill="#000" d="M274.558 126.995c46.676-21.418 88.163 44.234 112.875 17.56-10.773 17.213-35.849 18.775-53.324 18.836 0 0-26.82-.638-23.308-23.15-5.796-9.57-24.152-9.381-36.237-13.246h-.006Z"/><path fill="#fff" d="M318.305 133.685a14.208 14.208 0 0 0-5.906 11.508 14.211 14.211 0 0 0 8.769 13.13 14.204 14.204 0 0 0 19.643-13.13 14.24 14.24 0 0 0-.425-3.39c-.824 2.679-2.302 4.99-4.237 6.623s-4.234 2.511-6.591 2.515a9.831 9.831 0 0 1-4.429-1.069c-1.405-.706-2.681-1.741-3.755-3.046-1.075-1.304-1.928-2.853-2.51-4.557a16.705 16.705 0 0 1-.881-5.376c.006-1.081.114-2.157.322-3.208Z"/><path fill="#000" d="M443.667 158.214s-16.15 4.041-14.133 13.124c0 0 6.562-.504 14.133-13.124Z"/><path fill="url(#D)" d="m264.247 212.692 88.71 127.105-118.216-128.995 29.506 1.89Z"/><circle cx="434.5" cy="434.5" r="77.5" fill="#e91f63" style="stroke-width:.302734"/><path fill="#fff" d="M425.077 383.035h-35.382a1.514 1.514 0 0 0 0 3.027h32.77c.235-.346.477-.693.727-1.038l1.108-1.53z" style="stroke-width:.302734"/><path fill="#fff" fill-opacity=".7" d="M414.02 402.627a209.462 209.462 0 0 0-.82 2.205h-37.43a1.514 1.514 0 0 1 0-3.027h38.595l-.109.196z" style="stroke-width:.302734"/><path fill="#fff" fill-opacity=".3" d="M409.98 420.271h-40.265a1.514 1.514 0 0 0 0 3.028h39.85l.026-.131.01-.045c.187-.955.31-1.593.387-2.094a31.968 31.968 0 0 1-.007-.758z" style="stroke-width:.302734"/><path fill="#fff" d="M411.238 439.041H368.2a1.514 1.514 0 0 0 0 3.027h45.341a47.373 47.373 0 0 0-.91-1.146 15.756 15.756 0 0 1-1.394-1.881z" style="stroke-width:.302734"/><path fill="#fff" fill-opacity=".6" d="M422.95 457.508h-50.208a1.514 1.514 0 0 0 0 3.027h51.827a186.596 186.596 0 0 0-.904-1.726 1609.327 1609.327 0 0 1-.715-1.301z" style="stroke-width:.302734"/><path fill="#fff" d="M431.847 476.277h-46.995a1.514 1.514 0 0 0 0 3.028h48.221a229.097 229.097 0 0 0-1.226-3.028zm16.36-102.063c-.593 2.65-4.773-.583-5.566 2.416-4.681-3.297-.287 3.569-.907 4.002l-.038-.008-.371-.112c-.231-.138-.56-.362-1.029-.795-4.15 2.15-5.404 8.068-9.75 10.635-3.452 4.765-5.167 10.326-8.025 15.473-1.903 5.057-3.702 10.135-3.432 15.62-.448 4.333-2.816 9.88.477 13.61 4.823 5.852 8.423 12.776 12.089 19.435 5.731 10.793 10.419 22.138 14.341 33.648.902-2.5.33 5.446 1.953 6.309.166-3.997.605-10.315 1.172-15.18.545-12.904-3.392-25.428-3.271-38.289.031-.537.053-1.091.085-1.638l.306-1.557-.19-.037c.447-6.279 1.482-12.972 6.867-16.838 5.451-3.688 12.452-3.51 18.54-5.62 1.357-.48 2.749-.81 4.131-.967.012-.002.028.009.038.007 4.025-.424 8.067.41 11.88 1.827.057.022.127.055.183.076.347.13.723.267 1.065.406 2.831.825 8.41 3.097 9.848 1.309-3.308-4.176-9.096-5.064-13.709-7.362-.74-.291-1.657-.63-2.588-.904l-4.546-2-1.118-.537-.008.038-16.373-6.66a8.319 8.319 0 0 0-.702-.85l16.134 5.314.014-.076c.558.245 1.117.465 1.692.649l-.007.037 11.272 4.47c1.87 1.151 3.912 2.134 5.904 2.666 3.236 1.141 6.5 6.952 7.535 7.408.496-5.346-4.27-8.723-8.309-11.11-4.585-3.468-12.18-4.863-11.687-11.853-.12-.517-.237-1.033-.406-1.545l-1.452-3.014.083-.023c-2.072-3.718-5.41-6.776-9.273-8.459-3.728-2.174-7.956-4.435-12.117-5.823-2.269 3.95-2.379-3.955-6.277-2.38-3.098-.238-2.843.643-4.714-1.719h.256zm19.325 16.692c1.102.187 2.313.634 3.491 1.319 3.128 1.821 4.834 4.704 3.823 6.438-1.01 1.733-4.38 1.65-7.506-.178-3.127-1.828-4.844-4.655-3.83-6.4.632-1.088 2.188-1.49 4.022-1.18z" style="stroke-width:.302734"/><path fill="#e91f63" d="M466.893 398.626c3.134 2.005 5.676 2.01 6.962 0 1.286-2.01-.044-4.352-3.178-6.357-3.134-2.006-5.828-2.01-7.115 0-1.286 2.01.196 4.352 3.33 6.357z" style="stroke-width:.302734"/><path fill="#fff" fill-rule="evenodd" d="M471.284 399.026c1.137-.001 1.765-.39 2.036-.812.27-.423.36-1.156-.116-2.189-.467-1.015-1.411-2.12-2.772-2.99-1.36-.871-2.76-1.265-3.877-1.264-1.137.001-1.765.39-2.035.813-.27.422-.36 1.155.115 2.188.468 1.015 1.412 2.121 2.772 2.991 1.36.87 2.76 1.264 3.877 1.263zm3.31.003c-1.286 2.01-4.869 2.014-8.003.009-3.134-2.005-4.632-5.26-3.346-7.27 1.286-2.01 4.87-2.015 8.003-.01 3.135 2.005 5.03 6.005 3.346 7.27z" clip-rule="evenodd" style="stroke-width:.302734"/></svg>