<svg width="512" height="512" viewBox="0 0 512 512" fill="none" xmlns="http://www.w3.org/2000/svg">
<defs>
<linearGradient id="paint0_linear_205_172" x1="-65.4956" y1="-1170.67" x2="256.111" y2="512.656" gradientUnits="userSpaceOnUse">
<stop stop-color="white"/>
<stop offset="0.3421" stop-color="white"/>
<stop offset="0.52" stop-color="#BEBDF3"/>
<stop offset="0.7541" stop-color="#8F82F9"/>
<stop offset="0.8711" stop-color="#9F99C7"/>
<stop offset="1" stop-color="#524C76"/>
</linearGradient>
<linearGradient id="paint1_linear_205_172" x1="329.451" y1="378.233" x2="232.389" y2="-56.9172" gradientUnits="userSpaceOnUse">
<stop stop-color="white"/>
<stop offset="0.3421" stop-color="white"/>
<stop offset="0.52" stop-color="#BEBDF3"/>
<stop offset="0.7541" stop-color="#8F82F9"/>
<stop offset="0.8711" stop-color="#9F99C7"/>
<stop offset="1" stop-color="#524C76"/>
</linearGradient>
<radialGradient id="paint2_radial_205_172" cx="0" cy="0" r="1" gradientUnits="userSpaceOnUse" gradientTransform="translate(215.649 113.859) scale(86.3776 66.222)">
<stop stop-color="white"/>
<stop offset="0.3421" stop-color="white"/>
<stop offset="0.52" stop-color="#BEBDF3"/>
<stop offset="0.7541" stop-color="#8F82F9"/>
<stop offset="0.8711" stop-color="#9F99C7"/>
<stop offset="1" stop-color="#524C76"/>
</radialGradient>
<radialGradient id="paint3_radial_205_172" cx="0" cy="0" r="1" gradientUnits="userSpaceOnUse" gradientTransform="translate(18.8425 135.102) rotate(90.903) scale(751.372 640.908)">
<stop stop-color="white"/>
<stop offset="0.3421" stop-color="white"/>
<stop offset="0.52" stop-color="#BEBDF3"/>
<stop offset="0.7541" stop-color="#8F82F9"/>
<stop offset="0.8711" stop-color="#9F99C7"/>
<stop offset="1" stop-color="#524C76"/>
</radialGradient>
<clipPath id="clip0_205_172">
<rect width="512" height="512" fill="white"/>
</clipPath>
</defs>
<g clip-path="url(#clip0_205_172)">
<path fill-rule="evenodd" clip-rule="evenodd" d="M11.0582 408.268C11.1143 386.669 29.4738 356.517 55.5632 329.119C72.9999 310.811 90.7081 294.739 129.308 261.831C102.61 247.183 61.0821 229.508 40.2319 206.355C32.5219 197.792 18.5511 178.382 21.2571 152.457C26.7809 99.6118 91.9995 19.4601 184.686 2.43457C215.529 -3.20689 250.946 0.865259 280.095 13.9659C371.556 55.0739 483.332 157.244 497.15 207.087C501.993 224.638 501.062 252.62 492.712 268.214C482.366 287.542 446.538 326.792 397.55 367.324C320.648 430.878 212.901 499.087 132.38 510.602C106.381 514.312 79.8143 510.442 61.1767 499.926C32.0112 483.468 22.3304 461.499 18.9253 454.911C9.87795 437.4 10.999 415.209 11.0187 408.251L11.0582 408.268ZM227.455 165.633C228.448 153.386 276.468 165.579 273.433 175.281C270.231 185.513 226.312 179.685 227.455 165.633Z" fill="url(#paint0_linear_205_172)"/>
<path fill-rule="evenodd" clip-rule="evenodd" d="M155.274 241.631C130.007 262.966 113.203 277.352 92.1392 296.606C41.408 342.97 6.92922 378.263 24.7115 426.477C45.2079 482.127 90.1488 479.306 142.821 468.959C278.614 442.171 501.92 270.492 490.57 207.161C481.358 155.862 356.586 53.8484 282.809 17.5766C259.738 6.23447 233.147 0.378344 206.474 1.62853C104.896 6.422 25.608 98.8468 29.6382 149.019C33.5795 197.759 156.795 240.233 155.315 241.713L155.274 241.631ZM140.033 71.4579C109.477 105.46 129.011 171.226 179.685 207.087C238.987 249.042 334.971 256.633 354.135 224.285C389.782 163.939 350.862 100.089 292.769 71.6307C235.359 43.5015 159.115 50.2377 140.033 71.4291V71.4579Z" fill="url(#paint1_linear_205_172)"/>
<path fill-rule="evenodd" clip-rule="evenodd" d="M244.267 205.688C287.168 211.651 324.148 194.47 329.888 152.111C334.293 119.845 284.906 84.5849 255.215 76.4504C230.417 69.66 176.585 78.3915 172.966 125.29C169.193 174.039 219.222 202.217 244.234 205.688H244.267ZM223.261 124.607C195.066 168.281 264.196 181.713 274.782 173.751C320.413 139.412 235.68 105.369 223.261 124.607Z" fill="url(#paint2_radial_205_172)"/>
<path fill-rule="evenodd" clip-rule="evenodd" d="M198.29 13.201C148.422 18.4567 138.865 24.8721 93.6693 59.0548C78.5272 70.5121 50.6613 98.3863 43.5138 131.459C40.7939 144.051 44.0089 154.924 53.0794 162.549C82.1215 186.968 130.739 206.774 170.613 225.93C182.293 231.539 174.56 241.713 155.726 258.015C108.194 299.164 43.9498 349.229 39.4261 387.393C37.3123 405.381 43.4694 429.817 65.3016 442.327C90.807 456.934 143.742 447.402 179.134 434.238C230.795 415 298.642 372.551 352.515 330.851C408.535 287.456 460.59 232.316 463.222 223.351C466.386 212.313 466.071 202.115 459.965 190.394C450.375 171.987 437.561 158.309 423.792 142.994C386.862 104.057 347.786 69.85 300.994 43.6372C267.231 24.7035 237.531 9.06795 198.265 13.2051L198.29 13.201ZM271.549 100.467C307.582 117.887 344.578 163.643 271.228 189.954C251.283 197.115 187.992 172.369 189.966 138.598C192.79 88.7055 227.562 79.1811 271.549 100.451L271.549 100.467Z" fill="url(#paint3_radial_205_172)"/>
</g>
</svg>
