<svg width="512" height="512" fill="none" xmlns="http://www.w3.org/2000/svg">
<circle cx="256" cy="256" r="256" fill="#fff"/>
<path d="M269.443 151.449s-34.003-2.264-91.901 15.855c-59.004 18.462-92.467 44.631-92.467 44.631s87.943-49.102 187.206-51.892l-2.838-8.594Zm126.819 53.388 4.422-.291s-25.326-30.726-73.801-45.693c27.25 11.077 50.966 25.753 69.375 45.981l.004.003Zm7.234 12.767c.68-1.179 2.872 3.742 4.535 5.809.076.416.189.665-.775.465-.083-.423-.223-.544-.223-.544s-2.332-1.391-3.046-2.374c-.718-.982-.843-2.706-.491-3.356Zm59.488 146.264s5.375-61.725-91.598-75.955a315.264 315.264 0 0 0-43.558-3.231c-77.721 1.028-80.555-89.641-21.989-94.222 24.272-2.003 53.252 11.093 81.59 24.287-.105 3.519.038 6.648 2.351 9.536 2.313 2.891 11.187 6.043 14.026 7.672 2.834 1.625 11.924 7.404 17.495 14.653 1.209-2.26 11.293-8.825 11.293-8.825s-2.419.053-8.035-2.049c-5.624-2.101-12.295-8.458-12.454-8.825-.155-.366-.26-.945 1.055-1.209.994-.839-1.262-3.572-2.26-4.566-.998-1.001-7.673-12.343-7.827-12.608-.159-.264-.212-.525-.681-.839-1.474-.476-7.937.68-7.937.68s-9.939-4.879-13.364-15.401c.053 1.841-1.7 3.855 0 8.088-5.177-2.192-9.63-5.93-13.141-15.167-2.09 5.254 0 8.595 0 8.595s-12.2-3.409-14.154-14.664c-2.139 5.053 0 8.091 0 8.091s-19.887-10.378-52.938-10.529c-22.129-2.03-26.736-40.954-24.688-47.508 0 0-31.913-16.818-94.742-24.252-62.826-7.43-114.351-1.119-114.351-1.119s111.274-5.34 200.416 30.749c3.031 13.553 12.147 36.128 17.056 46.979-14.051 9.713-29.895 18.848-32.359 51.245-2.468 32.39 25.386 60.887 59.923 61.767 32.794 1.747 55.456 1.996 82.921 16.233 26.214 14.494 47.711 58.664 49.839 98.39 2.298-29.476-8.764-92.857-60.376-112.098 72.138 12.623 78.483 66.102 78.483 66.102h.004ZM267.739 146.604l-2.597-8.372s-42.828-7.604-100.416-3.514C107.139 138.814 49 158.97 49 158.97s118.965-29.933 218.735-12.366" fill="#000"/>
</svg>
