<svg width="512" height="512" fill="none" xmlns="http://www.w3.org/2000/svg">
<defs>
<linearGradient id="b" x1="266.667" y1=".002" x2="266.667" y2="512.002" gradientUnits="userSpaceOnUse">
<stop stop-color="#1ABC9C"/>
<stop offset="1" stop-color="#2980B9"/>
</linearGradient>
<linearGradient id="c" x1="256.002" y1="255.997" x2="488.932" y2="488.927" gradientUnits="userSpaceOnUse">
<stop/>
<stop offset="1" stop-opacity="0"/>
</linearGradient>
<linearGradient id="d" x1="255.986" y1="256.226" x2="488.914" y2="489.155" gradientUnits="userSpaceOnUse">
<stop/>
<stop offset="1" stop-opacity="0"/>
</linearGradient>
<linearGradient id="e" x1="255.972" y1="256.354" x2="488.901" y2="489.283" gradientUnits="userSpaceOnUse">
<stop/>
<stop offset="1" stop-opacity="0"/>
</linearGradient>
<clipPath id="a">
<path fill="#fff" d="M0 0h512v512H0z"/>
</clipPath>
</defs>
<g clip-path="url(#a)">
<path d="M256 512c141.385 0 256-114.615 256-256S397.385 0 256 0 0 114.615 0 256s114.615 256 256 256Z" fill="url(#b)"/>
<path opacity=".2" fill-rule="evenodd" clip-rule="evenodd" d="m293.269 218.73-74.539 74.538 177.078 177.067a256.008 256.008 0 0 0 74.443-74.624L293.269 218.73Z" fill="url(#c)"/>
<path opacity=".2" fill-rule="evenodd" clip-rule="evenodd" d="m360.811 151.188-4.704 4.704a141.657 141.657 0 0 1 41.536 100.107A141.651 141.651 0 0 1 256 397.652a141.653 141.653 0 0 1-100.107-41.546l-4.704 4.704 147.542 147.563A256.002 256.002 0 0 0 508.16 298.516L360.811 151.188Z" fill="url(#d)"/>
<path opacity=".2" fill-rule="evenodd" clip-rule="evenodd" d="M414.4 97.556v.043l-12.32 12.32a206.708 206.708 0 0 1 60.64 146.08A206.709 206.709 0 0 1 256 462.708a206.706 206.706 0 0 1-146.08-60.65L97.6 414.399l87.338 87.328A256.023 256.023 0 0 0 256 511.999a256 256 0 0 0 256-256 255.965 255.965 0 0 0-10.166-70.997L414.4 97.556Z" fill="url(#e)"/>
<path fill-rule="evenodd" clip-rule="evenodd" d="M256 31.997a18.447 18.447 0 0 0-17.986 14.428 210.822 210.822 0 0 0-117.547 48.792 18.45 18.45 0 0 0-9.408-2.609 18.447 18.447 0 0 0-18.447 18.448 18.446 18.446 0 0 0 2.596 9.395 210.82 210.82 0 0 0-48.885 117.587A18.445 18.445 0 0 0 32 255.998a18.446 18.446 0 0 0 14.415 17.986A210.823 210.823 0 0 0 95.221 391.53a18.449 18.449 0 0 0-2.61 9.409 18.446 18.446 0 0 0 18.448 18.446 18.443 18.443 0 0 0 9.368-2.582 210.822 210.822 0 0 0 117.613 48.884A18.455 18.455 0 0 0 256 479.998a18.45 18.45 0 0 0 17.986-14.43 210.824 210.824 0 0 0 117.692-48.699 18.445 18.445 0 0 0 9.263 2.516 18.447 18.447 0 0 0 18.447-18.446 18.438 18.438 0 0 0-2.596-9.382 210.826 210.826 0 0 0 49.07-117.639A18.449 18.449 0 0 0 480 255.998a18.454 18.454 0 0 0-14.441-17.988 210.821 210.821 0 0 0-48.687-117.678 18.452 18.452 0 0 0 2.516-9.276 18.444 18.444 0 0 0-18.447-18.448 18.45 18.45 0 0 0-9.395 2.596A210.822 210.822 0 0 0 273.92 46.148 18.448 18.448 0 0 0 256 31.997Zm0 7.906a10.541 10.541 0 1 1 0 21.082 10.541 10.541 0 0 1 0-21.082ZM238.647 56.65A18.445 18.445 0 0 0 256 68.905a18.445 18.445 0 0 0 17.261-11.991 200.29 200.29 0 0 1 111.131 46.038 18.444 18.444 0 0 0-1.898 8.104 18.45 18.45 0 0 0 18.447 18.447c2.824-.001 5.61-.65 8.143-1.898a200.294 200.294 0 0 1 46.092 111.105 18.442 18.442 0 0 0-12.07 17.288 18.448 18.448 0 0 0 11.99 17.26 200.274 200.274 0 0 1-46.051 111.144 18.45 18.45 0 0 0-8.104-1.91 18.447 18.447 0 0 0-18.447 18.447 18.437 18.437 0 0 0 1.898 8.116 200.283 200.283 0 0 1-111.091 46.118A18.451 18.451 0 0 0 256 443.103a18.457 18.457 0 0 0-10.492 3.289 18.454 18.454 0 0 0-6.756 8.675 200.291 200.291 0 0 1-111.223-45.854 18.437 18.437 0 0 0 1.977-8.274 18.452 18.452 0 0 0-5.403-13.045 18.446 18.446 0 0 0-13.044-5.402c-2.82.002-5.601.651-8.13 1.896A200.284 200.284 0 0 1 56.666 273.35a18.446 18.446 0 0 0 12.228-17.352 18.445 18.445 0 0 0-11.964-17.249 200.286 200.286 0 0 1 45.854-111.223 18.441 18.441 0 0 0 8.275 1.977 18.45 18.45 0 0 0 18.447-18.447 18.438 18.438 0 0 0-1.898-8.13A200.284 200.284 0 0 1 238.647 56.65ZM256 95.258a18.444 18.444 0 0 0-18.025 14.546 147.576 147.576 0 0 0-129.551 146.194 147.576 147.576 0 0 0 129.577 146.258A18.446 18.446 0 0 0 256 416.75a18.445 18.445 0 0 0 18.025-14.56 147.578 147.578 0 0 0 129.551-146.192 147.57 147.57 0 0 0-129.577-146.259A18.444 18.444 0 0 0 256 95.244v.014Zm-144.941 5.27a10.54 10.54 0 1 1 .002 21.08 10.54 10.54 0 0 1-.002-21.08Zm289.882 0a10.54 10.54 0 1 1 .002 21.08 10.54 10.54 0 0 1-.002-21.08ZM256 103.163a10.541 10.541 0 1 1 0 21.083 10.541 10.541 0 0 1 0-21.083Zm-17.235 17.103A18.445 18.445 0 0 0 256 132.138a18.449 18.449 0 0 0 17.208-11.846 137.037 137.037 0 0 1 119.827 135.719 137.035 137.035 0 0 1-119.8 135.716 18.44 18.44 0 0 0-6.774-8.608A18.442 18.442 0 0 0 256 379.868a18.448 18.448 0 0 0-17.208 11.834 137.034 137.034 0 0 1-119.827-135.704 137.033 137.033 0 0 1 119.8-135.732ZM256 203.292a52.709 52.709 0 0 0-37.269 15.436 52.71 52.71 0 0 0 0 74.538A52.71 52.71 0 0 0 256 308.704a52.71 52.71 0 0 0 52.706-52.706 52.71 52.71 0 0 0-15.437-37.27A52.709 52.709 0 0 0 256 203.292ZM50.447 245.456a10.54 10.54 0 1 1 .002 21.08 10.54 10.54 0 0 1-.002-21.08Zm411.106 0a10.54 10.54 0 1 1 .002 21.08 10.54 10.54 0 0 1-.002-21.08ZM256 387.762a10.54 10.54 0 1 1 .002 21.08 10.54 10.54 0 0 1-.002-21.08Zm-144.941 2.635a10.54 10.54 0 1 1 0 21.082 10.54 10.54 0 0 1-7.454-17.995 10.54 10.54 0 0 1 7.454-3.087Zm289.882 0a10.54 10.54 0 1 1 0 21.082c-2.796 0-5.477-1.11-7.454-3.086a10.545 10.545 0 0 1 0-14.909 10.54 10.54 0 0 1 7.454-3.087ZM256 451.009a10.541 10.541 0 1 1 0 21.083 10.541 10.541 0 0 1 0-21.083Z" fill="#FCFCFC"/>
</g>
</svg>
