<svg xmlns="http://www.w3.org/2000/svg" width="512" height="512" fill="none"><defs><linearGradient id="b" x1="266.667" x2="266.667" y1=".002" y2="512.002" gradientUnits="userSpaceOnUse"><stop stop-color="#1ABC9C"/><stop offset="1" stop-color="#2980B9"/></linearGradient><linearGradient id="c" x1="256.002" x2="488.932" y1="255.997" y2="488.927" gradientUnits="userSpaceOnUse"><stop/><stop offset="1" stop-opacity="0"/></linearGradient><linearGradient id="d" x1="255.986" x2="488.914" y1="256.226" y2="489.155" gradientUnits="userSpaceOnUse"><stop/><stop offset="1" stop-opacity="0"/></linearGradient><linearGradient id="e" x1="255.972" x2="488.901" y1="256.354" y2="489.283" gradientUnits="userSpaceOnUse"><stop/><stop offset="1" stop-opacity="0"/></linearGradient><clipPath id="a"><path fill="#fff" d="M0 0h512v512H0z"/></clipPath></defs><g clip-path="url(#a)"><path fill="url(#b)" d="M256 512c141.385 0 256-114.615 256-256S397.385 0 256 0 0 114.615 0 256s114.615 256 256 256Z"/><path fill="url(#c)" fill-rule="evenodd" d="m293.269 218.73-74.539 74.538 177.078 177.067a256.008 256.008 0 0 0 74.443-74.624L293.269 218.73Z" clip-rule="evenodd" opacity=".2"/><path fill="url(#d)" fill-rule="evenodd" d="m360.811 151.188-4.704 4.704a141.657 141.657 0 0 1 41.536 100.107A141.651 141.651 0 0 1 256 397.652a141.653 141.653 0 0 1-100.107-41.546l-4.704 4.704 147.542 147.563A256.002 256.002 0 0 0 508.16 298.516L360.811 151.188Z" clip-rule="evenodd" opacity=".2"/><path fill="url(#e)" fill-rule="evenodd" d="M414.4 97.556v.043l-12.32 12.32a206.708 206.708 0 0 1 60.64 146.08A206.709 206.709 0 0 1 256 462.708a206.706 206.706 0 0 1-146.08-60.65L97.6 414.399l87.338 87.328A256.023 256.023 0 0 0 256 511.999a256 256 0 0 0 256-256 255.965 255.965 0 0 0-10.166-70.997L414.4 97.556Z" clip-rule="evenodd" opacity=".2"/><path fill="#FCFCFC" fill-rule="evenodd" d="M256 31.997a18.447 18.447 0 0 0-17.986 14.428 210.822 210.822 0 0 0-117.547 48.792 18.45 18.45 0 0 0-9.408-2.609 18.447 18.447 0 0 0-18.447 18.448 18.446 18.446 0 0 0 2.596 9.395 210.82 210.82 0 0 0-48.885 117.587A18.445 18.445 0 0 0 32 255.998a18.446 18.446 0 0 0 14.415 17.986A210.823 210.823 0 0 0 95.221 391.53a18.449 18.449 0 0 0-2.61 9.409 18.446 18.446 0 0 0 18.448 18.446 18.443 18.443 0 0 0 9.368-2.582 210.822 210.822 0 0 0 117.613 48.884A18.455 18.455 0 0 0 256 479.998a18.45 18.45 0 0 0 17.986-14.43 210.824 210.824 0 0 0 117.692-48.699 18.445 18.445 0 0 0 9.263 2.516 18.447 18.447 0 0 0 18.447-18.446 18.438 18.438 0 0 0-2.596-9.382 210.826 210.826 0 0 0 49.07-117.639A18.449 18.449 0 0 0 480 255.998a18.454 18.454 0 0 0-14.441-17.988 210.821 210.821 0 0 0-48.687-117.678 18.452 18.452 0 0 0 2.516-9.276 18.444 18.444 0 0 0-18.447-18.448 18.45 18.45 0 0 0-9.395 2.596A210.822 210.822 0 0 0 273.92 46.148 18.448 18.448 0 0 0 256 31.997Zm0 7.906a10.541 10.541 0 1 1 0 21.082 10.541 10.541 0 0 1 0-21.082ZM238.647 56.65A18.445 18.445 0 0 0 256 68.905a18.445 18.445 0 0 0 17.261-11.991 200.29 200.29 0 0 1 111.131 46.038 18.444 18.444 0 0 0-1.898 8.104 18.45 18.45 0 0 0 18.447 18.447c2.824-.001 5.61-.65 8.143-1.898a200.294 200.294 0 0 1 46.092 111.105 18.442 18.442 0 0 0-12.07 17.288 18.448 18.448 0 0 0 11.99 17.26 200.274 200.274 0 0 1-46.051 111.144 18.45 18.45 0 0 0-8.104-1.91 18.447 18.447 0 0 0-18.447 18.447 18.437 18.437 0 0 0 1.898 8.116 200.283 200.283 0 0 1-111.091 46.118A18.451 18.451 0 0 0 256 443.103a18.457 18.457 0 0 0-10.492 3.289 18.454 18.454 0 0 0-6.756 8.675 200.291 200.291 0 0 1-111.223-45.854 18.437 18.437 0 0 0 1.977-8.274 18.452 18.452 0 0 0-5.403-13.045 18.446 18.446 0 0 0-13.044-5.402c-2.82.002-5.601.651-8.13 1.896A200.284 200.284 0 0 1 56.666 273.35a18.446 18.446 0 0 0 12.228-17.352 18.445 18.445 0 0 0-11.964-17.249 200.286 200.286 0 0 1 45.854-111.223 18.441 18.441 0 0 0 8.275 1.977 18.45 18.45 0 0 0 18.447-18.447 18.438 18.438 0 0 0-1.898-8.13A200.284 200.284 0 0 1 238.647 56.65ZM256 95.258a18.444 18.444 0 0 0-18.025 14.546 147.576 147.576 0 0 0-129.551 146.194 147.576 147.576 0 0 0 129.577 146.258A18.446 18.446 0 0 0 256 416.75a18.445 18.445 0 0 0 18.025-14.56 147.578 147.578 0 0 0 129.551-146.192 147.57 147.57 0 0 0-129.577-146.259A18.444 18.444 0 0 0 256 95.244v.014Zm-144.941 5.27a10.54 10.54 0 1 1 .002 21.08 10.54 10.54 0 0 1-.002-21.08Zm289.882 0a10.54 10.54 0 1 1 .002 21.08 10.54 10.54 0 0 1-.002-21.08ZM256 103.163a10.541 10.541 0 1 1 0 21.083 10.541 10.541 0 0 1 0-21.083Zm-17.235 17.103A18.445 18.445 0 0 0 256 132.138a18.449 18.449 0 0 0 17.208-11.846 137.037 137.037 0 0 1 119.827 135.719 137.035 137.035 0 0 1-119.8 135.716 18.44 18.44 0 0 0-6.774-8.608A18.442 18.442 0 0 0 256 379.868a18.448 18.448 0 0 0-17.208 11.834 137.034 137.034 0 0 1-119.827-135.704 137.033 137.033 0 0 1 119.8-135.732ZM256 203.292a52.709 52.709 0 0 0-37.269 15.436 52.71 52.71 0 0 0 0 74.538A52.71 52.71 0 0 0 256 308.704a52.71 52.71 0 0 0 52.706-52.706 52.71 52.71 0 0 0-15.437-37.27A52.709 52.709 0 0 0 256 203.292ZM50.447 245.456a10.54 10.54 0 1 1 .002 21.08 10.54 10.54 0 0 1-.002-21.08Zm411.106 0a10.54 10.54 0 1 1 .002 21.08 10.54 10.54 0 0 1-.002-21.08ZM256 387.762a10.54 10.54 0 1 1 .002 21.08 10.54 10.54 0 0 1-.002-21.08Zm-144.941 2.635a10.54 10.54 0 1 1 0 21.082 10.54 10.54 0 0 1-7.454-17.995 10.54 10.54 0 0 1 7.454-3.087Zm289.882 0a10.54 10.54 0 1 1 0 21.082c-2.796 0-5.477-1.11-7.454-3.086a10.545 10.545 0 0 1 0-14.909 10.54 10.54 0 0 1 7.454-3.087ZM256 451.009a10.541 10.541 0 1 1 0 21.083 10.541 10.541 0 0 1 0-21.083Z" clip-rule="evenodd"/></g><circle cx="434.5" cy="434.5" r="77.5" fill="#e91f63" style="stroke-width:.302734"/><path fill="#fff" d="M425.077 383.035h-35.382a1.514 1.514 0 0 0 0 3.027h32.77c.235-.346.477-.693.727-1.038l1.108-1.53z" style="stroke-width:.302734"/><path fill="#fff" fill-opacity=".7" d="M414.02 402.627a209.462 209.462 0 0 0-.82 2.205h-37.43a1.514 1.514 0 0 1 0-3.027h38.595l-.109.196z" style="stroke-width:.302734"/><path fill="#fff" fill-opacity=".3" d="M409.98 420.271h-40.265a1.514 1.514 0 0 0 0 3.028h39.85l.026-.131.01-.045c.187-.955.31-1.593.387-2.094a31.968 31.968 0 0 1-.007-.758z" style="stroke-width:.302734"/><path fill="#fff" d="M411.238 439.041H368.2a1.514 1.514 0 0 0 0 3.027h45.341a47.373 47.373 0 0 0-.91-1.146 15.756 15.756 0 0 1-1.394-1.881z" style="stroke-width:.302734"/><path fill="#fff" fill-opacity=".6" d="M422.95 457.508h-50.208a1.514 1.514 0 0 0 0 3.027h51.827a186.596 186.596 0 0 0-.904-1.726 1609.327 1609.327 0 0 1-.715-1.301z" style="stroke-width:.302734"/><path fill="#fff" d="M431.847 476.277h-46.995a1.514 1.514 0 0 0 0 3.028h48.221a229.097 229.097 0 0 0-1.226-3.028zm16.36-102.063c-.593 2.65-4.773-.583-5.566 2.416-4.681-3.297-.287 3.569-.907 4.002l-.038-.008-.371-.112c-.231-.138-.56-.362-1.029-.795-4.15 2.15-5.404 8.068-9.75 10.635-3.452 4.765-5.167 10.326-8.025 15.473-1.903 5.057-3.702 10.135-3.432 15.62-.448 4.333-2.816 9.88.477 13.61 4.823 5.852 8.423 12.776 12.089 19.435 5.731 10.793 10.419 22.138 14.341 33.648.902-2.5.33 5.446 1.953 6.309.166-3.997.605-10.315 1.172-15.18.545-12.904-3.392-25.428-3.271-38.289.031-.537.053-1.091.085-1.638l.306-1.557-.19-.037c.447-6.279 1.482-12.972 6.867-16.838 5.451-3.688 12.452-3.51 18.54-5.62 1.357-.48 2.749-.81 4.131-.967.012-.002.028.009.038.007 4.025-.424 8.067.41 11.88 1.827.057.022.127.055.183.076.347.13.723.267 1.065.406 2.831.825 8.41 3.097 9.848 1.309-3.308-4.176-9.096-5.064-13.709-7.362-.74-.291-1.657-.63-2.588-.904l-4.546-2-1.118-.537-.008.038-16.373-6.66a8.319 8.319 0 0 0-.702-.85l16.134 5.314.014-.076c.558.245 1.117.465 1.692.649l-.007.037 11.272 4.47c1.87 1.151 3.912 2.134 5.904 2.666 3.236 1.141 6.5 6.952 7.535 7.408.496-5.346-4.27-8.723-8.309-11.11-4.585-3.468-12.18-4.863-11.687-11.853-.12-.517-.237-1.033-.406-1.545l-1.452-3.014.083-.023c-2.072-3.718-5.41-6.776-9.273-8.459-3.728-2.174-7.956-4.435-12.117-5.823-2.269 3.95-2.379-3.955-6.277-2.38-3.098-.238-2.843.643-4.714-1.719h.256zm19.325 16.692c1.102.187 2.313.634 3.491 1.319 3.128 1.821 4.834 4.704 3.823 6.438-1.01 1.733-4.38 1.65-7.506-.178-3.127-1.828-4.844-4.655-3.83-6.4.632-1.088 2.188-1.49 4.022-1.18z" style="stroke-width:.302734"/><path fill="#e91f63" d="M466.893 398.626c3.134 2.005 5.676 2.01 6.962 0 1.286-2.01-.044-4.352-3.178-6.357-3.134-2.006-5.828-2.01-7.115 0-1.286 2.01.196 4.352 3.33 6.357z" style="stroke-width:.302734"/><path fill="#fff" fill-rule="evenodd" d="M471.284 399.026c1.137-.001 1.765-.39 2.036-.812.27-.423.36-1.156-.116-2.189-.467-1.015-1.411-2.12-2.772-2.99-1.36-.871-2.76-1.265-3.877-1.264-1.137.001-1.765.39-2.035.813-.27.422-.36 1.155.115 2.188.468 1.015 1.412 2.121 2.772 2.991 1.36.87 2.76 1.264 3.877 1.263zm3.31.003c-1.286 2.01-4.869 2.014-8.003.009-3.134-2.005-4.632-5.26-3.346-7.27 1.286-2.01 4.87-2.015 8.003-.01 3.135 2.005 5.03 6.005 3.346 7.27z" clip-rule="evenodd" style="stroke-width:.302734"/></svg>