<svg xmlns="http://www.w3.org/2000/svg" width="512" height="512" fill="none"><defs><clipPath id="a"><path fill="#fff" d="M0 0h512v512H0z"/></clipPath></defs><g clip-path="url(#a)"><circle cx="256" cy="256" r="256" fill="#fff"/><path fill="#FBFBFB" fill-rule="evenodd" d="M236.32 52.658c-11.723 2.1-26.14 5.73-33.869 8.526l-1.869.676.216 2.59c.582 7.01 1.597 12.434 5.143 27.473 1.318 5.591 2.887 12.647 3.486 15.68 1.849 9.348 6.544 30.736 6.805 30.997.137.135 1.099-.034 2.14-.377 55.386-18.278 119.869 8.061 146.938 60.017 5.783 11.101 11.362 27.832 12.495 37.471.241 2.046-.147 1.989 5.288.781 2.347-.523 6.571-1.451 9.387-2.064 2.816-.612 8.145-1.776 11.84-2.587l11.84-2.594c2.816-.617 9.944-2.183 15.84-3.478 5.896-1.297 13.207-2.902 16.247-3.567l5.527-1.211.472-1.594c.939-3.155.557-7.384-1.182-13.157-2.436-8.076-2.838-9.72-3.436-14.031-1.465-10.574-4.947-15.089-11.548-14.971-1.32.023-14.296.119-28.837.211l-26.438.169-.415-1.004c-.83-2.002-3.51-6.071-7.592-11.526-10.196-13.626-11.566-20.201-5.91-28.372.334-.482 1.195-2.604 1.911-4.716.719-2.112 2.704-7.584 4.414-12.16 3.497-9.363 6.731-19.012 7.864-23.46l.759-2.98-.797-.623c-7.976-6.237-32.717-21.102-35.111-21.096-1.038.004-11.269 9.657-27.049 25.523l-15.599 15.687-2.335-.906c-3.101-1.205-7.69-2.11-14.566-2.875-8.282-.922-10.148-1.218-13.307-2.107-7.3-2.056-11.224-5.887-12.961-12.657-.332-1.29-1.819-4.866-3.308-7.946-1.487-3.08-3.535-7.471-4.55-9.76-5.388-12.142-12.033-24.602-13.169-24.684-.331-.024-2.477.291-4.764.702Zm-116.05 54.027c-3.218 1.15-5.742 3.366-13.824 12.131-1.911 2.072-4.575 4.605-5.92 5.629-8.888 6.767-10.812 14-5.35 20.109 1.511 1.691 1.833 2.19 8.898 13.846 2.72 4.488 7.993 13.172 11.716 19.297 3.724 6.126 6.77 11.205 6.77 11.287 0 .082-.379.748-.841 1.481-1.492 2.364-3.506 6.686-5.71 12.255-6.088 15.383-10.982 20.004-20.809 19.642-.9-.034-4.683.59-8.64 1.422A1203.96 1203.96 0 0 1 72 226.728c-7.424 1.445-16.736 3.701-20.16 4.883l-1.76.608-.39 4.93c-.752 9.499-.386 35.686.517 37.008.573.841 19.172 5.884 34.113 9.249 1.233.278 6.98 1.677 12.775 3.109l10.533 2.605.554 2.72c.749 3.674 2.077 7.283 4.971 13.501 7.898 16.975 8.149 22.458 1.37 29.949-6.239 6.891-26.433 39.056-25.438 40.512 3.476 5.08 27.652 28.998 29.314 28.998 1.528 0 9.974-8.276 17.761-17.405 3.137-3.678 7.021-8.071 8.631-9.76 1.609-1.691 6.441-6.964 10.737-11.715 4.297-4.751 9.796-10.828 12.221-13.5 2.426-2.674 4.41-5.05 4.407-5.28-.001-.231-1.912-2.364-4.246-4.74-46.137-46.984-47.77-118.519-3.848-168.64 3.942-4.499 10.004-10.401 13.639-13.28 1.334-1.056 2.433-2.019 2.442-2.139.016-.201-5.415-5.181-35.503-32.562a8449.845 8449.845 0 0 1-16.06-14.647c-5.745-5.263-5.856-5.322-8.31-4.447Zm255.601 179.959c-9.287 37.547-40.08 71.725-76.991 85.46-25.96 9.659-56.014 10.142-81.545 1.314-2.582-.893-4.938-1.7-5.236-1.793-.654-.205-.159-1.875-6.128 20.695-2.537 9.592-6.805 25.718-9.487 35.835l-4.877 18.395 1.631 1.499c2.786 2.562 5.646 3.666 13.962 5.385 6.61 1.365 8.223 1.808 11.36 3.113 10.867 4.519 17.962 2.571 20.494-5.627.351-1.137 1.563-3.734 2.693-5.773a12349.05 12349.05 0 0 0 11.949-21.717l9.893-18.008 4.126-.128c2.352-.074 7.014-.568 10.845-1.151 16.133-2.453 22.575-.678 27.356 7.538.615 1.056 2.919 3.941 5.12 6.413 2.202 2.473 6.806 7.729 10.231 11.68 6.317 7.291 15.362 16.626 16.107 16.626 1.922 0 23.932-12.297 32.546-18.185l3.68-2.515-.1-1.249c-.267-3.331-3.499-15.378-9.606-35.811-2.105-7.04-4.295-14.479-4.867-16.531l-1.042-3.73 2.957-2.815c2.875-2.735 5.604-6.166 10.665-13.404 8.311-11.887 14.738-15.313 23.752-12.659 1.368.403 3.173.662 4.64.665 1.321.004 5.136.219 8.481.479 16.321 1.265 32.873 1.79 33.597 1.065 1.321-1.322 8.073-25.212 10.07-35.63.371-1.935.744-3.841.828-4.234.171-.793-.149-.973-4.787-2.696-4.093-1.522-8.874-2.71-19.156-4.762-5.32-1.061-11.04-2.291-12.712-2.734-1.672-.441-8.8-2.089-15.84-3.66a7928.39 7928.39 0 0 1-17.76-3.982c-2.728-.62-5.176-1.127-5.44-1.126-.347.002-.738 1.049-1.409 3.758Z" clip-rule="evenodd"/><path fill="#047BC3" fill-rule="evenodd" d="M242.08.197c-24.337 1.603-40.122 4.375-61.12 10.734a70.257 70.257 0 0 0-3.803 1.274c-.859.328-1.739.595-1.957.595-.218 0-1.098.274-1.957.61-1.498.584-3.347 1.273-7.163 2.664-2.573.94-10.435 4.18-12.64 5.212-.527.247-2.112.97-3.52 1.61-4.274 1.935-14.304 7.028-17.839 9.055-1.165.669-2.142 1.227-4.64 2.654-.661.377-1.634.95-2.161 1.272-.527.323-1.464.882-2.08 1.244-2.6 1.526-8.241 5.188-10.833 7.033a166.346 166.346 0 0 1-2.752 1.926c-1.797 1.198-2.714 1.847-4.655 3.295-4.449 3.319-9.422 7.127-9.902 7.585-.278.264-1.655 1.416-3.062 2.559-7.34 5.966-20.174 18.251-26.731 25.587-1.488 1.664-2.921 3.247-3.185 3.52-.264.273-1.704 2.006-3.2 3.854-1.496 1.848-2.956 3.596-3.244 3.883-1.072 1.073-8.783 11.408-10.836 14.523-.264.401-1.163 1.686-2 2.856-.834 1.169-1.77 2.57-2.08 3.113-.738 1.301-.897 1.555-2.984 4.745-.978 1.496-1.874 2.936-1.99 3.2-.117.264-.572 1.056-1.01 1.76a49.124 49.124 0 0 0-1.393 2.4 89.64 89.64 0 0 1-1.29 2.321c-.38.659-1.003 1.739-1.38 2.4-1.776 3.101-6.289 12.267-8.31 16.879-4.205 9.592-4.334 9.916-7.643 19.2a187.31 187.31 0 0 1-1.302 3.526c-.34.884-.618 1.764-.618 1.958 0 .193-.27 1.054-.6 1.913-.858 2.235-2.119 6.385-3.827 12.603C4.71 203.084 2.4 215.853.737 232c-.723 7.013-.853 38.79-.18 43.681.219 1.585.532 4.537.699 6.56.676 8.231 3.305 23.537 5.77 33.599 1.655 6.752 4.037 15.27 5.059 18.08.254.704.648 1.928.874 2.72.225.792.591 1.944.814 2.56.221.616.68 1.912 1.017 2.88.975 2.792 1.849 5.158 2.514 6.801.338.835.904 2.24 1.256 3.119l1.248 3.121c2.994 7.476 9.539 20.98 13.417 27.68a440.01 440.01 0 0 1 2.65 4.64 46.95 46.95 0 0 0 1.6 2.575c.509.756.925 1.437.925 1.512 0 .074 1.116 1.831 2.48 3.904a344.784 344.784 0 0 1 2.8 4.298c.874 1.445 4.541 6.598 7.826 10.996C62.313 425.198 82.154 445.551 95.642 456a39.2 39.2 0 0 1 1.774 1.467c.408.366 2.164 1.72 3.902 3.009 1.74 1.289 3.954 2.94 4.922 3.67 1.811 1.364 5.042 3.586 6.111 4.202.333.192.869.588 1.191.881.324.292.735.531.913.531.179 0 .586.288.905.64.319.352.71.64.872.64.161 0 .966.466 1.79 1.034 1.655 1.145 6.48 4.086 6.7 4.086.077 0 .521.266.988.591.467.326 1.714 1.067 2.77 1.648s2.927 1.614 4.16 2.295c1.233.682 4.904 2.544 8.16 4.138 3.256 1.595 6.181 3.039 6.5 3.209.898.479 6.285 2.857 7.979 3.523.838.327 2.24.884 3.121 1.236l3.279 1.311c7.588 3.027 21.963 7.669 29.681 9.584 1.496.372 3.441.868 4.32 1.104a41.54 41.54 0 0 0 2.72.628c.616.11 2.344.469 3.84.795 9.06 1.983 21.85 3.983 28.86 4.515 2.126.162 5.466.473 7.423.693 5.8.653 31.127.546 39.237-.165 22.712-1.991 44.856-6.722 63.2-13.502a184.904 184.904 0 0 1 3.52-1.266c.704-.242 2.036-.74 2.961-1.108.923-.368 2.363-.94 3.2-1.272.836-.331 2.095-.848 2.799-1.151l2.24-.957c8.955-3.831 20.23-9.249 24.96-11.994a149.16 149.16 0 0 1 3.36-1.858c1.144-.613 2.308-1.313 2.586-1.557.277-.242.608-.44.734-.44.127 0 1.099-.576 2.158-1.28 1.06-.704 1.992-1.28 2.071-1.28.167 0 8.85-5.768 11.011-7.314.792-.566 1.944-1.367 2.56-1.779a54.462 54.462 0 0 0 2.4-1.738c.704-.543 1.568-1.2 1.92-1.46 10.948-8.083 26.78-22.612 36.125-33.149.858-.968 2.014-2.264 2.567-2.88 3.438-3.83 9.599-11.388 11.868-14.559.584-.816 2.417-3.275 3.936-5.281.718-.948 5.202-7.485 5.667-8.261.176-.297 1.149-1.797 2.159-3.336 1.011-1.538 1.838-2.861 1.838-2.937 0-.077.552-.978 1.225-2.004.673-1.024 1.329-2.078 1.455-2.342.127-.264.548-1.006.935-1.649.388-.642 1.273-2.154 1.968-3.36 4.594-7.968 11.029-21.168 14.289-29.31.334-.837.887-2.205 1.229-3.04.342-.837.996-2.53 1.455-3.761.46-1.231 1.023-2.744 1.255-3.36 1.648-4.407 4.637-13.83 6.29-19.84 9.69-35.226 11.069-77.21 3.774-114.88-1.024-5.286-1.901-9.259-2.553-11.57-.332-1.171-.602-2.402-.602-2.738 0-.334-.27-1.464-.6-2.51a181.562 181.562 0 0 1-1.323-4.462c-1.135-4.019-3.192-10.707-3.887-12.64l-1.24-3.444c-2.538-7.062-4.588-12.241-6.549-16.556-.24-.527-.987-2.181-1.659-3.674-1.355-3.01-7.744-15.795-9.291-18.595a242.856 242.856 0 0 0-4.927-8.451c-.324-.527-.915-1.519-1.316-2.203-.923-1.576-1.166-1.96-2.334-3.682a113.988 113.988 0 0 1-1.28-1.92 241.91 241.91 0 0 0-2.714-4.035c-.264-.384-.859-1.261-1.322-1.949-.729-1.081-4.863-6.719-5.616-7.657-.144-.181-.972-1.26-1.841-2.4-1.287-1.69-4.998-6.244-6.421-7.883l-3.52-4.044c-1.76-2.024-6.44-6.904-10.4-10.845-6.395-6.365-8.301-8.185-12.513-11.955-.899-.805-6.032-5.09-7.167-5.985a40.288 40.288 0 0 1-1.158-.993c-1.799-1.59-11.399-8.768-14.83-11.089-2.939-1.988-3.595-2.426-4.063-2.714A59.68 59.68 0 0 1 396.332 42c-.816-.57-1.534-1.039-1.595-1.039-.06 0-1.388-.828-2.951-1.84-3.462-2.244-3.425-2.22-6.986-4.234-1.585-.894-3.096-1.765-3.36-1.932a30.622 30.622 0 0 0-1.6-.895 231.013 231.013 0 0 1-3.04-1.653c-4.413-2.44-11.909-6.103-17.6-8.6-5.748-2.521-7.036-3.066-10.88-4.599-.879-.35-2.104-.858-2.72-1.126a18.053 18.053 0 0 0-2.08-.744c-.529-.14-2.184-.71-3.68-1.266s-3.151-1.123-3.68-1.26a27.4 27.4 0 0 1-2.24-.732c-1.262-.476-3.772-1.255-7.84-2.434-15.299-4.433-28.503-6.966-46.4-8.903-4.603-.498-32.23-.898-37.6-.545Zm1.345 54.683c1.951 3.236 8.022 15.438 10.828 21.76 1.015 2.289 3.063 6.68 4.55 9.76 1.489 3.08 2.976 6.656 3.308 7.946 1.737 6.77 5.661 10.601 12.961 12.657 3.159.889 5.025 1.185 13.307 2.107 6.876.765 11.465 1.67 14.566 2.875l2.335.906 15.599-15.687c15.78-15.866 26.011-25.519 27.049-25.523 2.394-.006 27.135 14.859 35.111 21.096l.797.623-.759 2.98c-1.133 4.448-4.367 14.097-7.864 23.46-1.71 4.576-3.696 10.048-4.414 12.16-.716 2.112-1.577 4.234-1.911 4.716-5.656 8.171-4.286 14.746 5.91 28.372 4.082 5.455 6.762 9.524 7.592 11.526l.415 1.004 26.438-.169c14.541-.092 27.517-.188 28.837-.211 6.601-.118 10.083 4.397 11.548 14.971.598 4.311 1 5.955 3.436 14.031 1.739 5.773 2.121 10.002 1.182 13.157l-.472 1.594-5.527 1.211c-3.04.665-10.351 2.27-16.247 3.567-5.896 1.295-13.024 2.861-15.84 3.478l-11.84 2.594c-3.695.811-9.024 1.975-11.84 2.587-2.816.613-7.04 1.541-9.388 2.064-5.434 1.208-5.047 1.265-5.287-.781-1.133-9.639-6.712-26.37-12.496-37.471-27.068-51.956-91.552-78.295-146.937-60.017-1.041.343-2.003.512-2.14.377-.261-.261-4.956-21.649-6.805-30.997-.599-3.033-2.168-10.089-3.486-15.68-3.546-15.038-4.561-20.463-5.144-27.474l-.215-2.59 1.869-.675c7.729-2.795 22.146-6.426 33.869-8.526 5.53-.992 5.084-1.13 7.105 2.222ZM128.58 111.132a8149.455 8149.455 0 0 0 16.06 14.647c30.088 27.381 35.519 32.361 35.503 32.562-.009.12-1.108 1.083-2.442 2.139-3.635 2.879-9.697 8.781-13.64 13.28-43.921 50.121-42.288 121.656 3.849 168.64 2.334 2.376 4.245 4.509 4.246 4.74.003.23-1.981 2.606-4.407 5.28-2.425 2.673-7.924 8.749-12.221 13.5-4.296 4.751-9.128 10.024-10.737 11.715-1.61 1.689-5.494 6.082-8.631 9.76-7.787 9.129-16.233 17.405-17.761 17.405-1.662 0-25.838-23.918-29.314-28.998-.995-1.456 19.199-33.621 25.438-40.512 6.779-7.491 6.528-12.974-1.37-29.949-2.894-6.218-4.222-9.827-4.971-13.501l-.554-2.72-10.534-2.605c-5.794-1.432-11.541-2.831-12.774-3.109-14.941-3.365-33.54-8.408-34.113-9.249-.903-1.322-1.269-27.509-.517-37.008l.39-4.93 1.76-.608c3.424-1.182 12.736-3.438 20.16-4.883a1203.96 1203.96 0 0 0 14.56-2.944c3.956-.832 7.74-1.456 8.64-1.422 9.827.362 14.721-4.259 20.809-19.642 2.204-5.569 4.218-9.891 5.71-12.255.462-.733.841-1.399.841-1.481 0-.082-3.046-5.161-6.77-11.287-3.723-6.124-8.996-14.809-11.716-19.297-7.065-11.656-7.387-12.155-8.898-13.846-5.462-6.109-3.538-13.342 5.35-20.109 1.345-1.024 4.009-3.557 5.92-5.629 8.082-8.765 10.606-10.981 13.824-12.131 2.454-.875 2.565-.816 8.31 4.447Zm254.14 172.88c2.728.618 10.72 2.411 17.76 3.982 7.04 1.571 14.168 3.219 15.84 3.66 1.672.443 7.392 1.673 12.712 2.734 10.282 2.052 15.063 3.24 19.156 4.762 4.638 1.723 4.958 1.903 4.787 2.696-.084.393-.457 2.299-.828 4.234-1.328 6.935-2.908 13.252-5.441 21.76-1.815 6.097-4.3 13.54-4.629 13.87-.724.725-17.276.2-33.597-1.065-3.345-.26-7.16-.475-8.481-.479-1.467-.003-3.272-.262-4.64-.665-9.014-2.654-15.441.772-23.752 12.659-5.061 7.238-7.79 10.669-10.665 13.404l-2.957 2.815 1.042 3.73c.572 2.052 2.762 9.491 4.867 16.531 6.107 20.433 9.339 32.48 9.606 35.811l.1 1.249-3.68 2.515c-8.614 5.888-30.624 18.185-32.547 18.185-.744 0-9.789-9.335-16.106-16.626a1478.474 1478.474 0 0 0-10.231-11.68c-2.201-2.472-4.505-5.357-5.12-6.413-4.781-8.216-11.223-9.991-27.356-7.538-3.831.583-8.493 1.077-10.845 1.151l-4.126.128-9.893 18.008a13938.701 13938.701 0 0 1-11.949 21.717c-1.13 2.039-2.342 4.636-2.693 5.773-2.532 8.198-9.627 10.146-20.494 5.627-3.137-1.305-4.75-1.748-11.36-3.113-8.316-1.719-11.176-2.823-13.962-5.385l-1.631-1.499 4.877-18.395c2.681-10.117 6.95-26.243 9.487-35.835 5.969-22.57 5.474-20.9 6.128-20.695.298.093 2.654.9 5.236 1.793 25.531 8.828 55.585 8.345 81.545-1.314 36.911-13.735 67.704-47.913 76.991-85.459.67-2.71 1.062-3.757 1.409-3.759.264-.001 2.712.506 5.44 1.126Z" clip-rule="evenodd"/></g><circle cx="434.5" cy="434.5" r="77.5" fill="#e91f63" style="stroke-width:.302734"/><path fill="#fff" d="M425.077 383.035h-35.382a1.514 1.514 0 0 0 0 3.027h32.77c.235-.346.477-.693.727-1.038l1.108-1.53z" style="stroke-width:.302734"/><path fill="#fff" fill-opacity=".7" d="M414.02 402.627a209.462 209.462 0 0 0-.82 2.205h-37.43a1.514 1.514 0 0 1 0-3.027h38.595l-.109.196z" style="stroke-width:.302734"/><path fill="#fff" fill-opacity=".3" d="M409.98 420.271h-40.265a1.514 1.514 0 0 0 0 3.028h39.85l.026-.131.01-.045c.187-.955.31-1.593.387-2.094a31.968 31.968 0 0 1-.007-.758z" style="stroke-width:.302734"/><path fill="#fff" d="M411.238 439.041H368.2a1.514 1.514 0 0 0 0 3.027h45.341a47.373 47.373 0 0 0-.91-1.146 15.756 15.756 0 0 1-1.394-1.881z" style="stroke-width:.302734"/><path fill="#fff" fill-opacity=".6" d="M422.95 457.508h-50.208a1.514 1.514 0 0 0 0 3.027h51.827a186.596 186.596 0 0 0-.904-1.726 1609.327 1609.327 0 0 1-.715-1.301z" style="stroke-width:.302734"/><path fill="#fff" d="M431.847 476.277h-46.995a1.514 1.514 0 0 0 0 3.028h48.221a229.097 229.097 0 0 0-1.226-3.028zm16.36-102.063c-.593 2.65-4.773-.583-5.566 2.416-4.681-3.297-.287 3.569-.907 4.002l-.038-.008-.371-.112c-.231-.138-.56-.362-1.029-.795-4.15 2.15-5.404 8.068-9.75 10.635-3.452 4.765-5.167 10.326-8.025 15.473-1.903 5.057-3.702 10.135-3.432 15.62-.448 4.333-2.816 9.88.477 13.61 4.823 5.852 8.423 12.776 12.089 19.435 5.731 10.793 10.419 22.138 14.341 33.648.902-2.5.33 5.446 1.953 6.309.166-3.997.605-10.315 1.172-15.18.545-12.904-3.392-25.428-3.271-38.289.031-.537.053-1.091.085-1.638l.306-1.557-.19-.037c.447-6.279 1.482-12.972 6.867-16.838 5.451-3.688 12.452-3.51 18.54-5.62 1.357-.48 2.749-.81 4.131-.967.012-.002.028.009.038.007 4.025-.424 8.067.41 11.88 1.827.057.022.127.055.183.076.347.13.723.267 1.065.406 2.831.825 8.41 3.097 9.848 1.309-3.308-4.176-9.096-5.064-13.709-7.362-.74-.291-1.657-.63-2.588-.904l-4.546-2-1.118-.537-.008.038-16.373-6.66a8.319 8.319 0 0 0-.702-.85l16.134 5.314.014-.076c.558.245 1.117.465 1.692.649l-.007.037 11.272 4.47c1.87 1.151 3.912 2.134 5.904 2.666 3.236 1.141 6.5 6.952 7.535 7.408.496-5.346-4.27-8.723-8.309-11.11-4.585-3.468-12.18-4.863-11.687-11.853-.12-.517-.237-1.033-.406-1.545l-1.452-3.014.083-.023c-2.072-3.718-5.41-6.776-9.273-8.459-3.728-2.174-7.956-4.435-12.117-5.823-2.269 3.95-2.379-3.955-6.277-2.38-3.098-.238-2.843.643-4.714-1.719h.256zm19.325 16.692c1.102.187 2.313.634 3.491 1.319 3.128 1.821 4.834 4.704 3.823 6.438-1.01 1.733-4.38 1.65-7.506-.178-3.127-1.828-4.844-4.655-3.83-6.4.632-1.088 2.188-1.49 4.022-1.18z" style="stroke-width:.302734"/><path fill="#e91f63" d="M466.893 398.626c3.134 2.005 5.676 2.01 6.962 0 1.286-2.01-.044-4.352-3.178-6.357-3.134-2.006-5.828-2.01-7.115 0-1.286 2.01.196 4.352 3.33 6.357z" style="stroke-width:.302734"/><path fill="#fff" fill-rule="evenodd" d="M471.284 399.026c1.137-.001 1.765-.39 2.036-.812.27-.423.36-1.156-.116-2.189-.467-1.015-1.411-2.12-2.772-2.99-1.36-.871-2.76-1.265-3.877-1.264-1.137.001-1.765.39-2.035.813-.27.422-.36 1.155.115 2.188.468 1.015 1.412 2.121 2.772 2.991 1.36.87 2.76 1.264 3.877 1.263zm3.31.003c-1.286 2.01-4.869 2.014-8.003.009-3.134-2.005-4.632-5.26-3.346-7.27 1.286-2.01 4.87-2.015 8.003-.01 3.135 2.005 5.03 6.005 3.346 7.27z" clip-rule="evenodd" style="stroke-width:.302734"/></svg>