<svg width="512" height="512" fill="none" xmlns="http://www.w3.org/2000/svg">
<circle cx="256" cy="256" r="256" fill="#fff"/>
<path d="M256 0C114.621 0 0 114.621 0 256c0 141.401 114.621 256 256 256 141.401 0 256-114.599 256-256C512 114.621 397.401 0 256 0Zm0 43.652c117.293 0 212.348 95.055 212.348 212.348 0 18.04-2.461 35.449-6.696 52.174l-101-112.261-129.13 146.913 62.304-124.652-31.13-55.652L79.13 373.478C56.736 339.827 43.652 299.446 43.652 256c0-117.293 95.055-212.348 212.348-212.348Z" fill="#DC682E"/>
</svg>
