<svg width="512" height="512" fill="none" xmlns="http://www.w3.org/2000/svg">
<circle cx="256" cy="256" r="256" fill="#fff"/>
<path fill-rule="evenodd" clip-rule="evenodd" d="M256 20.813C126.11 20.813 20.813 126.11 20.813 256c0 129.89 105.297 235.187 235.187 235.187 129.89 0 235.187-105.297 235.187-235.187C491.187 126.11 385.89 20.813 256 20.813ZM0 256C0 114.615 114.615 0 256 0s256 114.615 256 256-114.615 256-256 256S0 397.385 0 256Z" fill="#000"/>
<path d="M110.309 120.715v187.318c0 45.732 37.52 83.252 83.252 83.252h124.878c45.732 0 83.252-37.52 83.252-83.252V203.967c0-34.237-28.201-62.439-62.439-62.439-15.995 0-30.526 6.323-41.626 16.372-11.1-10.049-25.631-16.372-41.626-16.372-34.238 0-62.439 28.202-62.439 62.439v104.066h41.626V203.967c0-11.741 9.072-20.813 20.813-20.813s20.813 9.072 20.813 20.813v104.066h41.626V203.967c0-11.741 9.072-20.813 20.813-20.813s20.813 9.072 20.813 20.813v104.066c0 23.235-18.39 41.626-41.626 41.626H193.561c-23.236 0-41.626-18.391-41.626-41.626V120.715h-41.626Z" fill="#000"/>
</svg>
