<svg width="512" height="512" fill="none" xmlns="http://www.w3.org/2000/svg">
<defs>
<clipPath id="a">
<path fill="#fff" d="M0 0h512v512H0z"/>
</clipPath>
</defs>
<g clip-path="url(#a)">
<circle cx="256" cy="256" r="256" fill="#fff"/>
<path d="M512 256.008C512 114.629 397.382 0 255.995 0 114.613 0 0 114.629 0 256.008 0 397.389 114.613 512 255.995 512 397.382 512 512 397.389 512 256.008Z" fill="#0068C8"/>
<path d="M240.72 211.746c-9.1-9.863-15.099-22.543-16.949-35.83-1.85-13.287.457-27.122 6.517-39.092 6.061-11.97 15.849-22.023 27.657-28.405 11.809-6.383 25.586-9.066 38.929-7.583 21.46 2.385 41.363 15.949 51.418 35.042l120.912 16.665H331.397c-8.598-10.996-21.586-18.464-35.421-20.367-9.88-1.359-20.128.069-29.26 4.075-9.132 4.006-17.119 10.579-22.805 18.766a54.612 54.612 0 0 0-9.612 27.914c-.56 9.95 1.689 20.042 6.421 28.815Zm17 45.207L72.652 123.992c-8.866 17.497-12.375 37.66-9.94 57.12 2.434 19.46 10.802 38.139 23.706 52.917 16.923 19.381 41.647 31.758 67.315 33.7-12.117-3.912-23.217-10.927-31.947-20.19a76.279 76.279 0 0 1-18.254-33.074c-3.645-14.113-3.107-29.277 1.529-43.096l152.659 85.584Z" fill="#fff"/>
<path d="m247.447 292.869-162.61-45.722c-1.31 15.198 1.674 30.742 8.52 44.376 6.846 13.634 17.533 25.317 30.509 33.352 19.25 11.92 43.49 15.484 65.36 9.61-21.91.147-43.616-10.731-56.602-28.365-7.331-9.955-11.94-21.892-13.199-34.188l128.022 20.937Zm74.159-102.046a71.684 71.684 0 0 0-6.214 19.844c-3.386 21.307 2.95 42.828 9.265 63.458 6.315 20.631 12.752 42.099 9.567 63.437-2.379 15.937-10.156 30.855-21.041 42.743-10.884 11.889-24.778 20.829-39.708 26.917-24.594 10.028-52.258 12.384-78.195 6.66v70.93l21.329-50.632c27.643 6.304 57.238 3.754 83.393-7.186 18.732-7.835 35.822-20.034 48.145-36.163 12.322-16.128 19.673-36.28 19.152-56.564-.626-24.385-12.15-46.985-23.304-68.682-11.154-21.698-22.456-44.471-22.58-68.864a75.38 75.38 0 0 1 .191-5.898Z" fill="#fff"/>
</g>
</svg>
