<svg xmlns="http://www.w3.org/2000/svg" width="512" height="512" fill="none"><defs><clipPath id="a"><path fill="#fff" d="M0 0h512v512H0z"/></clipPath></defs><g clip-path="url(#a)"><circle cx="256" cy="256" r="256" fill="#fff"/><path fill="#0068C8" d="M512 256.008C512 114.629 397.382 0 255.995 0 114.613 0 0 114.629 0 256.008 0 397.389 114.613 512 255.995 512 397.382 512 512 397.389 512 256.008Z"/><path fill="#fff" d="M240.72 211.746c-9.1-9.863-15.099-22.543-16.949-35.83-1.85-13.287.457-27.122 6.517-39.092 6.061-11.97 15.849-22.023 27.657-28.405 11.809-6.383 25.586-9.066 38.929-7.583 21.46 2.385 41.363 15.949 51.418 35.042l120.912 16.665H331.397c-8.598-10.996-21.586-18.464-35.421-20.367-9.88-1.359-20.128.069-29.26 4.075-9.132 4.006-17.119 10.579-22.805 18.766a54.612 54.612 0 0 0-9.612 27.914c-.56 9.95 1.689 20.042 6.421 28.815Zm17 45.207L72.652 123.992c-8.866 17.497-12.375 37.66-9.94 57.12 2.434 19.46 10.802 38.139 23.706 52.917 16.923 19.381 41.647 31.758 67.315 33.7-12.117-3.912-23.217-10.927-31.947-20.19a76.279 76.279 0 0 1-18.254-33.074c-3.645-14.113-3.107-29.277 1.529-43.096l152.659 85.584Z"/><path fill="#fff" d="m247.447 292.869-162.61-45.722c-1.31 15.198 1.674 30.742 8.52 44.376 6.846 13.634 17.533 25.317 30.509 33.352 19.25 11.92 43.49 15.484 65.36 9.61-21.91.147-43.616-10.731-56.602-28.365-7.331-9.955-11.94-21.892-13.199-34.188l128.022 20.937Zm74.159-102.046a71.684 71.684 0 0 0-6.214 19.844c-3.386 21.307 2.95 42.828 9.265 63.458 6.315 20.631 12.752 42.099 9.567 63.437-2.379 15.937-10.156 30.855-21.041 42.743-10.884 11.889-24.778 20.829-39.708 26.917-24.594 10.028-52.258 12.384-78.195 6.66v70.93l21.329-50.632c27.643 6.304 57.238 3.754 83.393-7.186 18.732-7.835 35.822-20.034 48.145-36.163 12.322-16.128 19.673-36.28 19.152-56.564-.626-24.385-12.15-46.985-23.304-68.682-11.154-21.698-22.456-44.471-22.58-68.864a75.38 75.38 0 0 1 .191-5.898Z"/></g><circle cx="434.5" cy="434.5" r="77.5" fill="#e91f63" style="stroke-width:.302734"/><path fill="#fff" d="M425.077 383.035h-35.382a1.514 1.514 0 0 0 0 3.027h32.77c.235-.346.477-.693.727-1.038l1.108-1.53z" style="stroke-width:.302734"/><path fill="#fff" fill-opacity=".7" d="M414.02 402.627a209.462 209.462 0 0 0-.82 2.205h-37.43a1.514 1.514 0 0 1 0-3.027h38.595l-.109.196z" style="stroke-width:.302734"/><path fill="#fff" fill-opacity=".3" d="M409.98 420.271h-40.265a1.514 1.514 0 0 0 0 3.028h39.85l.026-.131.01-.045c.187-.955.31-1.593.387-2.094a31.968 31.968 0 0 1-.007-.758z" style="stroke-width:.302734"/><path fill="#fff" d="M411.238 439.041H368.2a1.514 1.514 0 0 0 0 3.027h45.341a47.373 47.373 0 0 0-.91-1.146 15.756 15.756 0 0 1-1.394-1.881z" style="stroke-width:.302734"/><path fill="#fff" fill-opacity=".6" d="M422.95 457.508h-50.208a1.514 1.514 0 0 0 0 3.027h51.827a186.596 186.596 0 0 0-.904-1.726 1609.327 1609.327 0 0 1-.715-1.301z" style="stroke-width:.302734"/><path fill="#fff" d="M431.847 476.277h-46.995a1.514 1.514 0 0 0 0 3.028h48.221a229.097 229.097 0 0 0-1.226-3.028zm16.36-102.063c-.593 2.65-4.773-.583-5.566 2.416-4.681-3.297-.287 3.569-.907 4.002l-.038-.008-.371-.112c-.231-.138-.56-.362-1.029-.795-4.15 2.15-5.404 8.068-9.75 10.635-3.452 4.765-5.167 10.326-8.025 15.473-1.903 5.057-3.702 10.135-3.432 15.62-.448 4.333-2.816 9.88.477 13.61 4.823 5.852 8.423 12.776 12.089 19.435 5.731 10.793 10.419 22.138 14.341 33.648.902-2.5.33 5.446 1.953 6.309.166-3.997.605-10.315 1.172-15.18.545-12.904-3.392-25.428-3.271-38.289.031-.537.053-1.091.085-1.638l.306-1.557-.19-.037c.447-6.279 1.482-12.972 6.867-16.838 5.451-3.688 12.452-3.51 18.54-5.62 1.357-.48 2.749-.81 4.131-.967.012-.002.028.009.038.007 4.025-.424 8.067.41 11.88 1.827.057.022.127.055.183.076.347.13.723.267 1.065.406 2.831.825 8.41 3.097 9.848 1.309-3.308-4.176-9.096-5.064-13.709-7.362-.74-.291-1.657-.63-2.588-.904l-4.546-2-1.118-.537-.008.038-16.373-6.66a8.319 8.319 0 0 0-.702-.85l16.134 5.314.014-.076c.558.245 1.117.465 1.692.649l-.007.037 11.272 4.47c1.87 1.151 3.912 2.134 5.904 2.666 3.236 1.141 6.5 6.952 7.535 7.408.496-5.346-4.27-8.723-8.309-11.11-4.585-3.468-12.18-4.863-11.687-11.853-.12-.517-.237-1.033-.406-1.545l-1.452-3.014.083-.023c-2.072-3.718-5.41-6.776-9.273-8.459-3.728-2.174-7.956-4.435-12.117-5.823-2.269 3.95-2.379-3.955-6.277-2.38-3.098-.238-2.843.643-4.714-1.719h.256zm19.325 16.692c1.102.187 2.313.634 3.491 1.319 3.128 1.821 4.834 4.704 3.823 6.438-1.01 1.733-4.38 1.65-7.506-.178-3.127-1.828-4.844-4.655-3.83-6.4.632-1.088 2.188-1.49 4.022-1.18z" style="stroke-width:.302734"/><path fill="#e91f63" d="M466.893 398.626c3.134 2.005 5.676 2.01 6.962 0 1.286-2.01-.044-4.352-3.178-6.357-3.134-2.006-5.828-2.01-7.115 0-1.286 2.01.196 4.352 3.33 6.357z" style="stroke-width:.302734"/><path fill="#fff" fill-rule="evenodd" d="M471.284 399.026c1.137-.001 1.765-.39 2.036-.812.27-.423.36-1.156-.116-2.189-.467-1.015-1.411-2.12-2.772-2.99-1.36-.871-2.76-1.265-3.877-1.264-1.137.001-1.765.39-2.035.813-.27.422-.36 1.155.115 2.188.468 1.015 1.412 2.121 2.772 2.991 1.36.87 2.76 1.264 3.877 1.263zm3.31.003c-1.286 2.01-4.869 2.014-8.003.009-3.134-2.005-4.632-5.26-3.346-7.27 1.286-2.01 4.87-2.015 8.003-.01 3.135 2.005 5.03 6.005 3.346 7.27z" clip-rule="evenodd" style="stroke-width:.302734"/></svg>