<svg xmlns="http://www.w3.org/2000/svg" width="512" height="512" fill="none"><circle cx="256" cy="256" r="256" fill="#fff"/><path fill="#000" d="M281.797 169.861v-4.22l-13.114.901c-3.714.234-6.502 1.024-8.377 2.356-1.876 1.345-2.813 3.208-2.813 5.589 0 2.32.925 4.17 2.788 5.54 1.851 1.381 4.343 2.06 7.452 2.06 1.986 0 3.849-.308 5.564-.913 1.715-.605 3.22-1.456 4.478-2.542a11.378 11.378 0 0 0 2.949-3.849c.716-1.493 1.073-3.133 1.073-4.922ZM256 0C113.146 0 0 113.146 0 256c0 142.866 113.146 256 256 256 142.854 0 256-113.134 256-256C512 113.146 398.866 0 256 0Zm49.695 151.737c1.209-3.393 2.911-6.304 5.12-8.722 2.208-2.419 4.861-4.282 7.97-5.589 3.109-1.308 6.576-1.962 10.388-1.962 3.442 0 6.551.518 9.315 1.542 2.775 1.024 5.144 2.406 7.13 4.146 1.987 1.739 3.566 3.763 4.726 6.082a20.465 20.465 0 0 1 2.085 7.353h-10.277a13.236 13.236 0 0 0-1.394-3.973 10.894 10.894 0 0 0-2.628-3.183c-1.098-.9-2.381-1.604-3.85-2.109-1.48-.519-3.133-.765-4.996-.765-2.184 0-4.17.444-5.934 1.32-1.777.876-3.294 2.122-4.553 3.726-1.258 1.604-2.233 3.565-2.924 5.86-.703 2.307-1.049 4.861-1.049 7.674 0 2.911.346 5.527 1.049 7.822.691 2.307 1.678 4.244 2.961 5.835a12.788 12.788 0 0 0 4.602 3.652c1.789.839 3.763 1.271 5.91 1.271 3.516 0 6.378-.827 8.599-2.48 2.22-1.653 3.652-4.071 4.318-7.254h10.289c-.296 2.813-1.073 5.379-2.332 7.698a19.81 19.81 0 0 1-4.885 5.934c-2.011 1.641-4.368 2.912-7.082 3.8-2.714.889-5.7 1.345-8.944 1.345-3.85 0-7.317-.641-10.438-1.912-3.109-1.271-5.786-3.109-8.007-5.49-2.221-2.381-3.935-5.281-5.144-8.698-1.21-3.418-1.814-7.255-1.814-11.536-.025-4.182.58-7.982 1.789-11.387Zm-146.235-15.57h10.29v9.142h.197a15.219 15.219 0 0 1 2.467-4.071 15.425 15.425 0 0 1 3.504-3.06c1.32-.851 2.788-1.493 4.368-1.937a18.62 18.62 0 0 1 5.021-.666c3.775 0 6.971.901 9.561 2.702 2.604 1.801 4.454 4.392 5.54 7.773h.259a16.181 16.181 0 0 1 2.727-4.368 17.463 17.463 0 0 1 3.873-3.306c1.456-.913 3.06-1.604 4.8-2.085 1.739-.481 3.565-.716 5.49-.716 2.652 0 5.058.42 7.229 1.271 2.172.851 4.022 2.036 5.565 3.578 1.542 1.542 2.726 3.417 3.553 5.613.826 2.196 1.246 4.639 1.246 7.329v36.777h-10.734v-34.199c0-3.541-.913-6.292-2.739-8.229-1.813-1.937-4.416-2.912-7.797-2.912-1.653 0-3.17.297-4.552.876-1.37.58-2.566 1.395-3.553 2.443-1 1.037-1.777 2.295-2.332 3.751-.568 1.456-.851 3.047-.851 4.774v33.496h-10.586v-35.087c0-1.555-.247-2.961-.728-4.22-.481-1.258-1.159-2.331-2.06-3.232-.888-.901-1.986-1.579-3.257-2.06-1.283-.481-2.714-.728-4.306-.728-1.653 0-3.183.308-4.602.925a10.861 10.861 0 0 0-3.627 2.554 11.612 11.612 0 0 0-2.356 3.874c-.543 1.48-1.431 3.109-1.431 4.861v33.101H159.46v-53.964Zm23.355 258.332c-47.191 0-76.788-32.793-76.788-85.128s29.597-85.238 76.788-85.238c47.19 0 76.676 32.903 76.676 85.238 0 52.323-29.486 85.128-76.676 85.128Zm87.373-204.491c-1.74.444-3.516.666-5.342.666-2.69 0-5.145-.383-7.378-1.148-2.245-.765-4.158-1.838-5.761-3.232a14.486 14.486 0 0 1-3.751-5.046c-.901-1.974-1.345-4.17-1.345-6.588 0-4.738 1.765-8.439 5.293-11.104 3.528-2.665 8.636-4.219 15.335-4.651l14.558-.839v-4.17c0-3.109-.987-5.49-2.961-7.106-1.974-1.616-4.762-2.431-8.377-2.431-1.455 0-2.825.185-4.083.543-1.259.37-2.369.888-3.331 1.567a8.945 8.945 0 0 0-2.381 2.443 8.713 8.713 0 0 0-1.296 3.158h-10.092c.062-2.381.654-4.589 1.764-6.613 1.111-2.023 2.616-3.775 4.528-5.268 1.912-1.493 4.146-2.652 6.736-3.479 2.591-.826 5.404-1.246 8.451-1.246 3.282 0 6.255.407 8.92 1.246s4.948 2.011 6.835 3.553c1.888 1.542 3.344 3.393 4.368 5.564 1.024 2.172 1.542 4.602 1.542 7.279v37.025h-10.277v-8.994h-.259a16.19 16.19 0 0 1-2.9 3.948 18.593 18.593 0 0 1-3.972 3.01 20.02 20.02 0 0 1-4.824 1.913Zm67.892 204.491c-35.988 0-60.453-18.851-62.155-48.449h23.428c1.826 16.915 18.173 28.117 40.566 28.117 21.479 0 36.913-11.202 36.913-26.513 0-13.25-9.376-21.257-31.078-26.735l-21.146-5.256c-30.399-7.538-44.217-21.368-44.217-44.106 0-27.993 24.453-47.424 59.306-47.424 34.051 0 57.812 19.542 58.725 47.646h-23.194c-1.604-16.914-15.422-27.314-36-27.314-20.456 0-34.619 10.511-34.619 25.711 0 11.992 8.908 19.085 30.621 24.563l17.828 4.454c33.94 8.229 47.881 21.603 47.881 45.599-.012 30.621-24.23 49.707-62.859 49.707ZM182.815 245.143c-32.336 0-52.557 24.798-52.557 64.216 0 39.307 20.221 64.105 52.557 64.105 32.225 0 52.557-24.798 52.557-64.105.012-39.418-20.332-64.216-52.557-64.216Z"/><circle cx="434.5" cy="434.5" r="77.5" fill="#e91f63" style="stroke-width:.302734"/><path fill="#fff" d="M425.077 383.035h-35.382a1.514 1.514 0 0 0 0 3.027h32.77c.235-.346.477-.693.727-1.038l1.108-1.53z" style="stroke-width:.302734"/><path fill="#fff" fill-opacity=".7" d="M414.02 402.627a209.462 209.462 0 0 0-.82 2.205h-37.43a1.514 1.514 0 0 1 0-3.027h38.595l-.109.196z" style="stroke-width:.302734"/><path fill="#fff" fill-opacity=".3" d="M409.98 420.271h-40.265a1.514 1.514 0 0 0 0 3.028h39.85l.026-.131.01-.045c.187-.955.31-1.593.387-2.094a31.968 31.968 0 0 1-.007-.758z" style="stroke-width:.302734"/><path fill="#fff" d="M411.238 439.041H368.2a1.514 1.514 0 0 0 0 3.027h45.341a47.373 47.373 0 0 0-.91-1.146 15.756 15.756 0 0 1-1.394-1.881z" style="stroke-width:.302734"/><path fill="#fff" fill-opacity=".6" d="M422.95 457.508h-50.208a1.514 1.514 0 0 0 0 3.027h51.827a186.596 186.596 0 0 0-.904-1.726 1609.327 1609.327 0 0 1-.715-1.301z" style="stroke-width:.302734"/><path fill="#fff" d="M431.847 476.277h-46.995a1.514 1.514 0 0 0 0 3.028h48.221a229.097 229.097 0 0 0-1.226-3.028zm16.36-102.063c-.593 2.65-4.773-.583-5.566 2.416-4.681-3.297-.287 3.569-.907 4.002l-.038-.008-.371-.112c-.231-.138-.56-.362-1.029-.795-4.15 2.15-5.404 8.068-9.75 10.635-3.452 4.765-5.167 10.326-8.025 15.473-1.903 5.057-3.702 10.135-3.432 15.62-.448 4.333-2.816 9.88.477 13.61 4.823 5.852 8.423 12.776 12.089 19.435 5.731 10.793 10.419 22.138 14.341 33.648.902-2.5.33 5.446 1.953 6.309.166-3.997.605-10.315 1.172-15.18.545-12.904-3.392-25.428-3.271-38.289.031-.537.053-1.091.085-1.638l.306-1.557-.19-.037c.447-6.279 1.482-12.972 6.867-16.838 5.451-3.688 12.452-3.51 18.54-5.62 1.357-.48 2.749-.81 4.131-.967.012-.002.028.009.038.007 4.025-.424 8.067.41 11.88 1.827.057.022.127.055.183.076.347.13.723.267 1.065.406 2.831.825 8.41 3.097 9.848 1.309-3.308-4.176-9.096-5.064-13.709-7.362-.74-.291-1.657-.63-2.588-.904l-4.546-2-1.118-.537-.008.038-16.373-6.66a8.319 8.319 0 0 0-.702-.85l16.134 5.314.014-.076c.558.245 1.117.465 1.692.649l-.007.037 11.272 4.47c1.87 1.151 3.912 2.134 5.904 2.666 3.236 1.141 6.5 6.952 7.535 7.408.496-5.346-4.27-8.723-8.309-11.11-4.585-3.468-12.18-4.863-11.687-11.853-.12-.517-.237-1.033-.406-1.545l-1.452-3.014.083-.023c-2.072-3.718-5.41-6.776-9.273-8.459-3.728-2.174-7.956-4.435-12.117-5.823-2.269 3.95-2.379-3.955-6.277-2.38-3.098-.238-2.843.643-4.714-1.719h.256zm19.325 16.692c1.102.187 2.313.634 3.491 1.319 3.128 1.821 4.834 4.704 3.823 6.438-1.01 1.733-4.38 1.65-7.506-.178-3.127-1.828-4.844-4.655-3.83-6.4.632-1.088 2.188-1.49 4.022-1.18z" style="stroke-width:.302734"/><path fill="#e91f63" d="M466.893 398.626c3.134 2.005 5.676 2.01 6.962 0 1.286-2.01-.044-4.352-3.178-6.357-3.134-2.006-5.828-2.01-7.115 0-1.286 2.01.196 4.352 3.33 6.357z" style="stroke-width:.302734"/><path fill="#fff" fill-rule="evenodd" d="M471.284 399.026c1.137-.001 1.765-.39 2.036-.812.27-.423.36-1.156-.116-2.189-.467-1.015-1.411-2.12-2.772-2.99-1.36-.871-2.76-1.265-3.877-1.264-1.137.001-1.765.39-2.035.813-.27.422-.36 1.155.115 2.188.468 1.015 1.412 2.121 2.772 2.991 1.36.87 2.76 1.264 3.877 1.263zm3.31.003c-1.286 2.01-4.869 2.014-8.003.009-3.134-2.005-4.632-5.26-3.346-7.27 1.286-2.01 4.87-2.015 8.003-.01 3.135 2.005 5.03 6.005 3.346 7.27z" clip-rule="evenodd" style="stroke-width:.302734"/></svg>