<svg width="512" height="512" fill="none" xmlns="http://www.w3.org/2000/svg">
<defs>
<linearGradient id="a" x1="125.937" y1="267.578" x2="211.587" y2="415.677" gradientUnits="userSpaceOnUse">
<stop stop-color="#699AD7"/>
<stop offset=".243" stop-color="#7EB1DD"/>
<stop offset="1" stop-color="#7EBAE4"/>
</linearGradient>
<linearGradient id="b" x1="134.786" y1="262.539" x2="218.917" y2="411.215" gradientUnits="userSpaceOnUse">
<stop stop-color="#415E9A"/>
<stop offset=".232" stop-color="#4A6BAF"/>
<stop offset="1" stop-color="#5277C3"/>
</linearGradient>
</defs>
<circle cx="256" cy="256" r="256" fill="#fff"/>
<path fill-rule="evenodd" clip-rule="evenodd" d="m162.443 261.346 116.911 202.567-53.728.504-31.212-54.422-31.435 54.131-26.696-.01-13.672-23.627 44.785-77.027-31.792-55.338 26.839-46.778Z" fill="#5277C3"/>
<path fill-rule="evenodd" clip-rule="evenodd" d="M204.641 177.906 87.711 380.462l-27.3-46.289 31.513-54.248-62.586-.165L16 256.631l13.62-23.658 89.084.282 32.017-55.209 53.92-.14Zm8.97 161.92 233.842.012-26.428 46.793-62.726-.174 31.151 54.296-13.357 23.119-27.294.03-44.298-77.308-63.808-.129-27.082-46.639Zm136.104-88.755L232.805 48.504 286.532 48l31.213 54.422 31.435-54.131 26.695.01 13.673 23.628-44.786 77.027 31.792 55.337-26.839 46.778Z" fill="#7EBAE4"/>
<path fill-rule="evenodd" clip-rule="evenodd" d="m162.443 261.346 116.911 202.567-53.728.504-31.212-54.422-31.435 54.131-26.696-.01-13.672-23.627 44.785-77.027-31.792-55.338 26.839-46.778Zm135.793-89.267-233.841-.011 26.427-46.793 62.726.173-31.15-54.295 13.357-23.12 27.293-.03 44.299 77.309 63.808.129 27.081 46.638Zm9.123 162.389 116.93-202.556 27.301 46.289-31.514 54.248 62.586.165L496 255.743l-13.62 23.658-89.084-.281-32.016 55.208-53.921.14Z" fill="#5277C3"/>
<path fill-rule="evenodd" clip-rule="evenodd" d="m162.582 261.216 116.911 202.567-53.728.504-31.212-54.422-31.435 54.131-26.696-.01-13.672-23.628 44.785-77.027-31.792-55.337 26.839-46.778Z" fill="url(#a)"/>
<path fill-rule="evenodd" clip-rule="evenodd" d="m162.582 261.216 116.911 202.567-53.728.504-31.212-54.422-31.435 54.131-26.696-.01-13.672-23.628 44.785-77.027-31.792-55.337 26.839-46.778Z" fill="url(#b)"/>
</svg>
