<svg xmlns="http://www.w3.org/2000/svg" width="512" height="512" fill="none"><defs><linearGradient id="a" x1="125.937" x2="211.587" y1="267.578" y2="415.677" gradientUnits="userSpaceOnUse"><stop stop-color="#699AD7"/><stop offset=".243" stop-color="#7EB1DD"/><stop offset="1" stop-color="#7EBAE4"/></linearGradient><linearGradient id="b" x1="134.786" x2="218.917" y1="262.539" y2="411.215" gradientUnits="userSpaceOnUse"><stop stop-color="#415E9A"/><stop offset=".232" stop-color="#4A6BAF"/><stop offset="1" stop-color="#5277C3"/></linearGradient></defs><circle cx="256" cy="256" r="256" fill="#fff"/><path fill="#5277C3" fill-rule="evenodd" d="m162.443 261.346 116.911 202.567-53.728.504-31.212-54.422-31.435 54.131-26.696-.01-13.672-23.627 44.785-77.027-31.792-55.338 26.839-46.778Z" clip-rule="evenodd"/><path fill="#7EBAE4" fill-rule="evenodd" d="M204.641 177.906 87.711 380.462l-27.3-46.289 31.513-54.248-62.586-.165L16 256.631l13.62-23.658 89.084.282 32.017-55.209 53.92-.14Zm8.97 161.92 233.842.012-26.428 46.793-62.726-.174 31.151 54.296-13.357 23.119-27.294.03-44.298-77.308-63.808-.129-27.082-46.639Zm136.104-88.755L232.805 48.504 286.532 48l31.213 54.422 31.435-54.131 26.695.01 13.673 23.628-44.786 77.027 31.792 55.337-26.839 46.778Z" clip-rule="evenodd"/><path fill="#5277C3" fill-rule="evenodd" d="m162.443 261.346 116.911 202.567-53.728.504-31.212-54.422-31.435 54.131-26.696-.01-13.672-23.627 44.785-77.027-31.792-55.338 26.839-46.778Zm135.793-89.267-233.841-.011 26.427-46.793 62.726.173-31.15-54.295 13.357-23.12 27.293-.03 44.299 77.309 63.808.129 27.081 46.638Zm9.123 162.389 116.93-202.556 27.301 46.289-31.514 54.248 62.586.165L496 255.743l-13.62 23.658-89.084-.281-32.016 55.208-53.921.14Z" clip-rule="evenodd"/><path fill="url(#a)" fill-rule="evenodd" d="m162.582 261.216 116.911 202.567-53.728.504-31.212-54.422-31.435 54.131-26.696-.01-13.672-23.628 44.785-77.027-31.792-55.337 26.839-46.778Z" clip-rule="evenodd"/><path fill="url(#b)" fill-rule="evenodd" d="m162.582 261.216 116.911 202.567-53.728.504-31.212-54.422-31.435 54.131-26.696-.01-13.672-23.628 44.785-77.027-31.792-55.337 26.839-46.778Z" clip-rule="evenodd"/><circle cx="434.5" cy="434.5" r="77.5" fill="#e91f63" style="stroke-width:.302734"/><path fill="#fff" d="M425.077 383.035h-35.382a1.514 1.514 0 0 0 0 3.027h32.77c.235-.346.477-.693.727-1.038l1.108-1.53z" style="stroke-width:.302734"/><path fill="#fff" fill-opacity=".7" d="M414.02 402.627a209.462 209.462 0 0 0-.82 2.205h-37.43a1.514 1.514 0 0 1 0-3.027h38.595l-.109.196z" style="stroke-width:.302734"/><path fill="#fff" fill-opacity=".3" d="M409.98 420.271h-40.265a1.514 1.514 0 0 0 0 3.028h39.85l.026-.131.01-.045c.187-.955.31-1.593.387-2.094a31.968 31.968 0 0 1-.007-.758z" style="stroke-width:.302734"/><path fill="#fff" d="M411.238 439.041H368.2a1.514 1.514 0 0 0 0 3.027h45.341a47.373 47.373 0 0 0-.91-1.146 15.756 15.756 0 0 1-1.394-1.881z" style="stroke-width:.302734"/><path fill="#fff" fill-opacity=".6" d="M422.95 457.508h-50.208a1.514 1.514 0 0 0 0 3.027h51.827a186.596 186.596 0 0 0-.904-1.726 1609.327 1609.327 0 0 1-.715-1.301z" style="stroke-width:.302734"/><path fill="#fff" d="M431.847 476.277h-46.995a1.514 1.514 0 0 0 0 3.028h48.221a229.097 229.097 0 0 0-1.226-3.028zm16.36-102.063c-.593 2.65-4.773-.583-5.566 2.416-4.681-3.297-.287 3.569-.907 4.002l-.038-.008-.371-.112c-.231-.138-.56-.362-1.029-.795-4.15 2.15-5.404 8.068-9.75 10.635-3.452 4.765-5.167 10.326-8.025 15.473-1.903 5.057-3.702 10.135-3.432 15.62-.448 4.333-2.816 9.88.477 13.61 4.823 5.852 8.423 12.776 12.089 19.435 5.731 10.793 10.419 22.138 14.341 33.648.902-2.5.33 5.446 1.953 6.309.166-3.997.605-10.315 1.172-15.18.545-12.904-3.392-25.428-3.271-38.289.031-.537.053-1.091.085-1.638l.306-1.557-.19-.037c.447-6.279 1.482-12.972 6.867-16.838 5.451-3.688 12.452-3.51 18.54-5.62 1.357-.48 2.749-.81 4.131-.967.012-.002.028.009.038.007 4.025-.424 8.067.41 11.88 1.827.057.022.127.055.183.076.347.13.723.267 1.065.406 2.831.825 8.41 3.097 9.848 1.309-3.308-4.176-9.096-5.064-13.709-7.362-.74-.291-1.657-.63-2.588-.904l-4.546-2-1.118-.537-.008.038-16.373-6.66a8.319 8.319 0 0 0-.702-.85l16.134 5.314.014-.076c.558.245 1.117.465 1.692.649l-.007.037 11.272 4.47c1.87 1.151 3.912 2.134 5.904 2.666 3.236 1.141 6.5 6.952 7.535 7.408.496-5.346-4.27-8.723-8.309-11.11-4.585-3.468-12.18-4.863-11.687-11.853-.12-.517-.237-1.033-.406-1.545l-1.452-3.014.083-.023c-2.072-3.718-5.41-6.776-9.273-8.459-3.728-2.174-7.956-4.435-12.117-5.823-2.269 3.95-2.379-3.955-6.277-2.38-3.098-.238-2.843.643-4.714-1.719h.256zm19.325 16.692c1.102.187 2.313.634 3.491 1.319 3.128 1.821 4.834 4.704 3.823 6.438-1.01 1.733-4.38 1.65-7.506-.178-3.127-1.828-4.844-4.655-3.83-6.4.632-1.088 2.188-1.49 4.022-1.18z" style="stroke-width:.302734"/><path fill="#e91f63" d="M466.893 398.626c3.134 2.005 5.676 2.01 6.962 0 1.286-2.01-.044-4.352-3.178-6.357-3.134-2.006-5.828-2.01-7.115 0-1.286 2.01.196 4.352 3.33 6.357z" style="stroke-width:.302734"/><path fill="#fff" fill-rule="evenodd" d="M471.284 399.026c1.137-.001 1.765-.39 2.036-.812.27-.423.36-1.156-.116-2.189-.467-1.015-1.411-2.12-2.772-2.99-1.36-.871-2.76-1.265-3.877-1.264-1.137.001-1.765.39-2.035.813-.27.422-.36 1.155.115 2.188.468 1.015 1.412 2.121 2.772 2.991 1.36.87 2.76 1.264 3.877 1.263zm3.31.003c-1.286 2.01-4.869 2.014-8.003.009-3.134-2.005-4.632-5.26-3.346-7.27 1.286-2.01 4.87-2.015 8.003-.01 3.135 2.005 5.03 6.005 3.346 7.27z" clip-rule="evenodd" style="stroke-width:.302734"/></svg>