<svg width="512" height="512" fill="none" xmlns="http://www.w3.org/2000/svg">
<defs>
<radialGradient id="a" cx="0" cy="0" r="1" gradientUnits="userSpaceOnUse" gradientTransform="matrix(219.487 0 0 229.912 247.058 254.744)">
<stop stop-color="#FFF68E"/>
<stop offset=".731" stop-color="#EED26A"/>
<stop offset="1" stop-color="#D6AA4A"/>
</radialGradient>
<radialGradient id="b" cx="0" cy="0" r="1" gradientUnits="userSpaceOnUse" gradientTransform="matrix(22.3104 0 0 13.9444 389.669 194.925)">
<stop stop-color="#FFF68E"/>
<stop offset=".5" stop-color="#FAEA82"/>
<stop offset="1" stop-color="#D6AA4A"/>
</radialGradient>
<radialGradient id="c" cx="0" cy="0" r="1" gradientUnits="userSpaceOnUse" gradientTransform="matrix(7.54147 0 0 8.4842 438.999 202.269)">
<stop stop-color="#FFF68E"/>
<stop offset=".5" stop-color="#FAEA82"/>
<stop offset="1" stop-color="#D6AA4A"/>
</radialGradient>
<radialGradient id="d" cx="0" cy="0" r="1" gradientUnits="userSpaceOnUse" gradientTransform="matrix(23.2352 0 0 16.6088 428.929 270.04)">
<stop stop-color="#FFF68E"/>
<stop offset=".5" stop-color="#FAEA82"/>
<stop offset="1" stop-color="#D6AA4A"/>
</radialGradient>
<radialGradient id="e" cx="0" cy="0" r="1" gradientUnits="userSpaceOnUse" gradientTransform="matrix(20.9606 0 0 21.0545 427.528 307.816)">
<stop stop-color="#FFF68E"/>
<stop offset=".5" stop-color="#FAEA82"/>
<stop offset="1" stop-color="#D6AA4A"/>
</radialGradient>
<radialGradient id="f" cx="0" cy="0" r="1" gradientUnits="userSpaceOnUse" gradientTransform="matrix(205.197 0 0 209.057 426.019 337.18)">
<stop stop-color="#FFF68E"/>
<stop offset=".5" stop-color="#FAEA82"/>
<stop offset="1" stop-color="#D6AA4A"/>
</radialGradient>
<radialGradient id="g" cx="0" cy="0" r="1" gradientUnits="userSpaceOnUse" gradientTransform="matrix(7.22687 0 0 9.74079 133.887 370.693)">
<stop stop-color="#FFF68E"/>
<stop offset=".5" stop-color="#FAEA82"/>
<stop offset="1" stop-color="#D6AA4A"/>
</radialGradient>
<radialGradient id="h" cx="0" cy="0" r="1" gradientUnits="userSpaceOnUse" gradientTransform="translate(415.751 384.205) scale(6.91256)">
<stop stop-color="#FFF68E"/>
<stop offset=".5" stop-color="#FAEA82"/>
<stop offset="1" stop-color="#D6AA4A"/>
</radialGradient>
<radialGradient id="i" cx="0" cy="0" r="1" gradientUnits="userSpaceOnUse" gradientTransform="matrix(4.11978 0 0 9.74077 189.231 415.311)">
<stop stop-color="#FFF68E"/>
<stop offset=".5" stop-color="#FAEA82"/>
<stop offset="1" stop-color="#D6AA4A"/>
</radialGradient>
<radialGradient id="j" cx="0" cy="0" r="1" gradientUnits="userSpaceOnUse" gradientTransform="matrix(6.28467 0 0 8.79864 358.555 429.454)">
<stop stop-color="#FFF68E"/>
<stop offset=".5" stop-color="#FAEA82"/>
<stop offset="1" stop-color="#D6AA4A"/>
</radialGradient>
<radialGradient id="k" cx="0" cy="0" r="1" gradientUnits="userSpaceOnUse" gradientTransform="matrix(3.77064 0 0 10.6621 247.954 440.785)">
<stop stop-color="#FFF68E"/>
<stop offset=".5" stop-color="#FAEA82"/>
<stop offset="1" stop-color="#D6AA4A"/>
</radialGradient>
<radialGradient id="l" cx="0" cy="0" r="1" gradientUnits="userSpaceOnUse" gradientTransform="matrix(5.52336 0 0 10.7301 303.122 444.487)">
<stop stop-color="#FFF68E"/>
<stop offset=".5" stop-color="#FAEA82"/>
<stop offset="1" stop-color="#D6AA4A"/>
</radialGradient>
</defs>
<circle cx="256" cy="256" r="256" fill="#fff"/>
<path d="M256 512c141.385 0 256-114.615 256-256S397.385 0 256 0 0 114.615 0 256s114.615 256 256 256Z" fill="#fff"/>
<path d="M291.314 40.443c-4.217 9.801-3.036 21.236-6.109 31.422-.708 2.347-3.028 9.434-6.421 8.944-6.938-1.004-3.344-14.333-11.35-14.6l2.513 19.482c-12.03 1.511-10.39-17.27-15.273-24.9-5.635-8.803-6.992 3.994-6.616 7.932.241 2.524.75 5.024 1.053 7.542.526 4.38.65 8.192.098 12.568-11.497-.135-7.277-15.267-15.712-17.596l.629 18.225c-12.745-.107-18.554-11.611-24.15-21.367-2.336-4.073-5.444-11.941-11.043-9.427 2.62 11.322 8.817 22.158 9.45 33.936.163 3.045-2.711 10.775-6.935 9.353-9.758-3.287-8.448-20.992-16.58-25.65-1.644-.942-4.24-.12-6.045-.042.006 9.391 4.137 20.745 7.42 29.536.706 1.891 2.69 8.54-1.43 8.416-7.363-.221-9.196-14.496-16.674-12.815.915 3.85 3.203 6.976 4.478 10.684.78 2.265 2.223 4.555 2.642 6.912.913 5.155-5.617 5.573-9.005 4.575-8.006-2.36-13.756-8.905-19.482-14.63-1.587-1.585-5.774-7.17-8.416-4.635-2.939 2.819 2.831 7.772 4.468 9.663 4.891 5.654 10.183 12.277 12.52 19.482 1.004 3.096 1.2 7.495-1.873 9.62-3.05 2.106-8.01-1.718-10.47-3.337-7.534-4.958-15.024-13.622-24.51-13.824l-2.22 5.656 6.048 8.17 15.655 17.596-18.225-7.541c.736 4.764 12.15 10.537 9.903 15.448-1.332 2.91-7.936 2.958-10.532 2.588-9.291-1.324-15.866-8.243-24.51-10.722-7.631-2.19-6.21 3.73-1.884 7.15 1.501 1.186 2.948 2.43 4.399 3.679 2.6 2.236 5.116 4.57 7.541 6.995 3.812 3.81 7.152 7.885 10.684 11.94l-18.225-.628v1.256l17.596 8.17-3.142 12.57c-5.081-.014-9.2-1.398-13.826-3.41-3.152-1.37-6.47-3.649-10.055-3.397-4.28.3-6.824 4.208-3.957 7.859 4.298 5.473 12.908 8.59 18.408 12.855 2.099 1.627 5.14 4.409 2.766 7.187-4.689 5.488-17.326-1.553-23.502.272v1.257c5.732 3.345 17.484 5.254 20.857 11.422 2.637 4.823-4.863 15.757-10.173 15.329-4.73-.383-9.08-5.722-12.569-8.525-8.352-6.709-17.288-14.601-27.023-19.23C35.812 221.92 19.232 234.562 6 242.803c1.692 5.34 8.373-.344 12.569.607 5.648 1.28 9.938 6.535 13.559 10.705 17.496 20.149 32.14 42.995 38.682 69.129 1.722 6.88 4.662 15.111-.48 21.276-1.38 1.653-3.435 1.869-4.956 3.233-1.137 1.02-1.078 2.465.482 2.942 2.879.882 7.076-.458 9.901-1.138 9.225-2.223 19.755-7.2 23.944-16.258 2.605-5.635 3.522-16.6 9.993-18.854 1.431 6.04 8.223 14.031 7.562 20.11-.587 5.4-6.274 11.658-9.6 15.655-1.178 1.416-4.02 4.52-2.32 6.554 1.694 2.023 5.188-2.334 6.243-3.33 4.77-4.504 15.194-11.617 18.024-1.282 2.461 8.988-5.446 23.518-9.396 31.422-1.099 2.2-6.16 9.073-4.184 11.526 2.278 2.826 7.046-4.54 8.061-5.87 3.961-5.187 17.832-20.562 25.202-15.036 8.987 6.739 5.888 11.556 2.482 20.692-.96 2.574-4.503 9.027-2.094 11.475 2.332 2.368 5.393.199 6.585-2.06 2.157-4.09 7.96-16.24 13.765-13.139 3.634 1.942 9.19 5.233 11.304 8.86 3.304 5.669.43 16.983-.45 23.145-.507 3.547-4.321 14.617-1.155 17.18 2.925 2.368 5.29-4.752 6.168-6.497 3.096-6.148 6.657-12.444 11.266-17.596 1.654-1.85 3.992-4.95 6.803-4.423 14.597 2.732-.316 17.272 5.674 24.695 1.212 1.502 4.5 1.394 6.267 1.723l7.541-19.482c3.836 1.478 9.477 1.99 12.306 5.162 2.377 2.666 2.844 7.17 3.53 10.55 1.923 9.463 2.976 18.665 1.76 28.28 1.195.859 3.08 2.853 4.683 1.83 2.029-1.294 2.288-6.575 2.98-8.743 2.218-6.934 5.6-13.563 8.743-20.11 2.07-4.314 7.714-8.907 11.787-2.967 4.178 6.091 2.505 16.746 5.115 23.705 6.675-3.29 7.403-17.185 7.542-23.88l8.656 1.262 5.2 10.678 9.396 27.023c4.862-1.86 3.323-11.21 3.868-15.711.74-6.101 2.155-18.358 6.628-22.898 1.804-1.831 5.39-1.986 7.729-2.869 2.667 6.503 4.13 13.878 7.359 20.101 1.258 2.426 4.127 5.041 7.027 3.554 2.776-1.425 2.671-4.665 2.315-7.315-.875-6.512-2.357-12.915-2.875-19.482 12.459-.88 19.768 9.194 27.596 17.597 3.024 3.247 5.658 7.548 10.11 8.798l-6.46-18.853-3.595-17.597c4.522-1.892 14.089-11.14 18.854-9.792 7.097 2.006 12.52 21.782 21.33 17.133 3.758-1.982 1.815-5.342.05-7.97-2.628-3.912-10.53-13.309-9.675-18.222.634-3.641 6.734-7.882 10.29-7.833 8.148.112 22.313 6.314 27.024 12.858l5.656-.628c-.848-11.251-17.71-16.383-20.122-27.651-.24-1.123-.2-2.477.076-3.592 1.791-7.223 6.136-4.069 10.619-2.128 1.398.605 4.454 2.157 5.61.426 1.277-1.907-.984-4.423-1.813-6.019-1.692-3.258-3.245-7.02-2.54-10.683 5.871 1.536 9.495 5.028 14.454 8.327 1.173.78 3.76 2.733 5.24 1.644 1.557-1.145-.741-3.457-1.482-4.315-2.214-2.568-8.996-8.77-8.327-12.513.452-2.527 4.716-5.234 6.454-6.97 5.746-5.736 12.29-11.582 16.968-18.224h.629c11.1 12.948 45.897 3.868 41.477-15.711-2.767.396-5.338 2.571-8.17 1.595-12.377-4.267-9.386-24.095-23.252-24.22-1.022-12.925-6.215-25.844-12.482-37.078-2.873-5.15-8.846-9.862-10.932-15.107-1.157-2.908-.96-7.517-1.095-10.659 7.27-1.132 3.687-8.492 1.04-12.569-2.95-4.543-6.07-9.933-9.897-13.767-4.702-4.71-11.705-7.78-11.101-15.77.56-7.44 13.383-6.495 15.559-13.197-3.802.163-7.561 1.105-11.312 1.73-9.338 1.555-10.964-1.586-6.604-9.9 3.81-7.264 9.873-12.776 15.222-18.853 1.713-1.945 6.992-6.376 4.272-9.193-2.247-2.327-5.958 1.226-7.863 2.49-6.937 4.598-14.682 7.997-22.624 10.457-2.365.733-9.34 3.46-10.13-.73-1.066-5.66 9.647-6.716 8.245-13.08-4.286 1.019-12.707 7.782-16.824 4.647-4.955-3.773 2.321-13.406 3.1-17.843.787-4.495-2.828-4.66-5.372-1.849-.89.985-1.699 2.062-2.52 3.105-1.421 1.805-2.6 3.556-3.522 5.656-10.293-6.009 9.18-12.991 5.516-18.553-1.306-1.982-3.716.002-4.888 1.028-2.443 2.138-11.628 12.722-13.626 4.953-2.21-8.592 2.252-18.914 4.564-27.02.603-2.117 3.328-7.83.684-9.35-3.86-2.22-5.551 5.269-6.455 7.465-2.785 6.761-7.387 12.64-12.818 17.487-1.79 1.597-4.824 4.696-7.504 3.958-3.89-1.071-3.905-11.861-3.783-15.16.058-1.572.941-4.282-.593-5.42-2.002-1.485-3.048 1.494-3.346 2.908-.972 4.627-3.844 17.845-10.703 9.179-6.206-7.843 3.392-24.11-9.264-27.406l-6.913 21.995c-8.284-1.808-6.446-13.653-4.4-20.11l-3.77-1.257c-.593 2.564-1.437 5.062-2.32 7.541-3.348 9.4-7.825 11.231-11.28.629-2.638-8.092-1.703-16.822-3.015-25.138-.524-3.316-.834-6.68-4.124-8.17Z" fill="#000"/>
<path d="M291.943 59.297c-.371 17.956-5.793 31.41-25.766 31.422L273.089 119c-7.499-7.861-10.235-18.861-13.616-28.91-2.146-6.377-4.881-12.785-5.866-19.482h-.628c.235 11.346 2.627 22.604.346 33.937-1.253 6.231-4.765 11.073-6.63 16.968h-.628l3.769-27.652c-14.028 1.109-26.141 3.234-35.335-10.054-1.996-2.888-3.539-6.195-4.885-9.428h-.629c1.576 10.515 10.941 22.786-.055 31.606-1.68 1.347-3.619 2.174-5.6 2.959l9.934 15.058 5.777 7.567c-15.899-10.531-25.357-28.869-33.308-45.878h-.629c2.028 13.536 10.255 25.772 12.301 39.593.711 4.802 2.572 11.595-1.616 15.083l-5.028-23.881c-7.321 3.796-12.954 15.215-22.624 13.603-4.113-.687-7.442-4.016-11.313-5.434 1.823 5.757 6.866 11.201 3.99 17.596-1.064 2.366-3.141 4.181-4.618 6.285l20.112 7.542c-3.671 4.39-11.311.943-15.713-1.121-8.343-3.911-15.768-9.078-23.251-14.408-4.253-3.028-9.258-7.347-14.455-8.352 3.201 6.864 11.416 12.68 16.968 17.703 4.59 4.153 8.019 8.954 11.89 13.72 3.812 4.692 8.795 9.988 6.964 16.339-6.685-6.74-12.522-11.639-22.625-9.28-3.667.857-6.76 3.011-10.683 2.914-6.987-.172-13.736-3.731-20.111-6.203 3.701 7.935 13.456 12.209 15.536 21.367 1.529 6.728-3.323 15.315-4.224 21.995l21.368 3.142v1.257c-18.324 4.848-31.234-5.216-48.39-8.17v.63c11.57 5.473 24.685 14.72 32.936 24.509 3.001 3.56 6.68 7.694 6.655 12.569-3.375-2.736-9.755-9.883-14.454-9.161-3.748.574-4.986 4.735-5.483 7.903-1.338 8.555-1.43 17.742-1.43 26.395-3.601-3.144-3.143-7.523-3.143-11.94-4.471 2.945-9.3 6.639-15.081 5.48-5.849-1.172-11.673-8.374-15.713-12.392-7.98-7.939-16.828-15.77-28.279-17.331-5.973-.813-24.058.027-15.974 9.148.833.94 1.667 1.917 2.802 2.508 4.255 2.219 13.337-.61 18.198-.61v.628l-15.71 3.143c6.313 13.228 19.981 1.369 27.652 9.426-5.241-1.549-14.24-1.549-19.482 0l8.78 11.312 4.034 5.277 14.838 1.636v.629H57.533c.779 6.92 8.783 5.036 13.825 4.399v.628l-10.684 1.884c1.678 3.896 5.779 15.445 9.672 17.217 3.047 1.384 7.282-1.293 9.81-2.762-3.47 6.326-9.67 3.776-6.284 12.569l10.055-5.027c-2.24 2.526-6.008 4.525-7.52 7.55-1.748 3.491 1.202 9.817 2.493 13.188l10.054-7.541-9.57 10.741.772 11.254c8.424-3.507 15.25-9.732 18.845-18.224 1.491-3.523 1.646-7.932 3.423-11.228 1.3-2.411 5.054-2.022 5.81-4.625 1.446-4.987-1.631-9.035.83-14.312h.63l1.885 10.054c6.348-1.782 10.131-11.766 11.94-17.596h1.257c1.753 8.063-5.544 13.288-8.17 20.111 4.436 1.026 12.415 3.178 11.94 8.798l-15.711-5.656 11.941 26.394h.629c5.749-8.688 11.304-22.507 19.481-28.91 2.856 9.271-7.038 16.807-10.683 24.511 5.389-1.473 15.16-8.709 20.111-5.655-6.926 2.883-13.08 7.038-18.167 12.568-1.673 1.819-4.735 4.872-4.699 7.542.038 2.73 3.394 6.032 4.907 8.17 5.492 7.758 12.131 15.923 20.473 20.738 3.412-6.488 6.297-12.977 8.09-20.112.821-3.273.69-7.683 3.849-9.426 3.076 17.34-9.325 36.451-13.197 52.791 11.814-10.02 18.949-26.221 33.935-32.681-.343 8.08-13.332 12.357-14.028 21.36-.244 3.157 3.682 4.801 5.86 6.309 6.094 4.221 11.251 8.915 18.224 11.735 2.509 1.014 4.878 3.146 7.209.713 4.236-4.423 4.599-13.021 3.924-18.748-.429-3.628-1.936-9.175.808-11.941l4.375 25.766-2.491 30.166h.63c5.875-14.931 11.08-31.159 22.623-42.735.07 7.875-8.84 18.952-11.94 26.394 11.785 5.514 25.595 8.843 38.336 11.314.997-7.894.706-15.525-1.356-23.253-.922-3.462-3.952-8.09-1.787-11.314 7.795 16.775 16.328 33.788 16.34 52.791h.628c.007-11.525 2.017-23.28 4.274-34.565.413-2.061 1.006-10.553 3.917-10.553 3.178 0 1.934 5.087 1.619 6.782-1.43 7.715-3.165 15.472-4.153 23.253l27.022-.675 9.409-1.677-.251-9.589-12.929-22.623c4.917-1.122 9.774 7.629 12.058 11.311 8.322 13.423 13.929 30.529 17.48 45.877h.628c-1.642-20.773-7.056-39.94-4.399-60.959 6.117 2.456 2.82 17.932 3.593 23.881.249 1.914-.037 6.915 2.261 7.675 2.152.709 5.921-1.142 7.971-1.811 7.397-2.411 14.309-5.889 21.369-9.118 2.696-1.235 6.518-2.741 6.711-6.176.681-12.105-10.208-15.546-17.396-21.992 6.343-.66 10.972 3.501 15.712 7.18 7.077 5.494 14.049 11.731 19.834 18.586 3.333 3.95 5.8 9.249 9.702 12.568-2.15-6.749-7.333-13.088-10.527-19.48-6.192-12.391-10.974-25.813-12.726-39.593h.63l11.941 31.423c6.49-2.207 11.758-9.917 15.953-15.083 1.89-2.323 4.228-4.462 4.157-7.542 10.55-3.794-2.979-12.166-5.029-15.711 7.307-1.098 13.881 5.972 20.739 7.542-3.057-6.551-8.375-15.109-6.912-22.625h1.256l4.399 12.569c11.01-10.178 24.044-20.623 32.239-33.307 11.575-17.914 11.501-40.571 3.405-59.703-2.218-5.238-4.33-12.667-8.238-16.874-5.562-5.989-10.375 4.09-11.066 8.704 2.732.41 5.232 1.329 7.538 2.891 8.522 5.769 8.962 15.879 5.374 24.761-1.52 3.766-4.337 7.132-4.608 11.312-.336 5.178 2.449 10.098 3.344 15.083 1.487 8.274-2.563 17.084-8.506 22.565-5.514 5.086-13.242 7.891-20.738 6.782-3.468-.512-7.156-3.786-10.681-2.483-5.529 2.043-6.603 10.407-10.058 14.613-1.559-9.448 5.614-14.888 7.111-23.252.779-4.35-2.406-11.551-3.762-15.712-1.072-3.291-2.73-12.552-7.742-10.666-3.236 1.22-4.861 4.895-6.759 7.524-4.476 6.206-8.548 13.805-16.5 15.712 2.923-7.543 10.844-13.853 15.276-20.74 8.794-13.659 18.119-36.752 6.475-51.531-3.51-4.453-9.141-7.6-14.209-9.98-6.975-3.276-14.648-4.294-21.995-6.361v-1.256l8.798-1.257-1.886-13.826-5.657 1.886c.065-23.009 23.092-35.561 38.964-47.762l-2.901 8.169 7.833 11.941 15.807 24.509-6.284-.628c1.211 9.001 3.363 17.435.188 26.394-2.039 5.759-7.056 10.56-8.576 16.339-.767 2.915.63 5.87.633 8.798.004 4.087-1.4 8.013-2.301 11.942 11.257-5.357 13.408-21.779 25.139-25.767-.958-5.562-3.32-10.583-3.715-16.339-.851-12.418 1.603-24.695-.331-37.078-2.118-13.553-8.018-25.695-12.923-38.336l5.657 2.514c1.301-8.692 8.465-13.391 13.197-20.11-7.266 2.644-18.425 11.651-26.394 6.907-5.497-3.272-7.492-10.474-13.197-13.192l-7.543 30.166h-.628c-3.315-13.928 3.805-27.102 6.913-40.221-9.577 7.747-16.266 17.521-29.536 19.482l18.224-13.254 4.182-6.118-5.439-4.7-13.826-9.864 6.285 1.257 2.513-20.111h-.629a37.253 37.253 0 0 1-5.083 6.915c-2.598 2.802-6.006 7.288-9.732 8.568-7.311 2.513-17.407-6-24.149-7.942v28.91c-6.419-1.073-5.584-7.555-5.652-13.197-.149-12.424-.536-24.646-.003-37.08h-.628c-1.882 13.972-6.463 33.882-20.112 40.849 3.908-6.271 7.623-11.63 9.693-18.852.61-2.129 2.397-5.765.153-7.454-6.333-4.768-16.045-.693-21.249-8.268-5.114-7.442-1.758-16.927-4.935-24.499Z" fill="url(#a)"/>
<path d="m253.608 72.494.628.628-.628-.628Zm-.629 1.885.629.629-.629-.629Z" fill="#0F0D06"/>
<path d="m328.393 76.893.628.628-.628-.628Z" fill="#0E0B05"/>
<path d="m288.8 78.15.629.628-.629-.628Z" fill="#0F0D06"/>
<path d="m327.764 79.407.629.628-.629-.628Z" fill="#0D0B05"/>
<path d="m288.172 80.035.629.629-.629-.629Z" fill="#0F0D06"/>
<path d="m184.478 85.063.629.628-.629-.628Z" fill="#fff"/>
<path d="m285.03 85.063.628.628-.628-.628Zm-.629.628.629.629-.629-.629Zm14.455.629.628.628-.628-.628Zm-86.097.628.628.629-.628-.629Zm87.354 0 .628.629-.628-.629Zm-113.75.629.63.628-.63-.628Zm30.795 0 .628.628-.628-.628Zm84.211 0 .629.628-.629-.628Z" fill="#0F0D06"/>
<path d="m219.043 89.462.628.628-.628-.628Zm56.56 0 .629.628-.629-.628Z" fill="#0F0E07"/>
<path d="m374.898 89.462.628.628-.628-.628Z" fill="#0D0B05"/>
<path d="m374.478 90.51.21.418-.21-.418Z" fill="#fff"/>
<path d="m186.364 90.719.628.628-.628-.628Zm128.831 0 .629.628-.629-.628Z" fill="#0F0D06"/>
<path d="m214.015 93.233.629.628-.629-.628Z" fill="#0F0E07"/>
<path d="m373.64 93.233.63.628-.63-.628Z" fill="#0E0B05"/>
<path d="m189.506 98.889.629.628-.629-.628Zm3.142 0 .629.628-.629-.628Zm.629 1.256.628.629-.628-.629Z" fill="#0F0E07"/>
<path d="m286.287 102.66-10.055 45.247c7.745-4.72 9.382-21.93 10.055-30.165h.628c1.346 7.245 2 14.505 4.948 21.367 1.168 2.719 2.45 6.338 5.736 6.285l-8.046-28.28-3.266-14.454Z" fill="#000"/>
<path d="m263.663 103.288.628.628-.628-.628Zm-53.418 1.257.628.628-.628-.628Zm-3.142 2.513.628.629-.628-.629Zm-3.143 1.257.629.629-.629-.629Zm80.441 1.886.629.628-.629-.628Z" fill="#0F0E07"/>
<path d="M224.699 110.83c.133 16.068 8.08 30.695 5.028 47.133 3.014-1.844 3.1-6.15 3.14-9.427.09-7.604-1.234-15.057-1.255-22.624h.628c2.189 7.595 8.126 22.699 16.968 23.88-1.061-4.082-4.402-7.172-6.639-10.683-4.97-7.801-9.835-23.543-17.87-28.28v.001Z" fill="#000"/>
<path d="m199.561 111.458.629.628-.629-.628Z" fill="#0F0E07"/>
<path d="m225.956 111.458.628.628-.628-.628Z" fill="#0F0E08"/>
<path d="m312.053 112.086.628.628-.628-.628Z" fill="#0F0D06"/>
<path d="m283.773 113.343.628.628-.628-.628Zm30.794 0 .628.628-.628-.628Z" fill="#0F0E07"/>
<path d="m367.985 113.343.628.628-.628-.628Z" fill="#0F0D06"/>
<path d="m313.938 113.971.629.629-.629-.629Zm-3.77.629.628.628-.628-.628Zm3.142 0 .628.628-.628-.628Z" fill="#0F0E07"/>
<path d="m228.47 115.228.628.629-.628-.629Zm41.477.629.629.628-.629-.628Z" fill="#0F0E08"/>
<path d="m371.755 115.857.629.628-.629-.628Z" fill="#0D0B05"/>
<path d="m310.168 117.114.628.628-.628-.628Z" fill="#0F0E07"/>
<path d="M353.53 117.742c-6.987 10.973-15.316 25.944-25.766 33.936v.628c7.924-1.413 16.487-11.427 18.854-18.853h.628c-.092 11.179-5.231 23.03-.628 33.936h.628c3.344-11.313 1.602-24.658 4.48-36.45.903-3.698 4.23-9.862 1.804-13.197Z" fill="#000"/>
<path d="m191.391 118.999.629.628-.629-.628Z" fill="#0F0E07"/>
<path d="m230.983 119.627.629.629-.629-.629Zm-34.564 1.257.628.629-.628-.629Zm-4.4.629.63.628-.63-.628Zm14.455 0 .629.628-.629-.628Zm83.583 0 .629.628-.629-.628Zm-5.027 1.257.628.628-.628-.628Z" fill="#0F0E08"/>
<path d="m353.53 122.77.629.628-.629-.628Z" fill="#0F0D06"/>
<path d="m391.866 123.398.628.628-.628-.628Zm-235.668.628.629.629-.629-.629Z" fill="#fff"/>
<path d="m233.497 124.026.629.629-.629-.629Z" fill="#0F0E08"/>
<path d="m391.866 124.026.628.629-.628-.629Z" fill="#0E0B05"/>
<path d="m348.503 125.283.628.629-.628-.629Z" fill="#0F0E07"/>
<path d="m211.502 126.54.628.629-.628-.629Z" fill="#0F0E08"/>
<path d="m329.65 126.54.628.629-.628-.629Z" fill="#0F0E07"/>
<path d="m217.158 127.797.628.629-.628-.629Z" fill="#0E0D08"/>
<path d="m217.786 128.426.629.628-.629-.628Z" fill="#0F0E08"/>
<path d="m345.989 128.426.629.628-.629-.628Z" fill="#0F0E07"/>
<path d="m218.415 129.054.628.628-.628-.628Z" fill="#010101"/>
<path d="m166.882 129.682.628.629-.628-.629Z" fill="#0F0E07"/>
<path d="m386.838 129.682.628.629-.628-.629Zm-.628.629.628.628-.628-.628Zm-262.69 1.257.628.628-.628-.628Z" fill="#0F0D06"/>
<path d="m159.97 131.568.628.628-.628-.628Z" fill="#0F0E07"/>
<path d="m234.754 132.196.629.629-.629-.629Z" fill="#0E0D08"/>
<path d="m347.246 132.825.628.628-.628-.628Z" fill="#0F0E07"/>
<path d="m377.411 132.825.629.628-.629-.628Z" fill="#0F0D06"/>
<path d="m383.696 132.825.628.628-.628-.628Z" fill="#0E0B05"/>
<path d="m346.618 133.453.628.629-.628-.629Z" fill="#0F0E07"/>
<path d="m229.098 135.967.629.628-.629-.628Z" fill="#0E0D08"/>
<path d="m387.466 136.595.629.629-.629-.629Z" fill="#0F0D06"/>
<path d="m232.24 137.852.629.629-.629-.629Z" fill="#0E0D08"/>
<path d="m369.241 138.48.629.63-.629-.63Z" fill="#0E0B05"/>
<path d="m242.296 139.11.628.628-.628-.628Z" fill="#0E0D08"/>
<path d="m398.778 140.366.629.628-.629-.628Z" fill="#0F0D06"/>
<path d="m432.715 140.366.628.628-.628-.628Z" fill="#fff"/>
<path d="m243.552 140.994.629.629-.629-.629Z" fill="#0E0D08"/>
<path d="m341.59 140.994.628.629-.628-.629Z" fill="#0F0E07"/>
<path d="m432.715 140.994.628.629-.628-.629Z" fill="#0E0B05"/>
<path d="m430.2 141.623.63.628-.63-.628Zm1.886 0 .629.628-.629-.628Z" fill="#0D0B05"/>
<path d="m340.333 142.251.628.629-.628-.629Z" fill="#0F0E07"/>
<path d="m431.458 142.251.628.629-.628-.629Z" fill="#0E0B05"/>
<path d="m240.41 142.88.629.628-.629-.628Z" fill="#0E0D08"/>
<path d="M312.053 142.88c-3.71 8.37-5.522 16.146-13.197 21.995v1.257c5.516 1.453 9.36-5.47 10.683-10.055h.629c.545 4.223 1.059 13.003 5.656 14.454l-3.086-14.454-.685-13.197Z" fill="#000"/>
<path d="m400.664 142.88.628.628-.628-.628Z" fill="#0F0D06"/>
<path d="m430.83 142.88.628.628-.628-.628Z" fill="#0D0B05"/>
<path d="M177.566 143.508c1.358 15.458 22.149 25.905 19.481 42.735 3.343-1.954 2.465-5.596 1.342-8.799-2.32-6.623-6.203-12.417-8.883-18.853 6.014 5.489 14.9 11.695 23.253 8.17l-13.188-5.465-22.005-17.788Z" fill="#000"/>
<path d="m430.2 143.508.63.629-.63-.629Z" fill="#0E0B05"/>
<path d="m429.572 144.137.629.628-.629-.628Z" fill="#0D0B05"/>
<path d="m389.98 144.765.629.629-.629-.629Z" fill="#0F0D06"/>
<path d="m423.916 144.765.629.629-.629-.629Z" fill="#0D0B05"/>
<path d="m428.944 144.765.628.629-.628-.629Z" fill="#0E0B05"/>
<path d="m242.296 145.394.628.628-.628-.628Z" fill="#0E0D08"/>
<path d="m337.82 145.394.628.628-.628-.628Z" fill="#0F0E07"/>
<path d="m428.315 145.394.629.628-.629-.628Z" fill="#0D0B05"/>
<path d="m177.566 146.022.628.628-.628-.628Zm159.625 0 .628.628-.628-.628Z" fill="#0F0E08"/>
<path d="m427.688 146.022.627.628-.627-.628Z" fill="#0E0B05"/>
<path d="m181.965 146.65.628.629-.628-.629Z" fill="#0F0E07"/>
<path d="m427.059 146.65.628.629-.628-.629Z" fill="#0D0B05"/>
<path d="m146.772 147.279.628.628-.628-.628Z" fill="#0F0E07"/>
<path d="m335.934 147.279.628.628-.628-.628Zm-.629.628.629.629-.629-.629Z" fill="#0F0E08"/>
<path d="m138.602 148.536.628.628-.628-.628Z" fill="#0F0E07"/>
<path d="m245.438 148.536.628.628-.628-.628Z" fill="#0E0D08"/>
<path d="M264.291 148.536c-1.9 6.255-7.236 18.468-5.027 24.51h1.256l4.4-15.083h.628c1.553 5.688 3.18 14.316 10.055 15.082l-10.055-24.51-1.257.001Z" fill="#000"/>
<path d="m139.23 149.164.629.629-.629-.629Z" fill="#0F0E08"/>
<path d="m424.545 149.164.628.629-.628-.629Z" fill="#0D0B05"/>
<path d="m139.859 149.793.628.628-.628-.628Z" fill="#0F0E07"/>
<path d="m159.97 149.793.628.628-.628-.628Zm169.68 0 .628.628-.628-.628Z" fill="#0F0E08"/>
<path d="m140.487 150.421.629.629-.629-.629Z" fill="#0F0E07"/>
<path d="m151.8 150.421.628.629-.628-.629Z" fill="#0F0E08"/>
<path d="m308.91 150.421.63.629-.63-.629Zm3.771 0 .629.629-.629-.629Z" fill="#0E0D08"/>
<path d="m329.021 150.421.628.629-.628-.629Z" fill="#0F0E08"/>
<path d="m141.116 151.05.628.628-.628-.628Z" fill="#0F0E07"/>
<path d="m328.393 151.05.628.628-.628-.628Zm-140.144 1.256.629.629-.629-.629Z" fill="#0E0D08"/>
<path d="m344.732 152.306.629.629-.629-.629Z" fill="#0F0E08"/>
<path d="m181.965 154.192.628.628-.628-.628Zm125.06.628.629.629-.629-.629Z" fill="#0E0D08"/>
<path d="m161.854 155.449.629.628-.629-.628Zm-15.71.628.628.629-.628-.629Z" fill="#0F0E08"/>
<path d="m192.648 156.077.629.629-.629-.629Zm37.079 0 .628.629-.628-.629Z" fill="#0E0D08"/>
<path d="m387.466 156.077.629.629-.629-.629Z" fill="#0F0D06"/>
<path d="m230.983 157.334.629.629-.629-.629Zm33.937.629.628.628-.628-.628Zm45.248 0 .628.628-.628-.628Zm-123.804 2.513.628.629-.628-.629Z" fill="#0E0D08"/>
<path d="m418.26 160.476.629.629-.629-.629Z" fill="#0D0B05"/>
<path d="m194.534 162.362.628.628-.628-.628Z" fill="#0E0D08"/>
<path d="m415.118 162.362.628.628-.628-.628Z" fill="#0D0B05"/>
<path d="m188.25 162.99.628.628-.628-.628Zm116.262.628.628.629-.628-.629Z" fill="#0E0D08"/>
<path d="m222.185 164.247 3.143 26.395h1.256l-.628-18.854c4.098 2.853 9.643 9.888 15.083 7.542-2.1-2.274-5.14-2.673-7.54-4.615-3.9-3.157-5.956-10.046-11.314-10.468Z" fill="#000"/>
<path d="m192.648 165.504.629.628-.629-.628Zm106.208.628.628.629-.628-.629Zm-108.093.629.628.628-.628-.628Zm67.872 0 .629.628-.629-.628Z" fill="#0E0D08"/>
<path d="m345.989 166.76.629.63-.629-.63Zm1.257 0 .628.63-.628-.63Z" fill="#0F0E08"/>
<path d="M360.443 168.018c-6.629 6.647-12.166 11.213-21.367 13.825v1.257c5.443 1.564 10.708-1.456 15.083-4.399-.716 3.69-5.421 13.349-1.886 15.711l6.036-18.225 2.134-8.169Z" fill="#000"/>
<path d="m227.841 168.646.629.628-.629-.628Zm-71.643.628.629.629-.629-.629Zm101.18 0 .629.629-.629-.629Zm58.446 0 .628.629-.628-.629Z" fill="#0E0D08"/>
<path d="m358.558 169.274.628.629-.628-.629Z" fill="#0F0D06"/>
<path d="m113.464 170.531.629.629-.629-.629Z" fill="#0F0E07"/>
<path d="m273.718 170.531.628.629-.628-.629Z" fill="#0E0D08"/>
<path d="m147.4 171.16.629.628-.629-.628Z" fill="#0F0E08"/>
<path d="m418.889 171.16.628.628-.628-.628Z" fill="#0D0B05"/>
<path d="m193.277 171.788.628.629-.628-.629Zm2.514 0 .628.629-.628-.629Zm64.73 0 .628.629-.628-.629Zm-109.35.629.628.628-.628-.628Z" fill="#0E0D08"/>
<path d="m354.787 173.674.629.628-.629-.628Zm3.77.628.63.629-.63-.629Z" fill="#0F0E08"/>
<path d="m398.15 174.302.628.629-.628-.629Z" fill="#0F0D06"/>
<path d="m111.579 174.93.628.629-.628-.629Z" fill="#010101"/>
<path d="m230.983 175.559.629.628-.629-.628Zm-33.307.628.628.629-.628-.629Zm37.707 0 .628.629-.628-.629Z" fill="#0E0D08"/>
<path d="m113.464 176.816.629.628-.629-.628Z" fill="#0F0E07"/>
<path d="m350.388 176.816.629.628-.629-.628Z" fill="#0F0E08"/>
<path d="m233.497 177.444.629.629-.629-.629Zm6.913.629.629.628-.629-.628Z" fill="#0E0D08"/>
<path d="m352.902 178.701.628.629-.628-.629Z" fill="#0F0E08"/>
<path d="m236.64 179.33.628.628-.628-.628Zm1.256.628.629.628-.629-.628Zm106.208 0 .628.628-.628-.628Z" fill="#0E0D08"/>
<path d="m384.324 179.958.629.628-.629-.628Zm-267.718.628.629.629-.629-.629Z" fill="#0F0E07"/>
<path d="M367.355 208.867c14.38-3.463 30.103-5.509 44.621-2.514-2.163-7.507-7.767-13.673-12.738-19.482-1.701-1.986-3.868-5.66-6.747-5.877-3.409-.259-6.384 3.028-8.795 4.928-7.059 5.562-13.144 14.5-16.339 22.944l-.002.001Z" fill="url(#b)"/>
<path d="m347.874 181.843.629.629-.629-.629Z" fill="#0E0D08"/>
<path d="m381.81 181.843.629.629-.629-.629Z" fill="#0F0E07"/>
<path d="m252.98 182.472-3.772 19.482c3.155-2.39 3.887-10.02 4.4-13.826l5.656 6.284c-.66-4.236-3.135-9.03-6.285-11.94h.001Z" fill="#000"/>
<path d="m339.076 183.1.629.629-.629-.629Z" fill="#0E0D08"/>
<path d="m352.902 183.1.628.629-.628-.629Zm43.363.629.628.628-.628-.628Z" fill="#0F0E08"/>
<path d="m314.567 184.357-11.94 11.94 11.311-8.17 1.886 11.313c2.197-3.222 1.045-12.047-1.257-15.083Zm-133.23 1.886v.628c5.296 5.345 9.655 12.707 12.962 19.482 1.82 3.73 1.304 7.84 5.262 10.055-.315-7.348-3.457-12.919-6.284-19.482 4.451 2.598 10.418 6.48 15.71 5.028v-1.257c-7.13-3.17-12.652-5.867-18.852-10.805-2.642-2.104-5.345-4.825-8.799-3.65l.001.001Z" fill="#000"/>
<path d="m383.696 185.614.628.629-.628-.629Zm-127.575 1.257.629.628-.629-.628Zm-74.156.628.628.629-.628-.629Zm74.785.629.628.628-.628-.628Z" fill="#0E0D08"/>
<path d="m400.035 188.128.629.628-.629-.628Z" fill="#0F0E08"/>
<path d="m254.864 188.756.629.629-.629-.629Z" fill="#0E0D08"/>
<path d="m374.898 188.756.628.629-.628-.629Z" fill="#0F0E08"/>
<path d="m406.32 188.756.628.629-.628-.629Z" fill="#0F0D06"/>
<path d="m121.005 189.385.629.628-.629-.628Z" fill="#0F0E08"/>
<path d="m308.91 189.385.63.628-.63-.628Zm5.028 0 .629.628-.629-.628Zm37.079 0 .628.628-.628-.628Zm-160.882.628.628.629-.628-.629Zm62.844 0 .629.629-.629-.629Z" fill="#0E0D08"/>
<path d="m425.173 190.013.629.629-.629-.629Z" fill="#0F0D06"/>
<path d="m378.04 190.642.628.628-.628-.628Z" fill="#0F0E08"/>
<path d="m309.54 191.27.628.629-.628-.629Z" fill="#0E0D08"/>
<path d="M139.23 191.899c.59 5.3 4.928 7.278 8.799 10.205 5.311 4.017 10.247 8.367 14.306 13.675 2.643 3.458 4.272 9.436 7.69 11.941-.736-9.24-6.188-20.115-15.083-23.881v-.628c9.045 1.754 18.052 5.116 27.023 1.256v-1.256l-10.684-.42-32.051-10.892Z" fill="#000"/>
<path d="m185.735 191.899.629.628-.629-.628Zm119.405.628.629.628-.629-.628Zm47.133 0 .629.628-.629-.628Zm-158.368.628.629.629-.629-.629Zm110.607 0 .628.629-.628-.629Z" fill="#0E0D08"/>
<path d="m409.462 193.155.629.629-.629-.629Z" fill="#0F0D06"/>
<path d="m370.498 193.784.629.628-.629-.628Z" fill="#0F0E08"/>
<path d="m431.457 193.784 1.258 15.083 13.825 1.885c-2.314-6.104-8.917-14.577-15.081-16.968h-.002Z" fill="url(#c)"/>
<path d="m259.264 194.412.628.629-.628-.629Z" fill="#0E0D08"/>
<path d="m279.374 194.412-5.656 10.684 6.284-6.913 3.77 6.284-4.398-10.055Z" fill="#000"/>
<path d="m351.645 194.412.628.629-.628-.629Z" fill="#0E0D08"/>
<path d="m431.458 194.412.628.629-.628-.629Z" fill="#0D0B05"/>
<path d="m187.62 195.04.63.63-.63-.63Zm8.799 0 .628.63-.628-.63Z" fill="#0E0D08"/>
<path d="m405.691 195.04.629.63-.629-.63Z" fill="#0F0D06"/>
<path d="m119.749 195.67.628.628-.628-.628Z" fill="#0F0E08"/>
<path d="m277.488 196.298.629.628-.629-.628Zm-77.927.628.629.629-.629-.629Zm-3.77 1.257.628.628-.628-.628Zm120.661 0 .629.628-.629-.628Zm120.662 0 .628.628-.628-.628Zm-157.112.628.629.629-.629-.629Zm157.74 0 .629.629-.629-.629Zm-278.401.629.628.628-.628-.628Zm279.03 0 .628.628-.628-.628Zm-292.856.628.628.629-.628-.629Zm137.001 0 .628.629-.628-.629Z" fill="#0E0D08"/>
<path d="m118.492 201.325.628.629-.628-.629Z" fill="#0F0E08"/>
<path d="m147.4 201.325.629.629-.629-.629Z" fill="#0E0D08"/>
<path d="m371.127 201.325.628.629-.628-.629Z" fill="#0D0B05"/>
<path d="m249.837 201.954.628.628-.628-.628Zm26.395.628.628.629-.628-.629Z" fill="#0E0D08"/>
<path d="m117.863 203.839.629.628-.629-.628Z" fill="#0F0E08"/>
<path d="m159.34 203.839.63.628-.63-.628Zm37.079 0 .628.628-.628-.628Zm-3.142.628.628.629-.628-.629Z" fill="#0E0D08"/>
<path d="m369.241 204.467.629.629-.629-.629Z" fill="#0D0B05"/>
<path d="m396.265 204.467.628.629-.628-.629Z" fill="#0F0E08"/>
<path d="m407.577 205.096.628.628-.628-.628Z" fill="#0D0B05"/>
<path d="m153.685 206.353.628.628-.628-.628Zm40.849.628.628.629-.628-.629Z" fill="#0E0D08"/>
<path d="m445.283 208.238.629.629-.629-.629Z" fill="#0D0B05"/>
<path d="m339.705 209.495-10.684 8.17 9.427-5.028-1.257 7.542c2.673-1.865 3.67-7.723 2.514-10.684Z" fill="#000"/>
<path d="M402.55 247.202c4.766-2.271 7.048-7.702 8.335-12.57 1.585-5.989 3.643-21.783-3.964-24.758-4.185-1.636-11.175.25-15.684.25-4.083 0-12.794-.623-15.96 2.421-2.922 2.81-.738 13.405 1.414 16.259 2.235 2.965 7.553 3.553 10.775 5.063 6.424 3.012 11.593 7.073 15.083 13.335h.001Z" fill="#fff"/>
<path d="m420.146 210.123.628.629-.628-.629Z" fill="#0F0D06"/>
<path d="m442.77 210.123.628.629-.628-.629Zm3.77 0-.628 1.257.628-1.257Z" fill="#0D0B05"/>
<path d="m408.834 210.752.628.628-.628-.628Z" fill="#020202"/>
<path d="m446.54 210.752.629.628-.629-.628Z" fill="#fff"/>
<path d="m121.005 211.38.629.629-.629-.629Z" fill="#0F0E08"/>
<path d="m335.934 211.38.628.629-.628-.629Z" fill="#0E0D08"/>
<path d="m104.037 212.009.629.628-.629-.628Z" fill="#0F0E07"/>
<path d="m374.27 212.009.628.628-.628-.628Zm35.192 0 .629.628-.629-.628Zm-210.53.628.63.629-.63-.629Zm138.887 0 .629.629-.629-.629Z" fill="#0E0D08"/>
<path d="m107.808 213.266.629.628-.629-.628Z" fill="#0F0E08"/>
<path d="m332.792 213.266.628.628-.628-.628Z" fill="#0E0D08"/>
<path d="m410.09 213.266.629.628-.629-.628Z" fill="#020202"/>
<path d="M431.458 213.266v5.656c11.395-4.122 13.977 12.55 1.885 11.94l2.514 14.454c8.42-3.93 12.3-22.88 5.384-29.965-2.086-2.137-6.958-1.862-9.783-2.085Z" fill="#fff"/>
<path d="m100.267 213.894.628.629-.628-.629Z" fill="#0F0E07"/>
<path d="m165.625 214.523.629.628-.629-.628Zm169.052 0 .628.628-.628-.628Zm31.422 0 .629.628-.629-.628Z" fill="#0E0D08"/>
<path d="m410.719 214.523.628.628-.628-.628Zm30.165 0 .629.628-.629-.628Z" fill="#020202"/>
<path d="m102.152 215.151.629.628-.629-.628Z" fill="#0F0E07"/>
<path d="m364.842 215.151.629.628-.629-.628Zm-166.538.628.629.629-.629-.629Z" fill="#0E0D08"/>
<path d="M399.407 215.78c-1.288 1.323-3.165 2.285-4.112 3.904-6.642 11.356 18.46 11.65 11.367-.63-.807-1.397-2.24-2.309-3.484-3.275l-3.771 1.886v-1.885Z" fill="#000"/>
<path d="M400.035 215.78v.628h2.514l-2.514-.628Z" fill="#020202"/>
<path d="m411.347 215.78.629.628-.629-.628Z" fill="#010101"/>
<path d="m104.037 216.408.629.628-.629-.628Z" fill="#0F0E07"/>
<path d="m397.73 216.827.21.419-.21-.419Z" fill="#020202"/>
<path d="m398.57 216.617.418.21-.418-.21Zm.837.42v.628l3.142-.629-3.142.001Z" fill="#010101"/>
<path d="m403.806 216.408.628.628-.628-.628Z" fill="#020202"/>
<path d="m396.893 217.036.629.629-.629-.629Z" fill="#010101"/>
<path d="m405.062 217.036.629.629-.629-.629Z" fill="#050505"/>
<path d="m105.923 217.665.628.628-.628-.628Z" fill="#0F0E07"/>
<path d="m396.265 217.665.628.628-.628-.628Z" fill="#010101"/>
<path d="m433.343 217.665 1.885 1.257v-.629l-1.885-.628Z" fill="#020202"/>
<path d="m433.971 217.665.629.628-.629-.628Z" fill="#050505"/>
<path d="m434.6 217.665.628.628-.628-.628Z" fill="#010101"/>
<path d="m435.857 217.665.628.628-.628-.628Z" fill="#020202"/>
<path d="m436.485 217.665.629.628-.629-.628Z" fill="#010101"/>
<path d="m167.51 218.293.629.629-.629-.629Z" fill="#0E0D08"/>
<path d="M267.433 218.293c0 3.2-.617 6.444 2.514 8.17v-6.284l7.541 2.513-10.055-4.399Z" fill="#000"/>
<path d="m268.69 218.293.629.629-.629-.629Z" fill="#0E0D08"/>
<path d="m432.086 218.293.629.629-.629-.629Z" fill="#020202"/>
<path d="m432.715 218.293 1.256 1.257v-1.257h-1.256Zm3.142 0 .628.629-.628-.629Z" fill="#010101"/>
<path d="m270.576 218.922.628.628-.628-.628Z" fill="#0E0D08"/>
<path d="m395.008 218.922.628.628-.628-.628Z" fill="#010101"/>
<path d="m430.2 218.922.63.628-.63-.628Z" fill="#0F0E08"/>
<path d="m430.83 218.922.628.628-.628-.628Z" fill="#050505"/>
<path d="m305.769 227.091 3.142-5.655 3.77 2.513c-2.762-7.391-6.87-2.097-6.912 3.142Z" fill="#000"/>
<path d="m406.948 219.55.629.629-.629-.629Zm23.253 0 .628.629-.628-.629Z" fill="#010101"/>
<path d="M229.727 220.179c1.11 4.057 2.852 7.521 6.284 10.055l-3.77-8.17 7.54.628c-1.946-3.53-6.507-2.513-10.054-2.513Z" fill="#000"/>
<path d="m238.525 220.179.628.628-.628-.628Zm31.422 0 .629.628-.629-.628Z" fill="#0E0D08"/>
<path d="m429.572 220.179.629.628-.629-.628Z" fill="#fff"/>
<path d="m110.322 220.807.628.629-.628-.629Z" fill="#0F0E08"/>
<path d="m310.796 220.807.629.629-.629-.629Z" fill="#0E0D08"/>
<path d="m428.944 220.807.628.629-.628-.629Z" fill="#fff"/>
<path d="m272.46 221.436.63.628-.63-.628Z" fill="#0E0D08"/>
<path d="m197.676 223.95 8.798 10.683-5.027-8.798 7.54-1.257-.628-2.514-10.683 1.886Z" fill="#000"/>
<path d="m232.24 222.064.629.628-.629-.628Z" fill="#0E0D08"/>
<path d="m407.577 222.064.628.628-.628-.628Z" fill="#050505"/>
<path d="M428.315 222.064v1.885h.629l-.629-1.885Z" fill="#fff"/>
<path d="m230.355 222.692.628.629-.628-.629Z" fill="#0E0D08"/>
<path d="m428.315 223.95.629.628-.629-.628Z" fill="#050505"/>
<path d="m169.396 224.578.628.628-.628-.628Zm28.28 0 .628.628-.628-.628Z" fill="#0E0D08"/>
<path d="M428.315 224.578v1.885h.629l-.629-1.885Z" fill="#fff"/>
<path d="m406.53 225.625.209.419-.209-.419Zm34.983-.419.628.629-.628-.629Z" fill="#010101"/>
<path d="m168.139 225.835.628.628-.628-.628Zm99.923 0 .628.628-.628-.628Zm-150.827.628.628.628-.628-.628Zm115.005 0 .629.628-.629-.628Z" fill="#0E0D08"/>
<path d="m395.636 226.463.629.628-.629-.628Z" fill="#050505"/>
<path d="m117.863 227.091.629.629-.629-.629Z" fill="#0F0E08"/>
<path d="m428.944 227.091.628.629-.628-.629Z" fill="#fff"/>
<path d="m404.434 227.72.629.628-.629-.628Z" fill="#010101"/>
<path d="m428.944 227.72.628.628-.628-.628Z" fill="#050505"/>
<path d="m398.15 228.348.628.629-.628-.629Z" fill="#020202"/>
<path d="m398.778 228.348.629.629-.629-.629Zm4.19.21.419.21-.419-.21Z" fill="#010101"/>
<path d="m429.572 228.348.629.629-.629-.629Z" fill="#fff"/>
<path d="m439.837 228.768.21.418-.21-.418Z" fill="#010101"/>
<path d="m440.256 228.348.628.629-.628-.629Z" fill="#050505"/>
<path d="m119.749 228.977.628.628-.628-.628Z" fill="#010101"/>
<path d="m400.664 228.977.628.628-.628-.628Z" fill="#050505"/>
<path d="m430.2 228.977.63.628-.63-.628Z" fill="#fff"/>
<path d="m376.783 229.605.628.629-.628-.629Z" fill="#010101"/>
<path d="m430.83 229.605.628.629-.628-.629Z" fill="#fff"/>
<path d="m432.086 229.605.629.629-.629-.629Z" fill="#010101"/>
<path d="M134.203 241.546v1.257l18.225 6.284c-.371-4.776-6.547-6.2-10.684-6.913l12.57-11.312c-6.68-.783-14.698 7.356-20.111 10.684Z" fill="#000"/>
<path d="m431.458 230.234.628.628-.628-.628Z" fill="#050505"/>
<path d="m432.086 230.234.629.628-.629-.628Z" fill="#fff"/>
<path d="m432.715 230.234.628.628-.628-.628Z" fill="#020202"/>
<path d="M435.228 230.234v.628h1.886l-1.886-.628Z" fill="#010101"/>
<path d="m121.634 230.862.628.629-.628-.629Z" fill="#0F0E08"/>
<path d="m411.347 230.862.629.629-.629-.629Zm23.881 0 .629.629-.629-.629Z" fill="#0E0D08"/>
<path d="m381.81 231.49.629.63-.629-.63Z" fill="#010101"/>
<path d="M160.598 239.032v1.257l13.825 4.968 8.17 5.715c-.894-6.674-7.976-7.795-12.569-11.312 5.839-1.1 13.762-1.192 16.34-7.54l-25.766 6.912Z" fill="#000"/>
<path d="m369.87 232.748.628.628-.628-.628Z" fill="#0E0D08"/>
<path d="m384.953 232.748.628.628-.628-.628Z" fill="#010101"/>
<path d="m146.143 233.376.629.628-.629-.628Zm35.193.628.629.629-.629-.629Zm3.771 0 .628.629-.628-.629Zm258.291 0 .629.629-.629-.629Zm-318.622.629.629.628-.629-.628Z" fill="#0E0D08"/>
<path d="m443.398 234.633.629.628-.629-.628Z" fill="#020202"/>
<path d="m143.001 235.261.629.629-.629-.629Zm40.85 0 .627.629-.627-.629Zm226.24.629.628.628-.628-.628Zm23.88 0 .629.628-.629-.628Zm-292.855.628.628.629-.628-.629Z" fill="#0E0D08"/>
<path d="m416.375 236.518.628.629-.628-.629Zm-358.843 1.257.63.629-.63-.629Z" fill="#0F0D06"/>
<path d="m433.971 237.775.629.629-.629-.629Z" fill="#010101"/>
<path d="m122.262 239.032.629.628-.629-.628Z" fill="#0E0D08"/>
<path d="m249.208 243.431 1.886-4.399c-2.675.427-4.78 2.494-1.886 4.4v-.001Z" fill="#000"/>
<path d="m136.717 239.66.628.629-.628-.629Z" fill="#0E0D08"/>
<path d="m61.303 240.289.629.628-.63-.628Z" fill="#0F0D06"/>
<path d="m388.723 240.289.629.628-.629-.628Z" fill="#0F0E08"/>
<path d="m171.281 240.917.629.629-.629-.629Z" fill="#0E0D08"/>
<path d="m434.6 240.917.628.629-.628-.629Z" fill="#010101"/>
<path d="m124.148 241.546.628.628-.628-.628Z" fill="#0E0D08"/>
<path d="m390.609 241.546.628.628-.628-.628Z" fill="#0F0E07"/>
<path d="m407.577 241.546.628.628-.628-.628Z" fill="#0E0D08"/>
<path d="m29.252 242.174.629.629-.629-.629Z" fill="#0E0B05"/>
<path d="m63.817 242.174.628.629-.628-.629Z" fill="#0F0D06"/>
<path d="m109.065 242.174.628.629-.628-.629Z" fill="#0F0E08"/>
<path d="m439.627 242.174.629.629-.629-.629Z" fill="#020202"/>
<path d="m175.68 242.803.629.628-.629-.628Z" fill="#0E0D08"/>
<path d="m271.833 242.803-.629 4.399c1.966-1.15 2.3-2.183 1.885-4.4l-1.256.001Z" fill="#000"/>
<path d="m273.09 242.803.628.628-.628-.628Z" fill="#0E0D08"/>
<path d="m298.227 247.202 1.886-4.4c-2.438.706-4.46 2.458-1.886 4.4Z" fill="#000"/>
<path d="m406.948 242.803.629.628-.629-.628Z" fill="#010101"/>
<path d="m438.999 242.803.628.628-.628-.628Z" fill="#020202"/>
<path d="m172.538 244.06.628.628-.628-.628Z" fill="#0E0D08"/>
<path d="m400.664 244.06.628.628-.628-.628Z" fill="#010101"/>
<path d="m413.233 244.06.628.628-.628-.628Z" fill="#0F0E07"/>
<path d="m437.742 244.06.629.628-.629-.628Zm-.628.628.628.628-.628-.628Z" fill="#010101"/>
<path d="m179.45 245.316.63.629-.63-.629Z" fill="#0E0D08"/>
<path d="m68.216 245.945.628.628-.628-.628Z" fill="#0F0D06"/>
<path d="m401.92 245.945.63.628-.63-.628Z" fill="#0E0D08"/>
<path d="m42.45 246.573.628.629-.628-.629Z" fill="#0E0B05"/>
<path d="m272.46 246.573.63.629-.63-.629Zm24.51 0 .629.629-.629-.629Z" fill="#0E0D08"/>
<path d="M317.08 250.972v2.514l6.285-4.399-6.285 1.885Z" fill="#000"/>
<path d="m180.08 249.716.628.628-.628-.628Zm139.514 0 .629.628-.629-.628Zm3.143 0 .628.628-.628-.628Z" fill="#0E0D08"/>
<path d="M347.246 249.716v7.54c2.36-2.31 2.36-5.229 0-7.54Z" fill="#000"/>
<path d="m430.83 249.716.628.628-.628-.628Z" fill="#0F0D06"/>
<path d="m456.596 249.716.628.628-.628-.628Z" fill="#0D0B05"/>
<path d="m318.966 250.344.628.628-.628-.628Zm3.142 0 .629.628-.629-.628Zm24.51 0 .628.628-.628-.628Z" fill="#0E0D08"/>
<path d="m409.462 250.344.629.628-.629-.628Z" fill="#0F0E07"/>
<path d="m427.688 250.972.627.629-.627-.629Z" fill="#0F0D06"/>
<path d="m318.337 252.858.629.628-.629-.628Zm-89.867.628.628.629-.628-.629Z" fill="#0E0D08"/>
<path d="m223.442 262.284 7.541 1.886-4.184-4.034 2.3-6.021c-3.031 1.57-4.888 4.897-5.657 8.17v-.001Z" fill="#000"/>
<path d="m431.458 254.115.628.628-.628-.628Z" fill="#0E0D05"/>
<path d="M405.691 281.767v.628c15.814 1.999 22.935-5.559 34.566-14.453-1.671 4.5-9.966 10.277-9.748 14.453.235 4.471 7.266 4.884 10.376 3.652 5.94-2.355 9.696-8.916 10.987-14.964 2.678-12.556-13.806-22.836-24.125-14.821-8.847 6.869-12.753 18.605-22.056 25.505Z" fill="url(#d)"/>
<path d="m43.707 255.372.628.628-.628-.628Z" fill="#010101"/>
<path d="M109.693 267.94c.815 4.689 5.464 2.171 8.799 1.943 4.792-.328 13.692 1.224 16.34 5.599l4.398-.629c-1.124-7.112-11.378-7.1-16.968-7.541 4.115-4.16 10.01-5.398 11.312-11.94l-23.881 12.568Z" fill="#000"/>
<path d="m452.196 255.372.629.628-.629-.628Z" fill="#0D0B05"/>
<path d="m78.9 256 .628.628L78.9 256Z" fill="#0F0E07"/>
<path d="m459.738 256.628.628.629-.628-.629Z" fill="#0D0B05"/>
<path d="m61.932 257.257.628.628-.628-.628Z" fill="#0F0D06"/>
<path d="m225.328 257.257.628.628-.628-.628Zm-96.781.628.628.629-.628-.629Zm97.409.629.628.628-.628-.628Z" fill="#0E0D08"/>
<path d="m83.299 259.77.628.63-.628-.63Z" fill="#0F0E07"/>
<path d="m126.033 259.77.628.63-.628-.63Zm5.028 0 .628.63-.628-.63Z" fill="#0E0D08"/>
<path d="m44.964 260.4.628.628-.628-.628Z" fill="#0E0B05"/>
<path d="m254.864 260.4-6.913 8.797 8.799 3.143-6.285-3.771c1.308-2.744 6.442-5.126 4.4-8.17l-.001.001Z" fill="#000"/>
<path d="m450.311 260.4.628.628-.628-.628Z" fill="#0E0D05"/>
<path d="m99.638 261.028.629.628-.63-.628Z" fill="#0F0E07"/>
<path d="m124.148 261.028.628.628-.628-.628Zm98.666 0 .628.628-.628-.628Z" fill="#0E0D08"/>
<path d="m85.814 261.656.628.628-.628-.628Zm12.568 0 .628.628-.629-.628Z" fill="#0F0E07"/>
<path d="m128.547 262.284.628.629-.628-.629Zm71.014 0 .629.629-.629-.629Z" fill="#0E0D08"/>
<path d="m200.19 262.284-7.542 6.913c2.943.995 9.741 4.866 11.94 1.886l-8.169-3.142 3.771-5.657Zm162.767 0 8.798 6.913v1.257l-8.17 4.4c4.3-.352 7.967-1.658 11.313-4.4-2.445-4.14-7.217-7.259-11.941-8.17Z" fill="#000"/>
<path d="m87.698 262.913.628.628-.628-.628Z" fill="#0F0E07"/>
<path d="m451.568 262.913.628.628-.628-.628Z" fill="#010101"/>
<path d="m462.251 262.913.629.628-.629-.628Zm-414.774.628.629.629-.63-.629Z" fill="#0D0B05"/>
<path d="m251.094 263.541.628.629-.628-.629Zm3.142 0 .628.629-.628-.629Zm112.492 0 .628.629-.628-.629Z" fill="#0E0D08"/>
<path d="m421.403 263.541.628.629-.628-.629Zm30.165 0 .628.629-.628-.629Z" fill="#0E0D05"/>
<path d="m197.047 264.17.629.628-.629-.628Zm2.514 0 .629.628-.629-.628Zm50.904 0 .629.628-.629-.628Z" fill="#0E0D08"/>
<path d="m48.734 264.798.63.629-.63-.629Z" fill="#0E0B05"/>
<path d="M161.226 264.798c-3.804 8.53-9.664 15.474-16.34 21.986-3.831 3.738-9.805 7.212-11.312 12.579l27.652-5.87 14.454-2.929c-8.617-6.14-23.731.694-32.05 4.4 5.715-11.474 16.936-16.024 19.481-29.537l-.628-.629h-1.257Z" fill="#000"/>
<path d="m198.933 264.798.628.629-.628-.629Zm50.904 0 .628.629-.628-.629Zm115.634 0 .628.629-.628-.629Zm-241.952.629.629.628-.629-.628Z" fill="#0E0D08"/>
<path d="m276.232 271.083 3.77.628v-6.284c-2.727.883-3.038 3.083-3.77 5.656Z" fill="#000"/>
<path d="m114.721 266.055.629.629-.629-.629Z" fill="#0F0E08"/>
<path d="m367.356 266.055.629.629-.629-.629Zm-207.387.629.629.628-.629-.628Z" fill="#0E0D08"/>
<path d="m50.62 267.312.628.629-.628-.629Z" fill="#0E0B05"/>
<path d="m124.776 267.312.629.629-.629-.629Zm125.69.629.628.628-.628-.628Z" fill="#0E0D08"/>
<path d="m452.196 267.94.629.629-.629-.629Z" fill="#010101"/>
<path d="m373.64 268.569.63.628-.63-.628Z" fill="#0F0E08"/>
<path d="m413.861 268.569.629.628-.629-.628Z" fill="#0F0E07"/>
<path d="m199.561 269.197.629.629-.629-.629Z" fill="#0E0D08"/>
<path d="m437.742 269.197.629.629-.629-.629Z" fill="#0F0D06"/>
<path d="m195.162 269.826.629.628-.629-.628Zm81.07 0 .628.628-.628-.628Z" fill="#0E0D08"/>
<path d="m305.769 269.826.628 6.913c2.915-1.544 4.82-3.7 5.656-6.913l-4.4 3.142-1.884-3.142Z" fill="#000"/>
<path d="m136.717 270.454.628.629-.628-.629Zm168.423 0 .629.629-.629-.629Zm5.028 0 .628.629-.628-.629Z" fill="#0E0D08"/>
<path d="m374.27 270.454.628.629-.628-.629Z" fill="#0F0E08"/>
<path d="m438.999 270.454.628.629-.628-.629Z" fill="#0E0D05"/>
<path d="m53.133 271.083.629.628-.63-.628Z" fill="#0E0B05"/>
<path d="m198.933 271.083.628.628-.628-.628Zm110.606 0 .629.628-.629-.628Zm58.446.628.628.629-.628-.629Z" fill="#0E0D08"/>
<path d="m414.49 272.968.628.628-.628-.628Z" fill="#0E0D05"/>
<path d="m450.94 272.968.628.628-.628-.628Z" fill="#010101"/>
<path d="m465.394 273.596.628.629-.628-.629Z" fill="#0D0B05"/>
<path d="m450.311 274.853.628.629-.628-.629Z" fill="#010101"/>
<path d="m159.34 275.482.63.628-.63-.628Z" fill="#0E0D08"/>
<path d="m70.1 276.11.63.629-.63-.629Z" fill="#0E0B05"/>
<path d="m429.572 276.739.629.628-.629-.628Z" fill="#020202"/>
<path d="m410.719 277.367.628.629-.628-.629Z" fill="#0D0B05"/>
<path d="m428.944 277.367.628.629-.628-.629Zm-18.853.629.628.628-.628-.628Z" fill="#0E0D05"/>
<path d="m217.158 283.023 1.257-4.399c-2.697.785-4.178 2.728-1.257 4.4v-.001Z" fill="#000"/>
<path d="m57.532 279.253.63.628-.63-.628Z" fill="#0F0D06"/>
<path d="m215.272 279.253.629.628-.629-.628Zm-64.101.628.628.628-.628-.628Z" fill="#0E0D08"/>
<path d="m423.916 279.88.629.63-.629-.63Z" fill="#0E0D05"/>
<path d="m150.542 280.51.629.628-.629-.628Z" fill="#0E0D08"/>
<path d="m447.169 280.51.628.628-.628-.628Zm-26.395.628.629.628-.629-.628Z" fill="#010101"/>
<path d="m446.54 281.138.629.628-.629-.628Z" fill="#0E0D05"/>
<path d="m329.65 282.395-.629 8.798-5.656-3.77c.59 3.813 3.256 5.621 6.913 6.284l.628-11.312h-1.256Z" fill="#000"/>
<path d="M415.118 282.395v.628h1.885l-1.885-.628Z" fill="#010101"/>
<path d="M174.423 301.877c4.16-.179 18.645.378 20.74-2.514l-13.827-1.886 7.542-14.454c-4.573 1.43-12.423 14.42-14.455 18.854Zm50.905 54.674c4.74-2.716 10.911-10.808 13.197-15.71-5.032 1.506-7.231 6.436-10.684 10.054l-1.885-13.197c14.697-1.283 21.154-17.342 29.806-26.999 5.265-5.876 11.861-8.422 18.584-11.965-3.962-4.74-9.474.27-13.197 3.136-9.975 7.68-15.73 16.988-24.51 25.773l5.028-13.198h-.628c-2.73 6.558-5.994 13.557-12.57 16.968l2.514-8.798h-.628c-2.642 6.312-5.622 9.423-12.569 9.427l6.285-14.454h-.629l-8.17 13.825-2.513-.628 6.284-11.94h-.628c-3.178 5.084-6.528 12.316-13.198 10.683l5.656-10.683c-3.148 2.464-4.513 8.359-8.228 9.823-1.696.668-4.89-.573-4.21-2.816.883-2.913 5.678-5.783 7.568-8.264 6.436-8.452 11.654-22.23 21.21-27.43 7.824-4.258 19.73 1.137 28.28 1.032 4.899-.06 10.477-1.74 11.94-6.91-3.995-.431-7.773 2.148-11.94 2.155-10.562.017-27.896-5.244-36.972 1.926-8.262 6.527-8.731 15.286-13.928 23.568-2.538 4.044-7.02 6.78-10.685 9.696-1.357 1.08-3.816 2.65-3.3 4.72.631 2.545 4.964 3.91 7.068 4.874a70.71 70.71 0 0 0 15.083 4.94c2.745.561 6.832.471 9.163 2.16 4.256 3.084 2.82 13.591 3.406 18.232Z" fill="#000"/>
<path d="m442.77 284.909.628.628-.628-.628Zm-10.684.628.629.628-.629-.628Zm8.798 0 .629.628-.629-.628Z" fill="#010101"/>
<path d="m107.808 286.165-.628 3.771 2.513-3.77-1.885-.001Z" fill="#000"/>
<path d="m256.121 286.165.629.629-.629-.629Z" fill="#0E0D08"/>
<path d="m434.6 286.165.628.629-.628-.629Z" fill="#010101"/>
<path d="m330.906 286.794.629.628-.629-.628Z" fill="#0E0D08"/>
<path d="M433.973 304.391c-1.444-4.263-.784-9.415-3.553-13.169-3.618-4.909-11.732-4.493-17.187-4.425-1.883.023-5.023-.092-6.242 1.696-1.453 2.13 1.192 7.341 1.763 9.613 2.365 9.416 4.476 22.402 12.651 28.711 5.374 4.146 16.186 1.428 20.67-3.013 7.154-7.083 9.084-23.637 1.818-31.285-8.986-9.458-8.849 7.366-9.922 11.871l.002.001Z" fill="url(#e)"/>
<path d="m62.56 287.422.628.629-.628-.629Z" fill="#0F0D06"/>
<path d="m219.043 287.422.628.629-.628-.629Z" fill="#0E0D08"/>
<path d="m121.634 288.05.628.63-.628-.63Z" fill="#0F0E08"/>
<path d="m143.001 288.05.629.63-.629-.63Zm43.363 0 .628.63-.628-.63Z" fill="#0E0D08"/>
<path d="m109.065 288.68.628.628-.628-.628Z" fill="#0F0E08"/>
<path d="m124.776 288.68.629.628-.629-.628Zm17.597 0 .628.628-.628-.628Zm86.725 0 .629.628-.629-.628Zm-87.354.628.629.628-.629-.628Z" fill="#0E0D08"/>
<path d="m108.437 289.936.628.628-.628-.628Z" fill="#0F0E08"/>
<path d="m182.593 289.936.629.628-.629-.628Zm33.936 0 .629.628-.629-.628Z" fill="#0E0D08"/>
<path d="m261.149 289.936.628.628-.628-.628Z" fill="#0E0B05"/>
<path d="m440.884 289.936.629.628-.629-.628Z" fill="#0E0D08"/>
<path d="m472.935 290.565-3.359 15.713-2.381 8.141 4.484 3.169-1.258-5.655h.629c2.907 6.978 5.969 8.17 13.197 8.17l-4.399-9.428c2.899 3.335 3.949 8.048 8.798 8.798l-4.399-8.17c4.023 4.366 6.008 7.382 11.941 4.399v-1.256c-10.47-4.982-11.422-21.739-23.253-23.881Z" fill="url(#f)"/>
<path d="m372.384 295.592 1.885-4.399c-2.568.747-3.916 2.188-1.885 4.4v-.001Z" fill="#000"/>
<path d="m181.336 291.821.629.629-.629-.629Z" fill="#0E0D08"/>
<path d="m430.83 291.821.628.629-.628-.629Z" fill="#0E0D05"/>
<path d="m222.814 292.45.628.628-.628-.628Z" fill="#0F0E08"/>
<path d="m406.948 292.45.629.628-.629-.628Z" fill="#010101"/>
<path d="m466.022 292.45.629.628-.629-.628Z" fill="#0D0B05"/>
<path d="m161.226 293.078.628.629-.628-.629Z" fill="#0E0D08"/>
<path d="m222.185 293.078.629.629-.629-.629Zm-114.377.629.629.628-.629-.628Zm2.514 0 .628.628-.628-.628Zm111.235 0 .628.628-.628-.628Z" fill="#0F0E08"/>
<path d="m181.965 294.335.628.629-.628-.629Zm30.165 0 .629.629-.629-.629Z" fill="#0E0D08"/>
<path d="m118.492 294.964.628.628-.628-.628Z" fill="#0F0E08"/>
<path d="m392.494 294.964.629.628-.629-.628Z" fill="#0F0E07"/>
<path d="m433.971 294.964.629.628-.629-.628Z" fill="#010101"/>
<path d="m117.863 296.22.629.629-.629-.629Z" fill="#0F0E08"/>
<path d="m219.671 296.22.629.629-.629-.629Z" fill="#0F0E07"/>
<path d="m287.544 296.22 6.912 7.542 3.143-7.541-3.143 5.027-6.912-5.028Zm63.473 0-.629 9.427-6.284-3.77c-.35 4.143 5.995 8.852 9.426 10.683l-1.257-16.34h-1.256Z" fill="#000"/>
<path d="m176.937 297.477.629.629-.629-.629Zm10.684 0 .628.629-.628-.629Zm-11.312.629.628.628-.628-.628Z" fill="#0E0D08"/>
<path d="m390.609 298.106.628.628-.628-.628Z" fill="#0F0E07"/>
<path d="m79.528 299.363.63.628-.63-.628Z" fill="#0F0D06"/>
<path d="m119.12 299.991.629.629-.629-.629Z" fill="#0F0E08"/>
<path d="m174.423 299.991.629.629-.629-.629Z" fill="#0E0D08"/>
<path d="m263.034 299.991.629.629-.629-.629Z" fill="#0F0D06"/>
<path d="m389.352 299.991.628.629-.628-.629Zm4.399.629.628.628-.628-.628Z" fill="#0F0E07"/>
<path d="m291.314 301.248.629.629-.629-.629Zm192.933 0 .629.629-.629-.629Zm-275.888.629.629.628-.629-.628Z" fill="#0E0D08"/>
<path d="m388.095 301.877.628.628-.628-.628Z" fill="#0F0E07"/>
<path d="m73.872 302.505.63.628-.63-.628Zm186.02 0 .628.628-.628-.628Z" fill="#0F0D06"/>
<path d="m264.92 302.505.628.628-.628-.628Z" fill="#0E0D08"/>
<path d="m71.987 303.133.628.629-.628-.629Z" fill="#0F0D06"/>
<path d="m292.571 303.133.629.629-.629-.629Zm54.047 0 .628.629-.628-.629Z" fill="#0E0D08"/>
<path d="m391.237 304.39.629.629-.629-.629Z" fill="#0F0E07"/>
<path d="m260.52 305.647.629.629-.629-.629Z" fill="#0E0D08"/>
<path d="m71.987 306.276.628.628-.628-.628Z" fill="#0F0D06"/>
<path d="m410.719 306.276.628.628-.628-.628Zm-268.346.628.628.629-.628-.629Z" fill="#0E0D08"/>
<path d="M180.708 306.904c-1.97 9.414-8.697 17.889-14.728 25.138-2.874 3.454-7.294 6.927-8.525 11.312 10.415-3 22.123-13.58 33.308-12.569-2.877-5.573-16.297 2.159-21.367 3.142 4.076-6.04 9.65-11.304 12.275-18.225 1.101-2.903 1.796-6.808-.963-8.798Z" fill="#000"/>
<path d="m212.759 306.904.628.629-.628-.629Z" fill="#0F0E07"/>
<path d="m253.608 306.904.628.629-.628-.629Z" fill="#0E0D08"/>
<path d="m79.528 307.533.63.628-.63-.628Zm2.514 0 .628.628-.628-.628Z" fill="#0F0D06"/>
<path d="m180.08 308.161.628.628-.628-.628Z" fill="#0E0D08"/>
<path d="m383.067 308.161.629.628-.629-.628Z" fill="#0F0E07"/>
<path d="m411.347 308.79.629.628-.629-.628Zm36.45.628.629.628-.629-.628Z" fill="#010101"/>
<path d="m489.275 309.418.628.628-.628-.628Z" fill="#0F0E08"/>
<path d="m255.493 310.046.628.629-.628-.629Z" fill="#0E0D08"/>
<path d="m121.634 310.675.628.628-.628-.628Z" fill="#0F0E08"/>
<path d="m77.014 311.303.629.629-.63-.629Z" fill="#0F0D06"/>
<path d="m249.208 311.303.629.629-.629-.629Z" fill="#0E0D08"/>
<path d="m76.386 311.932.628.628-.628-.628Z" fill="#0F0D06"/>
<path d="m351.645 311.932.628.628-.628-.628Z" fill="#0E0D08"/>
<path d="M320.851 321.987c-2.658-2.652-5.365-6.314-9.426-5.656l11.94 14.454 3.142-18.225c-4.789.757-4.555 5.51-5.656 9.427Z" fill="#000"/>
<path d="m481.733 312.56.629.629-.629-.629Z" fill="#0F0E07"/>
<path d="m114.093 313.189.628.628-.628-.628Zm13.197 0 .628.628-.628-.628Z" fill="#0F0E08"/>
<path d="m261.777 318.845-.628-3.143h-1.885l.628 8.17c3.66-.633 7.47-7.215 8.17-10.683l-6.285 5.656Z" fill="#000"/>
<path d="m447.169 313.189.628.628-.628-.628Z" fill="#010101"/>
<path d="m137.974 313.817.628.628-.628-.628Zm109.35 0 .627.628-.627-.628Zm5.027 0 .628.628-.628-.628Zm74.156 0 .629.628-.629-.628Z" fill="#0E0D08"/>
<path d="m384.324 313.817.629.628-.629-.628Z" fill="#0F0E07"/>
<path d="m496.188 314.445.628.629-.628-.629Z" fill="#0D0B05"/>
<path d="m201.447 315.074.628.628-.628-.628Z" fill="#0E0D08"/>
<path d="m466.65 315.074.63.628-.63-.628Z" fill="#0E0B05"/>
<path d="m143.001 315.702.629.629-.629-.629Zm33.936 0 .629.629-.629-.629Z" fill="#0E0D08"/>
<path d="m224.28 316.122.21.418-.21-.418Z" fill="#000"/>
<path d="m381.81 316.33.629.63-.629-.63Z" fill="#0F0E07"/>
<path d="m451.568 316.33.628.63-.628-.63Zm19.482 0 .628.63-.628-.63Z" fill="#0D0B05"/>
<path d="m180.708 316.96.628.628-.628-.628Zm42.734 0 .629.628-.629-.628Zm-47.762 1.256.629.629-.629-.629Zm269.603 0 .629.629-.629-.629Z" fill="#0E0D08"/>
<path d="m450.94 318.216.628.629-.628-.629Z" fill="#0D0B05"/>
<path d="m484.876 318.216.628.629-.628-.629Z" fill="#0F0D06"/>
<path d="m88.326 318.845.63.628-.63-.628Z" fill="#000"/>
<path d="m197.047 318.845.629.628-.629-.628Z" fill="#0E0D08"/>
<path d="m376.783 318.845.628.628-.628-.628Z" fill="#0F0E07"/>
<path d="m87.07 319.473.628.628-.628-.628Zm1.256 0 .63.628-.63-.628Z" fill="#0F0D06"/>
<path d="m217.786 319.473.629.628-.629-.628Z" fill="#0F0E08"/>
<path d="m243.552 319.473.629.628-.629-.628Zm201.103 0 .628.628-.628-.628Zm-123.804 1.257.629.628-.629-.628Zm95.524 0 .628.628-.628-.628Z" fill="#0E0D08"/>
<path d="m99.01 321.358.628.629-.628-.629Z" fill="#0F0E07"/>
<path d="m241.667 321.987.629.628-.629-.628Zm81.698 0 .628.628-.628-.628Z" fill="#0E0D08"/>
<path d="m138.602 322.615.628.629-.628-.629Z" fill="#0F0E08"/>
<path d="m207.103 322.615.628.629-.628-.629Z" fill="#0E0B05"/>
<path d="m215.272 322.615.629.629-.629-.629Z" fill="#0E0D08"/>
<path d="m220.928 322.615.629.629-.629-.629Z" fill="#0F0E08"/>
<path d="m246.066 322.615.629.629-.629-.629Z" fill="#0E0D08"/>
<path d="m453.453 322.615.629.629-.629-.629Z" fill="#0D0B05"/>
<path d="m191.391 323.244.629.628-.629-.628Zm38.336 0 .628.628-.628-.628Z" fill="#0E0D08"/>
<path d="m285.03 323.244-3.142 8.17h-.629l-5.027-6.913 4.399 14.454h.628c1.672-4.2 7.59-11.924 3.77-15.711h.001Z" fill="#000"/>
<path d="m317.709 323.244.628.628-.628-.628Z" fill="#0E0D08"/>
<path d="m220.3 323.872.628.629-.628-.629Z" fill="#0F0E08"/>
<path d="m409.462 323.872.629.629-.629-.629Z" fill="#0F0D06"/>
<path d="m198.304 324.5.629.629-.629-.629Z" fill="#0D0B05"/>
<path d="m283.773 324.5.628.629-.628-.629Z" fill="#0E0D08"/>
<path d="m119.749 325.129.628.628-.628-.628Z" fill="#0F0E08"/>
<path d="m218.415 325.129.628.628-.628-.628Z" fill="#0F0E07"/>
<path d="m229.727 325.129.628.628-.628-.628Zm5.656 0 .628.628-.628-.628Z" fill="#0E0D08"/>
<path d="m82.67 325.757.629.629-.63-.629Z" fill="#0F0D06"/>
<path d="m236.64 325.757.628.629-.628-.629Zm183.506 0 .628.629-.628-.629Zm-250.122.629.629.628-.629-.628Zm250.75 0 .629.628-.629-.628Z" fill="#0E0D08"/>
<path d="m80.785 327.014.628.629-.628-.629Z" fill="#0F0D06"/>
<path d="m205.846 327.014.628.629-.628-.629Z" fill="#0D0B05"/>
<path d="m214.015 327.014.629.629-.629-.629Z" fill="#0F0D06"/>
<path d="m236.64 327.014.628.629-.628-.629Z" fill="#0E0D08"/>
<path d="m352.902 327.643 3.77 20.738c-4.005-3.5-16.36-19.625-21.367-13.825 11.561 3.684 16.38 17.192 26.395 23.252l-3.133-11.94-3.78-18.854-1.885.629Z" fill="#000"/>
<path d="m421.403 327.014.628.629-.628-.629Z" fill="#0E0D08"/>
<path d="m433.343 327.643.628.628-.628-.628Z" fill="#010101"/>
<path d="m449.054 327.643.629.628-.629-.628Z" fill="#0E0B05"/>
<path d="m78.9 328.271.628.629-.628-.629Z" fill="#0D0B05"/>
<path d="m95.24 328.271.628.629-.628-.629Z" fill="#0F0E07"/>
<path d="m172.538 328.271.628.629-.628-.629Z" fill="#0E0D08"/>
<path d="m203.332 328.271.628.629-.628-.629Zm1.885 0 .629.629-.629-.629Z" fill="#0D0B05"/>
<path d="m216.53 328.271.628.629-.628-.629Z" fill="#0E0B05"/>
<path d="m424.545 328.271.628.629-.628-.629Z" fill="#010101"/>
<path d="m448.426 328.271.628.629-.628-.629Z" fill="#0D0B05"/>
<path d="m168.139 328.9.628.628-.628-.628Z" fill="#0E0D08"/>
<path d="m202.075 328.9.628.628-.628-.628Zm8.798 0 .629.628-.629-.628Z" fill="#0D0B05"/>
<path d="m127.918 329.528.629.629-.629-.629Z" fill="#0F0E08"/>
<path d="m230.355 330.157.628.628-.628-.628Z" fill="#0F0E07"/>
<path d="m93.353 330.785.629.628-.629-.628Z" fill="#0F0D06"/>
<path d="m214.644 330.785.628.628-.628-.628Z" fill="#0E0B05"/>
<path d="m229.098 330.785.629.628-.629-.628Z" fill="#0F0E07"/>
<path d="m177.566 331.413.628.629-.628-.629Z" fill="#0E0D08"/>
<path d="m417.632 331.413.628.629-.628-.629Z" fill="#0F0D06"/>
<path d="m200.19 332.042.628.628-.628-.628Z" fill="#0E0D08"/>
<path d="M386.21 332.042c-3.183 7.79 4.585 16.152 7.54 23.252-8.17-4.21-15.424-11.23-25.137-11.312v2.514c13.994 1.222 21.456 15.54 32.68 21.996-.106-11.713-10.16-25.18-13.827-36.45h-1.256Z" fill="#000"/>
<path d="m405.062 332.042.629.628-.629-.628Z" fill="#0F0D06"/>
<path d="m173.795 332.67.628.629-.628-.629Z" fill="#0E0D08"/>
<path d="m420.146 332.67.628.629-.628-.629Z" fill="#0F0D06"/>
<path d="m444.027 332.67.628.629-.628-.629Z" fill="#0E0B05"/>
<path d="m236.011 333.299.629.628-.629-.628Z" fill="#0E0D08"/>
<path d="m443.398 333.299.629.628-.629-.628Z" fill="#0D0B05"/>
<path d="m138.602 333.927.628.629-.628-.629Zm214.928 0 .629.629-.629-.629Z" fill="#0F0E08"/>
<path d="m442.77 333.927.628.629-.628-.629Z" fill="#0E0B05"/>
<path d="m137.974 334.556.628.628-.628-.628Z" fill="#0F0E08"/>
<path d="m207.731 334.556.628.628-.628-.628Zm26.395 0 .628.628-.628-.628Z" fill="#0E0D08"/>
<path d="m408.834 334.556.628.628-.628-.628Z" fill="#0F0D06"/>
<path d="m137.345 335.184.629.629-.629-.629Zm-.628.629.628.628-.628-.628Z" fill="#0F0E08"/>
<path d="m281.888 335.813.628.628-.628-.628Z" fill="#0E0D08"/>
<path d="m136.088 336.441.629.628-.629-.628Z" fill="#0F0E08"/>
<path d="m161.854 336.441.629.628-.629-.628Z" fill="#0E0D08"/>
<path d="m356.673 337.07.628.628-.628-.628Z" fill="#0F0E08"/>
<path d="m385.581 338.955.629.628-.629-.628Z" fill="#0F0E07"/>
<path d="m133.574 339.583.629.629-.629-.629Z" fill="#0F0E08"/>
<path d="m164.997 339.583.628.629-.628-.629Zm-1.257.629.628.628-.628-.628Z" fill="#0E0D08"/>
<path d="m258.635 341.469-4.399.628c1.483 3.524 4.098 6.372 5.327 10.055 1.362 4.08.479 9.71 4.728 11.94 1.968-4.419 6.806-11.622 5.656-16.339-3.57 1.756-5.262 5.578-5.656 9.427h-.628l-5.028-15.711Z" fill="#000"/>
<path d="m131.69 342.097.628.629-.628-.629Z" fill="#0F0E08"/>
<path d="M200.19 342.097c0 12.333-1.678 23.93-5.028 35.821 4.373.16 6.663-4.387 9.033-7.54 4.68-6.23 9.372-13.097 16.733-16.34v-.629c-7.465-.967-16.796 10.195-19.481 16.34h-.629c2.213-8.554 4.182-19.245.629-27.652h-1.257Z" fill="#000"/>
<path d="m237.896 342.097.629.629-.629-.629Z" fill="#0E0D08"/>
<path d="m418.889 342.097.628.629-.628-.629Z" fill="#0E0B05"/>
<path d="m433.971 342.097.629.629-.629-.629Z" fill="#0D0B05"/>
<path d="m307.025 355.923-14.454-10.055c.805 2.572 2.846 3.338 4.752 5.105 3.75 3.477 7.023 11.613 12.216 12.491l1.257-20.738c-5.072 1.934-3.77 8.742-3.77 13.197h-.001Z" fill="#000"/>
<path d="m387.466 342.726.629.628-.629-.628Z" fill="#0F0E07"/>
<path d="m433.343 342.726.628.628-.628-.628Z" fill="#0E0B05"/>
<path d="m259.264 343.354.628.628-.628-.628Z" fill="#0E0D08"/>
<path d="m355.416 343.982.628.629-.628-.629Z" fill="#0F0E08"/>
<path d="m255.493 344.61.628.63-.628-.63Z" fill="#0E0D08"/>
<path d="m348.503 344.61.628.63-.628-.63Zm4.399.63.628.628-.628-.628Z" fill="#0F0E08"/>
<path d="m353.53 345.868.629.628-.629-.628Z" fill="#0F0E07"/>
<path d="m233.497 346.496.629.629-.629-.629Zm61.588 0 .628.629-.628-.629Z" fill="#0E0D08"/>
<path d="m379.925 347.125.629.628-.629-.628Z" fill="#0F0E08"/>
<path d="m132.946 347.753.628.628-.628-.628Z" fill="#0F0E07"/>
<path d="m269.947 347.753.629.628-.629-.628Zm-38.335 1.257.628.628-.628-.628Z" fill="#0E0D08"/>
<path d="m352.273 349.01.629.628-.629-.628Z" fill="#0F0E08"/>
<path d="m393.75 349.01.63.628-.63-.628Z" fill="#0F0D06"/>
<path d="m423.916 349.01.629.628-.629-.628Z" fill="#0E0B05"/>
<path d="m427.059 349.01.628.628-.628-.628Z" fill="#010101"/>
<path d="m134.203 349.638.628.629-.628-.629Z" fill="#0F0E07"/>
<path d="m426.43 349.638.629.629-.629-.629Z" fill="#0E0B05"/>
<path d="m296.97 350.267.629.628-.629-.628Z" fill="#0E0D08"/>
<path d="m385.581 350.267.629.628-.629-.628Z" fill="#0F0D06"/>
<path d="m425.802 350.267.628.628-.628-.628Z" fill="#0E0B05"/>
<path d="m164.997 351.524.628.628-.628-.628Zm94.267 0 .628.628-.628-.628Zm40.22 1.257.629.628-.629-.628Z" fill="#0E0D08"/>
<path d="m164.368 354.038.629.628-.629-.628Z" fill="#0F0E08"/>
<path d="m305.14 354.666.629.628-.629-.628Z" fill="#0E0D08"/>
<path d="M342.847 354.666c-4.432 7.857 2.027 24.046 3.142 32.68h-.628c-3.503-7.4-10.25-13.51-15.712-19.483-.77-.842-4.75-6.264-6.174-3.983-1.484 2.378 5.79 8.02 7.155 9.64 5.023 5.952 9.56 12.685 13.362 19.481 2.198 3.929 4.113 9.182 8.281 11.312-3.144-16.211-8.123-33.047-8.17-49.647h-1.256Z" fill="#000"/>
<path d="m385.581 354.666.629.628-.629-.628Z" fill="#0F0D06"/>
<path d="m214.015 355.294.629.629-.629-.629Z" fill="#010101"/>
<path d="m217.158 355.294.628.629-.628-.629Zm45.876 0 .629.629-.629-.629Z" fill="#0E0D08"/>
<path d="m358.558 355.294.628.629-.628-.629Z" fill="#0F0E07"/>
<path d="m341.59 355.923.628.628-.628-.628Z" fill="#0F0E08"/>
<path d="m423.288 355.923.628.628-.628-.628Z" fill="#0E0B05"/>
<path d="m225.328 356.551.628.629-.628-.629Z" fill="#0E0D08"/>
<path d="m263.663 356.551.628.629-.628-.629Z" fill="#0F0E08"/>
<path d="m408.834 357.18.628.628-.628-.628Zm8.17 0 .628.628-.628-.628Z" fill="#0E0B05"/>
<path d="m214.015 357.808.629.629-.629-.629Zm89.24 0 .628.629-.628-.629Z" fill="#0E0D08"/>
<path d="m388.723 357.808.629.629-.629-.629Z" fill="#0F0D06"/>
<path d="m163.111 358.437.629.628-.629-.628Z" fill="#0F0E08"/>
<path d="m411.976 359.065.628.629-.628-.629Z" fill="#0E0B05"/>
<path d="m198.933 359.694.628.628-.628-.628Z" fill="#0E0D08"/>
<path d="m142.373 360.322.628.628-.628-.628Z" fill="#0F0E07"/>
<path d="m305.14 360.322.629.628-.629-.628Zm36.45 0 .628.628-.628-.628Z" fill="#0F0E08"/>
<path d="m423.288 360.322.628.628-.628-.628Z" fill="#0D0B05"/>
<path d="m133.575 360.951-6.915 19.482 14.455-10.055c-.252-4.857-2.882-8.044-7.54-9.427Z" fill="url(#g)"/>
<path d="m210.245 361.579.628.628-.628-.628Zm96.152.628.628.629-.628-.629Z" fill="#0E0D08"/>
<path d="m160.598 364.721.628.629-.628-.629Z" fill="#0F0E08"/>
<path d="m396.265 364.721.628.629-.628-.629Z" fill="#0F0D06"/>
<path d="m327.136 365.35.628.628-.628-.628Z" fill="#0F0E08"/>
<path d="m189.506 365.978.629.628-.629-.628Z" fill="#0E0D08"/>
<path d="m237.896 365.978-.628.628c3.075 8.447 6.102 15.446 7.592 24.51.692 4.21.262 9.689 3.72 12.569 3.533-6.705 4.806-14.485 8.033-21.367 1.852-3.951 4.875-7.42 3.907-11.94-6.04 2.97-9.605 16.385-11.312 22.623-3.117-8.308-2.163-22.745-11.312-27.023Z" fill="#000"/>
<path d="m324.622 367.235.628.628-.628-.628Zm.628.628.629.629-.629-.629Z" fill="#0F0E08"/>
<path d="m200.818 368.492.629.628-.629-.628Z" fill="#0E0D08"/>
<path d="m325.879 368.492.628.628-.628-.628Z" fill="#0F0E08"/>
<path d="m151.17 369.12.63.629-.63-.629Z" fill="#0F0E07"/>
<path d="m164.368 369.12.629.629-.629-.629Z" fill="#0F0E08"/>
<path d="m200.818 369.12.629.629-.629-.629Z" fill="#fff"/>
<path d="m326.507 369.12.629.629-.629-.629Z" fill="#0F0E08"/>
<path d="m411.976 369.12.628.629-.628-.629Z" fill="#010101"/>
<path d="m203.96 369.749.629.628-.629-.628Zm54.675.628.629.629-.629-.629Z" fill="#0E0D08"/>
<path d="m342.847 370.377.628.629-.628-.629Z" fill="#0F0E07"/>
<path d="m260.52 371.006.629.628-.629-.628Z" fill="#0E0D08"/>
<path d="m332.163 371.006.629.628-.629-.628Z" fill="#0F0E08"/>
<path d="m332.792 371.634.628.628-.628-.628Z" fill="#0F0D06"/>
<path d="m154.942 372.262.628.629-.628-.629Zm47.133 0 .628.629-.628-.629Z" fill="#0F0E07"/>
<path d="M280.63 372.262c7.107 14.113 12.368 27.387 16.34 42.735 4.432-2.484 3.822-6.872 3.773-11.312-.114-10.342 3.858-20.638 3.14-30.794-2.966 1.016-3.496 4.055-4.012 6.913-1.24 6.857-1.262 13.936-2.9 20.739-3.408-7.918-6.11-26.642-16.34-28.28l-.001-.001Z" fill="#000"/>
<path d="m282.516 372.262.628.629-.628-.629Z" fill="#0E0D08"/>
<path d="m383.067 372.262.629.629-.629-.629Z" fill="#0F0D06"/>
<path d="m240.41 372.89.629.63-.629-.63Z" fill="#0E0D08"/>
<path d="m330.278 372.89.628.63-.628-.63Zm-167.167.63.629.628-.629-.628Z" fill="#0F0E07"/>
<path d="m210.873 373.52.629.628-.629-.628Z" fill="#0E0D08"/>
<path d="m301.37 373.52.628.628-.628-.628Z" fill="#0F0E08"/>
<path d="m408.834 373.52.628.628-.628-.628Z" fill="#0F0D06"/>
<path d="m133.574 374.148.629.628-.629-.628Z" fill="#0D0B05"/>
<path d="m300.74 374.776.63.629-.63-.629Zm-127.574 1.257.629.629-.629-.629Z" fill="#0F0E08"/>
<path d="m255.493 376.033.628.629-.628-.629Zm3.77 0 .629.629-.629-.629Z" fill="#0E0D08"/>
<path d="m332.792 376.033.628.629-.628-.629Zm-160.254.629.628.628-.628-.628Z" fill="#0F0E07"/>
<path d="m384.953 376.662.628.628-.628-.628Z" fill="#0F0D06"/>
<path d="m406.32 376.662.628.628-.628-.628Z" fill="#0D0B05"/>
<path d="m171.91 377.29.628.628-.628-.628Z" fill="#0F0E08"/>
<path d="m258.635 377.29.629.628-.629-.628Z" fill="#0E0D08"/>
<path d="m286.915 377.29.629.628-.629-.628Z" fill="#0F0E08"/>
<path d="m413.233 377.291-4.399 7.541 13.827 6.284-9.428-13.825Z" fill="url(#h)"/>
<path d="m338.448 377.918.628.629-.628-.629Z" fill="#0F0E07"/>
<path d="m258.007 378.547.628.628-.628-.628Z" fill="#0E0D08"/>
<path d="m284.401 379.175.629.629-.629-.629Z" fill="#0F0E08"/>
<path d="m127.29 379.804.628.628-.628-.628Z" fill="#0D0B05"/>
<path d="m177.566 379.804.628.628-.628-.628Z" fill="#0F0E08"/>
<path d="m126.033 380.432.628.629-.628-.629Z" fill="#fff"/>
<path d="m253.608 380.432.628.629-.628-.629Z" fill="#0E0D08"/>
<path d="m285.03 380.432.628.629-.628-.629Z" fill="#0F0E08"/>
<path d="m403.178 380.432.628.629-.628-.629Z" fill="#0E0B05"/>
<path d="m285.658 381.69.629.628-.629-.628Zm3.77 0 .63.628-.63-.628Zm-3.141 1.256.628.628-.628-.628Zm3.77 0 .629.628-.629-.628Zm-37.706.628.628.629-.628-.629Zm3.142 0 .628.629-.628-.629Z" fill="#0F0E08"/>
<path d="m364.842 383.574.629.629-.629-.629Z" fill="#0F0D06"/>
<path d="m290.686 384.203.628.628-.628-.628Z" fill="#0F0E08"/>
<path d="m409.462 384.831.629.629-.629-.629Z" fill="#010101"/>
<path d="m164.368 385.46.629.628-.629-.628Z" fill="#0F0E07"/>
<path d="m235.383 386.088.628.629-.628-.629Z" fill="#000"/>
<path d="m339.705 386.088.628.629-.628-.629Z" fill="#0F0E07"/>
<path d="m251.094 386.717.628.628-.628-.628Z" fill="#0F0E08"/>
<path d="m369.241 386.717.629.628-.629-.628Z" fill="#0F0D06"/>
<path d="m175.052 387.345.628.629-.628-.629Z" fill="#0F0E07"/>
<path d="m236.64 387.345.628.629-.628-.629Z" fill="#0F0E08"/>
<path d="m371.755 388.602.629.629-.629-.629Zm-40.22.629.628.628-.628-.628Zm1.257 0 .628.628-.628-.628Z" fill="#0F0D06"/>
<path d="m160.598 389.859.628.628-.628-.628Z" fill="#0F0E07"/>
<path d="m249.837 389.859.628.628-.628-.628Z" fill="#0F0E08"/>
<path d="m342.218 389.859.629.628-.629-.628Zm-159.625 2.514.629.628-.629-.628Z" fill="#0F0E07"/>
<path d="m261.149 392.373.628.628-.628-.628ZM158.084 393l.628.629-.628-.629Z" fill="#0F0E08"/>
<path d="m349.76 393.001.628.629-.628-.629Z" fill="#0F0D06"/>
<path d="m294.456 393.63.629.628-.629-.628Zm-109.349.628.628.628-.628-.628Z" fill="#0F0E07"/>
<path d="m344.732 394.258.629.628-.629-.628Z" fill="#0F0D06"/>
<path d="m306.397 394.886.628.629-.628-.629Z" fill="#0F0E07"/>
<path d="m186.364 395.515.628.628-.628-.628Z" fill="#0F0E08"/>
<path d="m380.554 396.143.628.629-.628-.629Z" fill="#0E0B05"/>
<path d="m155.57 396.772.628.628-.628-.628Z" fill="#0F0E07"/>
<path d="m245.438 396.772.628.628-.628-.628Z" fill="#0F0E08"/>
<path d="m283.773 396.772.628.628-.628-.628Z" fill="#0F0E07"/>
<path d="m381.182 396.772.628.628-.628-.628Z" fill="#0E0B05"/>
<path d="m209.616 397.4.629.629-.629-.629Zm86.097.629.629.628-.629-.628Zm-104.95.628.628.629-.628-.629Zm123.175 0 .629.629-.629-.629Zm-121.29 1.257.629.629-.629-.629Zm117.52.629.628.628-.628-.628Zm-84.84.628.628.628-.628-.628Zm90.496 0 .628.628-.628-.628Zm-91.125 1.257.629.628-.629-.628Zm-25.766.628.628.629-.628-.629Zm8.17 0 .628.629-.628-.629Zm109.978 0 .628.629-.628-.629Zm-116.263.629.629.628-.629-.628Zm65.987.628.628.629-.628-.629Z" fill="#0F0E07"/>
<path d="m186.364 405.571-1.258 19.482c5.525-5.899 14.734-18.296 1.258-19.482Z" fill="url(#i)"/>
<path d="m227.841 405.57.629.629-.629-.629Z" fill="#0F0E07"/>
<path d="m369.241 408.084.629.628-.629-.628Z" fill="#0E0B05"/>
<path d="m394.38 408.084.628.628-.628-.628Z" fill="#0D0B05"/>
<path d="m301.37 408.712.628.629-.628-.629Z" fill="#0F0E07"/>
<path d="m366.728 409.34.628.63-.628-.63Z" fill="#0E0B05"/>
<path d="m269.319 410.598.628.628-.628-.628Zm26.394 0 .629.628-.629-.628Z" fill="#0F0E07"/>
<path d="m362.329 411.226.628.629-.628-.629Z" fill="#0D0B05"/>
<path d="m299.484 413.111.629.629-.629-.629Z" fill="#0F0E07"/>
<path d="m317.709 413.111.628.629-.628-.629Z" fill="#0F0D06"/>
<path d="m358.558 413.111.628.629-.628-.629Z" fill="#0E0B05"/>
<path d="m226.584 413.74.629.628-.629-.628Zm72.272 0 .628.628-.628-.628Z" fill="#0F0E07"/>
<path d="m357.301 413.74.629.628-.629-.628Z" fill="#0E0B05"/>
<path d="m284.401 414.997.629.628-.629-.628Z" fill="#0F0E07"/>
<path d="m318.337 414.997.629.628-.629-.628Zm5.028 0 .628.628-.628-.628Z" fill="#0F0D06"/>
<path d="m190.135 416.254.628.628-.628-.628Z" fill="#0D0B05"/>
<path d="m236.011 416.882.629.629-.629-.629Zm35.822 1.257.628.628-.628-.628Z" fill="#0F0E07"/>
<path d="m346.618 418.139.628.628-.628-.628Zm-1.886.628.629.629-.629-.629Z" fill="#0E0B05"/>
<path d="m400.035 419.396.629.628-.629-.628Zm1.257 0 .629.628-.629-.628Z" fill="#0D0B05"/>
<path d="m340.333 420.024.628.629-.628-.629Z" fill="#0F0D06"/>
<path d="M352.273 424.425c2.421 5.197 7.914 10.545 12.569 13.825l-5.655-17.596-6.914 3.771Z" fill="url(#j)"/>
<path d="m325.879 421.281.628.629-.628-.629Zm-109.35 1.257.629.629-.629-.629Z" fill="#0F0D06"/>
<path d="m255.493 422.538.628.629-.628-.629Z" fill="#0F0E07"/>
<path d="m353.53 423.167.629.628-.629-.628Z" fill="#0D0B05"/>
<path d="m261.149 423.795.628.628-.628-.628Z" fill="#0F0D06"/>
<path d="m354.787 428.194.629.629-.629-.629Zm.629.629.628.628-.628-.628Z" fill="#0D0B05"/>
<path d="M245.437 451.448h.63l5.655-20.111-7.153-1.215-.388 5.614 1.256 15.712Z" fill="url(#k)"/>
<path d="m356.044 429.451.629.628-.629-.628Zm6.285 2.514.628.628-.628-.628Z" fill="#0D0B05"/>
<path d="m297.598 435.107 6.914 20.112c1.552-3.596 6.338-17.48 2.941-20.36-2.63-2.23-7.001-.506-9.855.248Z" fill="url(#l)"/>
<path d="m298.856 434.479.628.628-.628-.628Z" fill="#0D0B05"/>
<path d="m360.443 434.479.629.628-.629-.628Zm-29.537 2.513.629.629-.629-.629Z" fill="#010101"/>
<path d="m363.586 437.62.628.63-.628-.63Zm-65.359.63.629.628-.629-.628Zm65.987 0 1.257 1.256-1.257-1.256Z" fill="#0D0B05"/>
<path d="m364.842 438.25.629.628-.629-.628Z" fill="#fff"/>
<path d="m334.049 439.506.628.629-.628-.629Z" fill="#0E0B05"/>
<path d="m248.58 440.135.628.628-.628-.628Z" fill="#0D0B05"/>
<path d="M434.9 286.539c-2.487-.453-4.432-2.302-4.432-4.213 0-1.805 1.156-3.626 5.862-9.237 3.754-4.476 3.3-4.358-3.646.952-7.682 5.873-13.182 8.108-20.85 8.475-3.56.17-6.474.081-6.474-.198s1.05-1.39 2.332-2.469c1.282-1.08 5.588-6.32 9.568-11.645 7.27-9.727 10.817-13.024 15.488-14.395 7.387-2.167 16.898 3.54 19.039 11.422 1.987 7.319-4.466 19.105-11.536 21.068-1.522.423-2.933.725-3.136.672-.203-.053-1.2-.248-2.216-.432h.001Z" fill="#FEF666"/>
<path d="M424.93 328.668c-2.419-.671-5.532-3.195-7.796-6.32-2.696-3.722-4.599-8.816-7.795-20.872-1.4-5.28-2.713-10.147-2.918-10.815-1.033-3.369 6.311-5.082 15.292-3.567 7.067 1.192 9.665 3.563 10.932 9.977.48 2.423.962 4.737 1.073 5.144.11.406.632-1.537 1.158-4.318.585-3.092 1.601-5.807 2.617-6.987l1.66-1.93 2.693 1.817c4.231 2.855 6.626 8.458 6.582 15.396-.063 9.818-4.106 17.469-10.924 20.674-3.374 1.586-9.952 2.528-12.574 1.8v.001Z" fill="#FEF67A"/>
</svg>
