<svg width="512" height="512" fill="none" xmlns="http://www.w3.org/2000/svg">
<circle cx="256" cy="256" r="256" fill="#fff"/>
<path fill-rule="evenodd" clip-rule="evenodd" d="M281.904 192.046c9.201-8.613 21.235-13.091 33.928-12.636l.015.004c26.149.919 46.617 22.855 45.735 48.957-.402 12.585-5.716 24.26-14.951 32.914-9.254 8.612-21.349 13.091-34.035 12.708-26.103-.957-46.578-22.924-45.697-49.033.384-12.635 5.808-24.302 15.005-32.914Zm20.671 25.105c0 7.694 9.385 13.972 21.004 13.972 11.613 0 21.024-6.278 21.032-13.972 0-7.766-9.412-14.009-21.032-14.009-11.619 0-21.004 6.243-21.004 14.009Z" fill="#73BA25"/>
<path fill-rule="evenodd" clip-rule="evenodd" d="M430.46 289.715c-.829.566-1.768 1.206-2.798 1.886l.043-.004h.003l-.03.021c-15.62 10.913-52.061 36.374-98.839 32.216-42.055-3.713-96.952-27.789-163.159-71.349 2.952 6.894 16.757 39.464 19.015 44.976l.924 1.068c9.584 4.976 101.553 51.754 147.211 50.832 36.764-.766 76.113-18.676 91.854-28.134l4.961-.919c1.422 1.114 1.192 3.216.801 5.202-.966 4.513-3.175 12.743-4.673 16.651l-1.262 3.181c-1.805 4.819-3.531 9.297-6.866 12.057-9.281 8.417-24.079 15.116-47.268 25.183-35.845 15.655-94.001 25.607-147.978 25.266-19.353-.428-38.03-2.572-54.438-4.486l-.12-.013c-43.921-4.951-77.2-8.702-89.886 20.952C36.45 380.409 11 321.177 11 256c0-55.306 18.325-106.331 49.235-147.336 39.845 9.785 68.796 19.174 76.252 21.675.092-3.671.705-36.513.705-36.513l.476-1.148 1.265-.348c7.437 1.072 166.149 24.574 233.084 63.501 6.826 3.988 10.799 8.182 14.847 12.455.852.899 1.707 1.802 2.593 2.707 18.478 19.1 42.932 98.525 45.543 114.908l-1.031 1.604c-.636.25-1.854 1.081-3.509 2.21ZM267.662 177.611c-13.256 12.325-20.851 29.129-21.522 47.234h.039c-1.265 37.359 28.104 68.826 65.478 70.201 18.233.612 35.499-5.78 48.764-18.22 13.226-12.287 20.816-29.091 21.522-47.196 1.265-37.324-28.135-68.865-65.555-70.2-18.153-.575-35.461 5.814-48.726 18.181Z" fill="#73BA25"/>
</svg>
