<svg width="512" height="512" fill="none" xmlns="http://www.w3.org/2000/svg">
<circle cx="256" cy="256" r="256" fill="#fff"/>
<path d="M400.975 234.085c-.672 2.86-2.124 5.393-4.603 6.986-3.894 2.497-8.639 1.773-12.002-1.267-3.152-2.823-4.214-7.601-3.222-11.727 1.026-4.307 4.284-8.108 8.462-9.302 9.312-2.643 13.171 7.709 11.365 15.31Zm-5.7-29.39c-5.771-2.353-3.789-33.3 1.487-70.87 1.487-10.497 4.036-15.456 6.904-17.989 4.107-3.584 11.578-3.728 16.641-2.968 5.807.868 11.366 3.619 15.579 7.782 3.718 3.692 4.143 7.456 2.868 12.342-2.089 7.782-5.665 15.238-9.099 22.514-.815 1.773-7.931 15.563-8.887 17.265-17.173 30.91-20.607 33.914-25.493 31.924Z" fill="#6CC7D2"/>
<path d="M278.787 190.76c3.399 14.84 3.045 31.127.141 42.855-2.726 11.075-10.126 20.993-21.881 24.323-10.303 2.932-22.306.796-29.671-6.443-12.109-11.872-19.19-39.742-16.039-59.975 2.549-16.252 11.118-37.064 29.919-37.969a24.198 24.198 0 0 1 3.611.072c19.155 1.774 29.6 18.279 33.92 37.137Zm-34.628 33.77c1.062.181 2.124.181 3.187-.145 3.576-1.05 5.629-4.85 6.585-8.542 1.452-5.61 1.239-11.655-.637-17.157-.956-2.787-2.372-5.501-4.532-7.528-7.613-7.131-15.225.289-16.535 8.723-1.027 6.587.46 14.224 4.496 19.545 1.877 2.461 4.568 4.597 7.436 5.104Z" fill="#BBB5B3"/>
<path d="M320.248 222.213c-.035 27.4 2.656 48.357-9.135 50.854-9.56 1.991-9.241-6.587-9.984-13.79-2.833-27.906-5.418-74.272-6.515-102.324.779-12.053 8.674-19.436 16.889-21.246 12.675-2.787 26.201-1.991 37.425 5.103 22.2 14.044 23.97 39.815 10.515 60.844-7.364 11.474-29.635 19.799-39.195 19.075v1.484Zm2.833-61.423c-1.381.217-3.647.869-4.284 2.244-1.523 3.221-1.417 23.672 1.239 32.25.425 1.412 1.381 2.751 2.761 3.258 5.028 1.882 9.56-4.416 11.614-8.217 2.868-5.284 3.788-11.51 1.983-17.301-1.7-5.393-6.975-13.211-13.313-12.234Z" fill="#99918D"/>
<path d="M193.28 174.399c-8.321 17.989-22.13 32.286-41.249 39.344 5.488 14.66 11.082 29.138 16.535 43.76 3.045 7.891 5.948 16.542 3.293 24.324-2.762 7.962-13.526 10.17-21.351 1.701-15.048-16.361-65.927-120.023-69.68-127.805-3.187-6.696-7.967-13.863-7.825-21.609.248-11.655 17.88-23.454 26.343-29.499 11.825-8.433 25.492-14.188 40.115-14.224 11.401 0 21.138 3.185 29.777 8.831 13.243 8.687 22.448 22.55 25.847 38.222 2.975 13.79 2.337 27.907-1.805 36.955Zm-38.771-19.69c-2.974-11.039-9.701-21.21-18.163-28.341-1.842-1.556-3.824-3.004-6.126-3.8-15.862-5.321-8.993 21.789-6.408 28.63 3.576 9.592 8.993 21.717 16.251 28.956 1.594 1.593 3.47 3.005 5.63 3.439 3.293.688 6.338-1.665 8.002-4.416 1.381-2.28 1.912-4.995 2.231-7.637.601-5.61.07-11.329-1.417-16.831Z" fill="#48B9C7"/>
<path d="M382.966 312.184c-.071 15.89-9.56 31.779-30.485 31.779-20.926 0-30.663-15.636-30.663-31.598 0-19.907 13.561-32.214 31.087-32.214 20.324.181 30.238 15.6 30.061 32.033Zm-30.061-22.007c-13.135 0-20.5 9.339-20.571 22.079 0 11.076 6.055 21.464 20.324 21.464 14.268 0 19.721-11.257 19.721-21.572.177-10.714-5.382-21.717-19.474-21.971Zm38.842 45.642c0 2.353.07-11.184 0-13.247h9.63l.673 8.289c3.151 1.846 8.037 3.221 12.038 3.221 7.436 0 15.19-1.918 15.19-9.338-.248-6.733-8.887-8.108-15.863-8.832-11.861-1.231-21.421-4.199-21.421-17.808 0-12.125 13.42-18.17 23.404-18.17 8.038-.181 13.738 1.122 20.996 7.058 0 4.886-.07 7.782-.07 12.668h-9.312l-.602-8.035c-3.753-1.846-7.613-2.353-10.587-2.28-6.408.072-13.242 3.149-13.242 8.65 0 5.394 4.426 6.878 12.286 8.036 12.817 1.737 25.174 4.705 25.174 18.676-.071 15.275-14.092 19.292-26.13 19.292-9.17.037-14.906-1.701-22.164-8.18Z" fill="#554741"/>
<path d="M308.824 338.751c0 2.787-2.195 5.031-4.921 5.031h-56.899c-2.726 0-4.921-2.244-4.921-5.031v-.434c0-2.787 2.195-5.031 4.921-5.031h56.899c2.726 0 4.921 2.244 4.921 5.031v.434Z" fill="#FAA41A"/>
</svg>
