<svg width="512" height="512" fill="none" xmlns="http://www.w3.org/2000/svg">
<circle cx="256" cy="256" r="256" fill="#fff"/>
<path d="M271.466 65A191.387 191.387 0 0 0 80.081 256.385c.12 12.004 1.37 23.97 3.732 35.741l-1.289-5.251c-70.546 49.084-76.455 98.024 31.602 78.473l.045-.018a1483.809 1483.809 0 0 0 25.999-7.942c3.633-1.145 7.254-2.309 10.87-3.487a1334.676 1334.676 0 0 0 24.652-8.271l.748-.254a1193.623 1193.623 0 0 0 58.988-22.201c.377-.15.76-.287 1.137-.44.018 0 .03 0 .051-.006l-.024-.03c32.466-13.268 63.306-27.655 93.069-43.411a41.867 41.867 0 0 0 23.953 7.539 41.868 41.868 0 0 0 41.866-41.866c0-1.234-.055-2.467-.165-3.696 28.618-18.044 56.593-37.652 84.509-59.096 3.827-7.248-1.534-24.608-18.316-20.29-24.952 20.251-50.777 38.334-77.179 54.638a41.874 41.874 0 0 0-30.715-13.421 41.866 41.866 0 0 0-41.865 41.865c.009 3.667.5 7.317 1.459 10.855-31.889 15.784-64.212 29.599-96.505 42.045a142.038 142.038 0 0 1-23.31-77.11A142.045 142.045 0 0 1 335.436 78.708c2.553 0 5.106.07 7.655.21A191.38 191.38 0 0 0 271.466 65Zm188.487 223.926a142.044 142.044 0 0 1-124.514 73.871 142.04 142.04 0 0 1-81.769-25.944l-.018.036c-36.946 15.098-75.51 30.212-126.314 45.415a191.389 191.389 0 0 0 144.128 65.468 191.381 191.381 0 0 0 188.487-158.849v.003ZM88.66 311.79a191.376 191.376 0 0 0 10.377 26.845l-.329.105c-54.951 13.301-23.998-7.273-8.744-21.651l-1.304-5.299Z" fill="#DC322F"/>
</svg>
