<svg xmlns="http://www.w3.org/2000/svg" width="512" height="512"><path d="M159.03 0c-11.987 37.222-7.81 24.882-11.987 37.222C57.657 77.09.076 165.712 0 263.512a247.84 247.84 0 0 0 10.985 72.947L.764 354.614l20.702 9.35c39.75 89.646 128.636 147.477 226.777 147.548 117.308-.056 218.563-82.145 242.772-196.82 8.22-11.091 15.06-23.25 20.985-35.684a242.009 242.011 0 0 0-15.537-15.052l.019-.452c0-136.97-111.143-248.008-248.24-248.008a248.457 248.46 0 0 0-68.758 9.838z" style="fill:#4c5263;fill-opacity:1;stroke-width:3.87693"/><path d="M166.783 34.875C141.566 137.692 68.97 264.21 23.268 344.885c5.726 3.097 13.6 5.696 40.397 9.67 25.488 3.637 56.875 7.23 87.355 10.394 55.893 5.801 100.48 10.252 108.862 10.94-1.196-15.537-12.7-184.459-15.518-217.008-28.208-51.067-51.089-77.462-77.573-124.006Zm96.974 131.755.008.008v-.008zm.008.008c37.38 76.935 37.414 153.057 15.511 209.248 30.842.188 81.174 3.645 135.754-23.25-44.86-102.325-151.235-185.976-151.27-185.998Zm73.688 46.492c23.196 15.534 45.302 29.71 62.058 46.5 22.693 22.753 34.288 53.399 31.03 85.256 30.397-15.263 50.502-40.71 62.062-62-20.213-18.595-55.313-37-93.092-50.377-20.826-7.378-42.763-14.078-62.058-19.375zm153.792 101.343c-36.255 48.851-103.212 74.964-182.979 86.54-83.224 12.084-179.732 8.49-265.845 1.143 4.123 6.151 8.653 12.122 13.314 17.885 82.897 6.565 174.22 9.255 254.943-2.471 67.318-9.767 128.154-29.593 169.883-66.439a239.082 239.084 0 0 0 10.684-36.658z" style="color:#000;text-indent:0;text-decoration-line:none;text-decoration-style:solid;text-decoration-color:#000;text-transform:none;white-space:normal;isolation:auto;mix-blend-mode:normal;fill:#fff;fill-rule:evenodd;stroke-width:3.87693"/><path fill="#5294e2" d="M310.67 417.622c-84.375 11.918-170.308 8.965-254.977 2.483 54.486 69.542 149.177 104.586 236.645 87.698 84.42-14.522 158.412-76.397 188.219-156.676-50.13 35.59-109.356 57.191-169.887 66.499z" style="stroke-width:3.88118"/><circle cx="434.5" cy="434.5" r="77.5" fill="#e91f63" style="stroke-width:.302734"/><path fill="#fff" d="M425.077 383.035h-35.382a1.514 1.514 0 0 0 0 3.027h32.77c.235-.346.477-.693.727-1.038l1.108-1.53z" style="stroke-width:.302734"/><path fill="#fff" fill-opacity=".7" d="M414.02 402.627a209.462 209.462 0 0 0-.82 2.205h-37.43a1.514 1.514 0 0 1 0-3.027h38.595l-.109.196z" style="stroke-width:.302734"/><path fill="#fff" fill-opacity=".3" d="M409.98 420.271h-40.265a1.514 1.514 0 0 0 0 3.028h39.85l.026-.131.01-.045c.187-.955.31-1.593.387-2.094a31.968 31.968 0 0 1-.007-.758z" style="stroke-width:.302734"/><path fill="#fff" d="M411.238 439.041H368.2a1.514 1.514 0 0 0 0 3.027h45.341a47.373 47.373 0 0 0-.91-1.146 15.756 15.756 0 0 1-1.394-1.881z" style="stroke-width:.302734"/><path fill="#fff" fill-opacity=".6" d="M422.95 457.508h-50.208a1.514 1.514 0 0 0 0 3.027h51.827a186.596 186.596 0 0 0-.904-1.726 1609.327 1609.327 0 0 1-.715-1.301z" style="stroke-width:.302734"/><path fill="#fff" d="M431.847 476.277h-46.995a1.514 1.514 0 0 0 0 3.028h48.221a229.097 229.097 0 0 0-1.226-3.028zm16.36-102.063c-.593 2.65-4.773-.583-5.566 2.416-4.681-3.297-.287 3.569-.907 4.002l-.038-.008-.371-.112c-.231-.138-.56-.362-1.029-.795-4.15 2.15-5.404 8.068-9.75 10.635-3.452 4.765-5.167 10.326-8.025 15.473-1.903 5.057-3.702 10.135-3.432 15.62-.448 4.333-2.816 9.88.477 13.61 4.823 5.852 8.423 12.776 12.089 19.435 5.731 10.793 10.419 22.138 14.341 33.648.902-2.5.33 5.446 1.953 6.309.166-3.997.605-10.315 1.172-15.18.545-12.904-3.392-25.428-3.271-38.289.031-.537.053-1.091.085-1.638l.306-1.557-.19-.037c.447-6.279 1.482-12.972 6.867-16.838 5.451-3.688 12.452-3.51 18.54-5.62 1.357-.48 2.749-.81 4.131-.967.012-.002.028.009.038.007 4.025-.424 8.067.41 11.88 1.827.057.022.127.055.183.076.347.13.723.267 1.065.406 2.831.825 8.41 3.097 9.848 1.309-3.308-4.176-9.096-5.064-13.709-7.362-.74-.291-1.657-.63-2.588-.904l-4.546-2-1.118-.537-.008.038-16.373-6.66a8.319 8.319 0 0 0-.702-.85l16.134 5.314.014-.076c.558.245 1.117.465 1.692.649l-.007.037 11.272 4.47c1.87 1.151 3.912 2.134 5.904 2.666 3.236 1.141 6.5 6.952 7.535 7.408.496-5.346-4.27-8.723-8.309-11.11-4.585-3.468-12.18-4.863-11.687-11.853-.12-.517-.237-1.033-.406-1.545l-1.452-3.014.083-.023c-2.072-3.718-5.41-6.776-9.273-8.459-3.728-2.174-7.956-4.435-12.117-5.823-2.269 3.95-2.379-3.955-6.277-2.38-3.098-.238-2.843.643-4.714-1.719h.256zm19.325 16.692c1.102.187 2.313.634 3.491 1.319 3.128 1.821 4.834 4.704 3.823 6.438-1.01 1.733-4.38 1.65-7.506-.178-3.127-1.828-4.844-4.655-3.83-6.4.632-1.088 2.188-1.49 4.022-1.18z" style="stroke-width:.302734"/><path fill="#e91f63" d="M466.893 398.626c3.134 2.005 5.676 2.01 6.962 0 1.286-2.01-.044-4.352-3.178-6.357-3.134-2.006-5.828-2.01-7.115 0-1.286 2.01.196 4.352 3.33 6.357z" style="stroke-width:.302734"/><path fill="#fff" fill-rule="evenodd" d="M471.284 399.026c1.137-.001 1.765-.39 2.036-.812.27-.423.36-1.156-.116-2.189-.467-1.015-1.411-2.12-2.772-2.99-1.36-.871-2.76-1.265-3.877-1.264-1.137.001-1.765.39-2.035.813-.27.422-.36 1.155.115 2.188.468 1.015 1.412 2.121 2.772 2.991 1.36.87 2.76 1.264 3.877 1.263zm3.31.003c-1.286 2.01-4.869 2.014-8.003.009-3.134-2.005-4.632-5.26-3.346-7.27 1.286-2.01 4.87-2.015 8.003-.01 3.135 2.005 5.03 6.005 3.346 7.27z" clip-rule="evenodd" style="stroke-width:.302734"/></svg>