<svg width="512" height="512" xmlns="http://www.w3.org/2000/svg">
<path d="M159.03 0c-11.987 37.222-7.81 24.882-11.987 37.222C57.657 77.09.076 165.712 0 263.512a247.84 247.84 0 0 0 10.985 72.947L.764 354.614l20.702 9.35c39.75 89.646 128.636 147.477 226.777 147.548 117.308-.056 218.563-82.145 242.772-196.82 8.22-11.091 15.06-23.25 20.985-35.684a242.009 242.011 0 0 0-15.537-15.052l.019-.452c0-136.97-111.143-248.008-248.24-248.008a248.457 248.46 0 0 0-68.758 9.838z" style="fill:#4c5263;fill-opacity:1;stroke-width:3.87693"/>
<path style="color:#000;text-indent:0;text-decoration-line:none;text-decoration-style:solid;text-decoration-color:#000;text-transform:none;white-space:normal;isolation:auto;mix-blend-mode:normal;fill:#fff;fill-rule:evenodd;stroke-width:3.87693" d="M166.783 34.875C141.566 137.692 68.97 264.21 23.268 344.885c5.726 3.097 13.6 5.696 40.397 9.67 25.488 3.637 56.875 7.23 87.355 10.394 55.893 5.801 100.48 10.252 108.862 10.94-1.196-15.537-12.7-184.459-15.518-217.008-28.208-51.067-51.089-77.462-77.573-124.006Zm96.974 131.755.008.008v-.008zm.008.008c37.38 76.935 37.414 153.057 15.511 209.248 30.842.188 81.174 3.645 135.754-23.25-44.86-102.325-151.235-185.976-151.27-185.998Zm73.688 46.492c23.196 15.534 45.302 29.71 62.058 46.5 22.693 22.753 34.288 53.399 31.03 85.256 30.397-15.263 50.502-40.71 62.062-62-20.213-18.595-55.313-37-93.092-50.377-20.826-7.378-42.763-14.078-62.058-19.375zm153.792 101.343c-36.255 48.851-103.212 74.964-182.979 86.54-83.224 12.084-179.732 8.49-265.845 1.143 4.123 6.151 8.653 12.122 13.314 17.885 82.897 6.565 174.22 9.255 254.943-2.471 67.318-9.767 128.154-29.593 169.883-66.439a239.082 239.084 0 0 0 10.684-36.658z"/>
<path d="M310.67 417.622c-84.375 11.918-170.308 8.965-254.977 2.483 54.486 69.542 149.177 104.586 236.645 87.698 84.42-14.522 158.412-76.397 188.219-156.676-50.13 35.59-109.356 57.191-169.887 66.499z" fill="#5294e2" style="stroke-width:3.88118"/>
</svg>
