<svg width="512" height="512" fill="none" xmlns="http://www.w3.org/2000/svg">
<circle cx="256" cy="256" r="256" fill="#fff"/>
<path d="M256 512c141.385 0 256-114.615 256-256S397.385 0 256 0 0 114.615 0 256s114.615 256 256 256Z" fill="#404552"/>
<path d="M344 300c-35.112 0-64.63 24.944-74 58-1.978 6.978-3.339 9.368-6 14-3.431 5.972-10.397 14.598-20 20-7.812 4.395-14.545 8.135-24.606 6.619-2.619-.394-7.259-1.124-11.902-3.795-7.4-4.26-9.84-8-15.5-18.82.808 11.548-.681 15.761 5 36 11.308 40.288 54.762 72 106 72 37.982 0 73.184-15.83 92.992-39.996 7.245-8.838 12.7-15.812 18-28 4.823-11.09 6.005-25.306 6.008-38.004.012-43.112-34.026-78-76-78L344 300Z" fill="#fff"/>
</svg>
