<svg width="512" height="512" fill="none" xmlns="http://www.w3.org/2000/svg">
<defs>
<clipPath id="a">
<path fill="#fff" d="M0 0h512v512H0z"/>
</clipPath>
</defs>
<g clip-path="url(#a)">
<circle cx="256" cy="256" r="256" fill="#fff"/>
<path d="M256 512c141.385 0 256-114.615 256-256S397.385 0 256 0 0 114.615 0 256s114.615 256 256 256Z" fill="#DD4814"/>
<path fill-rule="evenodd" clip-rule="evenodd" d="M388.553 414.749a37.104 37.104 0 0 1-44.36 36.385 37.108 37.108 0 0 1-29.137-29.181 37.104 37.104 0 0 1 62.65-33.419 37.102 37.102 0 0 1 10.847 26.215Z" fill="#F9F9F9"/>
<path d="M386.906 106.765c5.065-19.855-6.925-40.056-26.78-45.12-19.854-5.066-40.056 6.924-45.12 26.779-5.065 19.855 6.925 40.056 26.78 45.121 19.855 5.064 40.056-6.926 45.12-26.78Zm-278.55 152.762c1.689-20.421-13.495-38.345-33.916-40.035-20.42-1.689-38.345 13.495-40.034 33.916-1.69 20.421 13.495 38.345 33.915 40.035 20.421 1.689 38.345-13.495 40.035-33.916Z" fill="#F9F9F9"/>
<path fill-rule="evenodd" clip-rule="evenodd" d="m242.903 232.615 13.379-18.214-4.835-19.225 8.657-25.634-20.574 20.8-2.923-.45 5.396-13.323-19.169 19.394-18.269 11.187-19.675 36.427 10.849 26.701 3.429 20.743 4.441 10.513-15.009 17.707h20.912l2.698-18.776 8.432-12.929 13.885 2.474 15.74-6.184 11.58-5.959 11.468 7.477-13.492 16.021-13.941 12.761 21.474.337.112-8.657 16.584-12.986 5.958 7.421-17.201 24.509 21.98.056-1.068-12.254 15.908-14.56-8.095-16.302-.955-19.788 16.246-9.387 9.05 1.742 12.311-4.328 3.598-24.903-19.225 5.902-11.693 17.146-19.9 10.512-27.995-11.243-20.068-14.728Z" fill="#F9F9F9"/>
<path fill-rule="evenodd" clip-rule="evenodd" d="M214.571 160.773a105.906 105.906 0 0 1 131.721 38.819 105.921 105.921 0 0 1 16.629 46.458l57.507-.787a163.022 163.022 0 0 0-47.614-103.434 49.31 49.31 0 0 1-23.609 5.15 49.31 49.31 0 0 1-23.221-6.688 49.303 49.303 0 0 1-24.393-40.005 164.387 164.387 0 0 0-43.96-6.015 162.34 162.34 0 0 0-72.516 16.865l29.456 49.637ZM194.67 342.739a105.853 105.853 0 0 1 1.517-171.454l-29.4-49.412a163.359 163.359 0 0 0-67.12 94.102 49.362 49.362 0 0 1 21.129 40.761 49.356 49.356 0 0 1-21.578 40.525 163.02 163.02 0 0 0 67.457 95.565l27.995-50.087Zm168.419-75.496a105.97 105.97 0 0 1-52.706 82.132 105.955 105.955 0 0 1-97.498 4.213l-28.108 50.143a163.019 163.019 0 0 0 117.263 11.243 49.477 49.477 0 0 1 24.09-42.35 49.465 49.465 0 0 1 48.708-1.16 162.403 162.403 0 0 0 45.815-104.727l-57.564.506Z" fill="#F9F9F9"/>
</g>
</svg>
