<svg width="512" height="512" fill="none" xmlns="http://www.w3.org/2000/svg">
<circle cx="256" cy="256" r="256" fill="#fff"/>
<path d="M512 256.002c0 141.379-114.618 255.996-256.005 255.996C114.611 511.998 0 397.381 0 256.002 0 114.613 114.611 0 255.995 0 397.382 0 512 114.613 512 256.002Z" fill="#F47421"/>
<path d="M325.947 134.832c16.346 9.44 37.243 3.841 46.676-12.5 9.438-16.348 3.844-37.243-12.504-46.681-16.344-9.435-37.239-3.837-46.677 12.51-9.435 16.342-3.838 37.236 12.505 46.671Zm-69.95 221.006a99.448 99.448 0 0 1-42.057-9.289l-23.748 42.558c19.837 9.822 42.17 15.372 65.805 15.372 13.746 0 27.036-1.905 39.667-5.402 2.234-13.727 10.385-26.379 23.38-33.883 12.972-7.489 27.985-8.231 40.98-3.32 25.272-24.85 41.717-58.659 44.111-96.311l-48.71-.709c-4.483 51.001-47.269 90.984-99.428 90.984Zm0-199.679c52.159 0 94.945 39.991 99.428 90.986l48.71-.711c-2.397-37.648-18.842-71.458-44.118-96.306-12.993 4.908-28.004 4.164-40.978-3.327-12.993-7.501-21.142-20.151-23.377-33.88a148.51 148.51 0 0 0-39.665-5.4c-23.635 0-45.966 5.548-65.802 15.374l23.747 42.553a99.417 99.417 0 0 1 42.055-9.289Zm-99.837 99.839c0-33.778 16.786-63.611 42.452-81.677l-24.986-41.858c-29.91 19.985-52.161 50.533-61.402 86.316 10.796 8.799 17.694 22.2 17.694 37.223 0 15.021-6.899 28.421-17.696 37.219 9.24 35.785 31.491 66.333 61.402 86.318l24.988-41.86c-25.666-18.064-42.452-47.898-42.452-81.681Zm169.792 121.165c-16.348 9.438-21.945 30.331-12.509 46.672 9.439 16.348 30.331 21.949 46.679 12.511 16.343-9.437 21.943-30.331 12.504-46.678-9.435-16.339-30.331-21.94-46.674-12.505ZM81.921 221.825c-18.88 0-34.179 15.297-34.179 34.177 0 18.875 15.299 34.173 34.179 34.173 18.873 0 34.173-15.298 34.173-34.173 0-18.88-15.3-34.177-34.173-34.177Z" fill="#fff"/>
</svg>
