<svg width="512" height="512" fill="none" xmlns="http://www.w3.org/2000/svg">
<circle cx="256" cy="256" r="256" fill="#fff"/>
<path fill-rule="evenodd" clip-rule="evenodd" d="M248.81.07C110.489 3.376.109 116.526 0 255.124c-.145 181.654 181.527 305.291 350.496 238.532 117.602-46.465 183.621-173.67 154.26-297.228-1.774-7.467-3.09-12.182-5.844-20.944-16.9-53.753-57.66-105.548-107.646-136.79-5.919-3.699-8.899-5.368-21.046-11.786C336.412 9.048 291.216-.944 248.81.07Zm69.168 80.507a54021.586 54021.586 0 0 0 46.847 27.669c24.448 14.432 28.402 16.769 30.766 18.184 2.719 1.627 4.313.447-19.743 14.608a77638.73 77638.73 0 0 0-67.533 39.795c-4.103 2.422-8.009 4.7-8.68 5.06l-1.222.653V69.005l2.066 1.225c1.137.673 9.011 5.33 17.499 10.347Zm-48.044 19.46c8.132.74 7.519-.201 7.519 11.515 0 12.165.795 11.224-8.561 10.132-55.685-6.495-111.495 25.327-136 77.545l-2.855 6.083-4.959-2.975a857.407 857.407 0 0 0-8.956-5.293c-4.801-2.785-4.758-2.223-.768-10.333 7.304-14.84 23.339-36.921 31.382-43.218.82-.641 2.854-2.457 4.521-4.033 29.77-28.162 75.497-43.352 118.677-39.423Zm.646 53.662c2.728.475 5.27.975 5.649 1.112.519.186.689 2.913.689 11.079v10.834l-1.791-.368c-42.241-8.675-82.395 12.911-96.056 51.64-1.913 5.42-1.482 5.309-7.222 1.882a858.353 858.353 0 0 0-9.136-5.368c-4.865-2.807-4.748-2.515-2.863-7.154 17.887-44.023 65.697-71.508 110.73-63.657Zm113.453 12.554c32.939 46.243 37.397 108.792 11.401 159.956-6.418 12.633-14.254 24.354-15.867 23.735-4.726-1.813-17.75-10.448-17.105-11.341 20.191-27.937 27.743-50.628 27.694-83.203-.046-29.879-11.176-63.86-26.31-80.326-1.421-1.546-1.905-1.118 8.041-7.132 10.017-6.059 9.123-5.935 12.146-1.689Zm-47.477 25.628c2.109 2.244 7.076 9.752 9.96 15.05 19.125 35.14 15.975 78.451-8.038 110.513l-4.3 5.742-1.805-.963c-5.3-2.826-16.861-9.842-16.867-10.236-.004-.252 1.446-2.236 3.222-4.409 24.585-30.092 24.699-74.239.267-103.247-3.14-3.728-3.606-3.073 6.286-8.86 9.856-5.767 9.375-5.614 11.275-3.59ZM86.12 203.948c5.968 3.529 14.074 8.33 18.014 10.669a5131.664 5131.664 0 0 0 16.81 9.911c5.305 3.112 10.761 6.342 12.126 7.176 1.364.833 7.316 4.363 13.227 7.845 23.767 13.996 27.006 15.956 27.006 16.326 0 .212-2.294 1.734-5.098 3.38a3679.597 3679.597 0 0 0-10.334 6.099c-9.466 5.61-26.491 15.647-41.06 24.206-7.882 4.631-15.446 9.099-16.81 9.93-6.364 3.88-24.306 14.388-25.06 14.676-.885.34-1.36-115.385-.476-116.268.551-.553.072-.802 11.655 6.05Zm92.12 77.493c11.403 38.067 55.756 63.473 94.544 54.157 1.819-.437 3.493-.803 3.721-.814 1.005-.047.461 21.937-.552 22.251-6.312 1.954-24.188 2.541-34.321 1.127-36.45-5.083-68.215-29.77-81.572-63.394-2.124-5.347-2.798-4.405 7.467-10.444 10.243-6.025 9.806-5.907 10.713-2.883Zm-45.492 30.736c24.473 53.825 81.761 85.13 141.552 77.349l2.618-.34v10.782c0 9.789-.088 10.806-.965 11.071-.53.158-4.684.578-9.231.931-62.223 4.827-123.073-29.993-151.144-86.489-4.382-8.82-4.87-7.624 5.642-13.866 9.794-5.814 8.603-5.872 11.528.562Zm192.946 30.87a18592.274 18592.274 0 0 1 30.864 18.179 9212.582 9212.582 0 0 0 16.534 9.76c5.154 3.034 12.656 7.453 16.673 9.82 7.043 4.153 8.263 5.28 6.458 5.973-.465.177-5.735 3.217-11.712 6.753a41634.479 41634.479 0 0 1-24.37 14.404 38877.115 38877.115 0 0 0-23.975 14.168c-5.76 3.406-14.812 8.75-20.117 11.873a3378.074 3378.074 0 0 0-13.193 7.796c-1.951 1.164-3.749 2.118-3.996 2.118-.246 0-.447-26.31-.447-58.467v-58.465l1.791 1.076c.985.591 12.456 7.347 25.49 15.012Z" fill="#84A454"/>
</svg>
