<svg xmlns="http://www.w3.org/2000/svg" width="512" height="512" fill="none"><circle cx="256" cy="256" r="256" fill="#fff"/><path fill="#84A454" fill-rule="evenodd" d="M248.81.07C110.489 3.376.109 116.526 0 255.124c-.145 181.654 181.527 305.291 350.496 238.532 117.602-46.465 183.621-173.67 154.26-297.228-1.774-7.467-3.09-12.182-5.844-20.944-16.9-53.753-57.66-105.548-107.646-136.79-5.919-3.699-8.899-5.368-21.046-11.786C336.412 9.048 291.216-.944 248.81.07Zm69.168 80.507a54021.586 54021.586 0 0 0 46.847 27.669c24.448 14.432 28.402 16.769 30.766 18.184 2.719 1.627 4.313.447-19.743 14.608a77638.73 77638.73 0 0 0-67.533 39.795c-4.103 2.422-8.009 4.7-8.68 5.06l-1.222.653V69.005l2.066 1.225c1.137.673 9.011 5.33 17.499 10.347Zm-48.044 19.46c8.132.74 7.519-.201 7.519 11.515 0 12.165.795 11.224-8.561 10.132-55.685-6.495-111.495 25.327-136 77.545l-2.855 6.083-4.959-2.975a857.407 857.407 0 0 0-8.956-5.293c-4.801-2.785-4.758-2.223-.768-10.333 7.304-14.84 23.339-36.921 31.382-43.218.82-.641 2.854-2.457 4.521-4.033 29.77-28.162 75.497-43.352 118.677-39.423Zm.646 53.662c2.728.475 5.27.975 5.649 1.112.519.186.689 2.913.689 11.079v10.834l-1.791-.368c-42.241-8.675-82.395 12.911-96.056 51.64-1.913 5.42-1.482 5.309-7.222 1.882a858.353 858.353 0 0 0-9.136-5.368c-4.865-2.807-4.748-2.515-2.863-7.154 17.887-44.023 65.697-71.508 110.73-63.657Zm113.453 12.554c32.939 46.243 37.397 108.792 11.401 159.956-6.418 12.633-14.254 24.354-15.867 23.735-4.726-1.813-17.75-10.448-17.105-11.341 20.191-27.937 27.743-50.628 27.694-83.203-.046-29.879-11.176-63.86-26.31-80.326-1.421-1.546-1.905-1.118 8.041-7.132 10.017-6.059 9.123-5.935 12.146-1.689Zm-47.477 25.628c2.109 2.244 7.076 9.752 9.96 15.05 19.125 35.14 15.975 78.451-8.038 110.513l-4.3 5.742-1.805-.963c-5.3-2.826-16.861-9.842-16.867-10.236-.004-.252 1.446-2.236 3.222-4.409 24.585-30.092 24.699-74.239.267-103.247-3.14-3.728-3.606-3.073 6.286-8.86 9.856-5.767 9.375-5.614 11.275-3.59ZM86.12 203.948c5.968 3.529 14.074 8.33 18.014 10.669a5131.664 5131.664 0 0 0 16.81 9.911c5.305 3.112 10.761 6.342 12.126 7.176 1.364.833 7.316 4.363 13.227 7.845 23.767 13.996 27.006 15.956 27.006 16.326 0 .212-2.294 1.734-5.098 3.38a3679.597 3679.597 0 0 0-10.334 6.099c-9.466 5.61-26.491 15.647-41.06 24.206-7.882 4.631-15.446 9.099-16.81 9.93-6.364 3.88-24.306 14.388-25.06 14.676-.885.34-1.36-115.385-.476-116.268.551-.553.072-.802 11.655 6.05Zm92.12 77.493c11.403 38.067 55.756 63.473 94.544 54.157 1.819-.437 3.493-.803 3.721-.814 1.005-.047.461 21.937-.552 22.251-6.312 1.954-24.188 2.541-34.321 1.127-36.45-5.083-68.215-29.77-81.572-63.394-2.124-5.347-2.798-4.405 7.467-10.444 10.243-6.025 9.806-5.907 10.713-2.883Zm-45.492 30.736c24.473 53.825 81.761 85.13 141.552 77.349l2.618-.34v10.782c0 9.789-.088 10.806-.965 11.071-.53.158-4.684.578-9.231.931-62.223 4.827-123.073-29.993-151.144-86.489-4.382-8.82-4.87-7.624 5.642-13.866 9.794-5.814 8.603-5.872 11.528.562Zm192.946 30.87a18592.274 18592.274 0 0 1 30.864 18.179 9212.582 9212.582 0 0 0 16.534 9.76c5.154 3.034 12.656 7.453 16.673 9.82 7.043 4.153 8.263 5.28 6.458 5.973-.465.177-5.735 3.217-11.712 6.753a41634.479 41634.479 0 0 1-24.37 14.404 38877.115 38877.115 0 0 0-23.975 14.168c-5.76 3.406-14.812 8.75-20.117 11.873a3378.074 3378.074 0 0 0-13.193 7.796c-1.951 1.164-3.749 2.118-3.996 2.118-.246 0-.447-26.31-.447-58.467v-58.465l1.791 1.076c.985.591 12.456 7.347 25.49 15.012Z" clip-rule="evenodd"/><circle cx="434.5" cy="434.5" r="77.5" fill="#e91f63" style="stroke-width:.302734"/><path fill="#fff" d="M425.077 383.035h-35.382a1.514 1.514 0 0 0 0 3.027h32.77c.235-.346.477-.693.727-1.038l1.108-1.53z" style="stroke-width:.302734"/><path fill="#fff" fill-opacity=".7" d="M414.02 402.627a209.462 209.462 0 0 0-.82 2.205h-37.43a1.514 1.514 0 0 1 0-3.027h38.595l-.109.196z" style="stroke-width:.302734"/><path fill="#fff" fill-opacity=".3" d="M409.98 420.271h-40.265a1.514 1.514 0 0 0 0 3.028h39.85l.026-.131.01-.045c.187-.955.31-1.593.387-2.094a31.968 31.968 0 0 1-.007-.758z" style="stroke-width:.302734"/><path fill="#fff" d="M411.238 439.041H368.2a1.514 1.514 0 0 0 0 3.027h45.341a47.373 47.373 0 0 0-.91-1.146 15.756 15.756 0 0 1-1.394-1.881z" style="stroke-width:.302734"/><path fill="#fff" fill-opacity=".6" d="M422.95 457.508h-50.208a1.514 1.514 0 0 0 0 3.027h51.827a186.596 186.596 0 0 0-.904-1.726 1609.327 1609.327 0 0 1-.715-1.301z" style="stroke-width:.302734"/><path fill="#fff" d="M431.847 476.277h-46.995a1.514 1.514 0 0 0 0 3.028h48.221a229.097 229.097 0 0 0-1.226-3.028zm16.36-102.063c-.593 2.65-4.773-.583-5.566 2.416-4.681-3.297-.287 3.569-.907 4.002l-.038-.008-.371-.112c-.231-.138-.56-.362-1.029-.795-4.15 2.15-5.404 8.068-9.75 10.635-3.452 4.765-5.167 10.326-8.025 15.473-1.903 5.057-3.702 10.135-3.432 15.62-.448 4.333-2.816 9.88.477 13.61 4.823 5.852 8.423 12.776 12.089 19.435 5.731 10.793 10.419 22.138 14.341 33.648.902-2.5.33 5.446 1.953 6.309.166-3.997.605-10.315 1.172-15.18.545-12.904-3.392-25.428-3.271-38.289.031-.537.053-1.091.085-1.638l.306-1.557-.19-.037c.447-6.279 1.482-12.972 6.867-16.838 5.451-3.688 12.452-3.51 18.54-5.62 1.357-.48 2.749-.81 4.131-.967.012-.002.028.009.038.007 4.025-.424 8.067.41 11.88 1.827.057.022.127.055.183.076.347.13.723.267 1.065.406 2.831.825 8.41 3.097 9.848 1.309-3.308-4.176-9.096-5.064-13.709-7.362-.74-.291-1.657-.63-2.588-.904l-4.546-2-1.118-.537-.008.038-16.373-6.66a8.319 8.319 0 0 0-.702-.85l16.134 5.314.014-.076c.558.245 1.117.465 1.692.649l-.007.037 11.272 4.47c1.87 1.151 3.912 2.134 5.904 2.666 3.236 1.141 6.5 6.952 7.535 7.408.496-5.346-4.27-8.723-8.309-11.11-4.585-3.468-12.18-4.863-11.687-11.853-.12-.517-.237-1.033-.406-1.545l-1.452-3.014.083-.023c-2.072-3.718-5.41-6.776-9.273-8.459-3.728-2.174-7.956-4.435-12.117-5.823-2.269 3.95-2.379-3.955-6.277-2.38-3.098-.238-2.843.643-4.714-1.719h.256zm19.325 16.692c1.102.187 2.313.634 3.491 1.319 3.128 1.821 4.834 4.704 3.823 6.438-1.01 1.733-4.38 1.65-7.506-.178-3.127-1.828-4.844-4.655-3.83-6.4.632-1.088 2.188-1.49 4.022-1.18z" style="stroke-width:.302734"/><path fill="#e91f63" d="M466.893 398.626c3.134 2.005 5.676 2.01 6.962 0 1.286-2.01-.044-4.352-3.178-6.357-3.134-2.006-5.828-2.01-7.115 0-1.286 2.01.196 4.352 3.33 6.357z" style="stroke-width:.302734"/><path fill="#fff" fill-rule="evenodd" d="M471.284 399.026c1.137-.001 1.765-.39 2.036-.812.27-.423.36-1.156-.116-2.189-.467-1.015-1.411-2.12-2.772-2.99-1.36-.871-2.76-1.265-3.877-1.264-1.137.001-1.765.39-2.035.813-.27.422-.36 1.155.115 2.188.468 1.015 1.412 2.121 2.772 2.991 1.36.87 2.76 1.264 3.877 1.263zm3.31.003c-1.286 2.01-4.869 2.014-8.003.009-3.134-2.005-4.632-5.26-3.346-7.27 1.286-2.01 4.87-2.015 8.003-.01 3.135 2.005 5.03 6.005 3.346 7.27z" clip-rule="evenodd" style="stroke-width:.302734"/></svg>