<svg xmlns="http://www.w3.org/2000/svg" width="512" height="512" fill="none"><ellipse cx="245.5" cy="255.5" fill="#fff" rx="235.5" ry="240.5"/><path fill="#049CFC" fill-rule="evenodd" d="M246.336.269c-49.848 2.482-94.18 17.036-133.471 43.817C-19.977 134.635-37.5 323.632 76.403 437.376c113.886 113.73 302.932 94.911 392.178-39.042 85.454-128.263 39.695-302.53-97.458-371.152C332.705 7.96 287.533-1.782 246.336.269Zm75.139 40.575c35.603 10.288 68.251 29.515 92.938 54.734 5.718 5.843 7.996 10.47 8.269 16.799.737 17.095-19.165 28.372-33.354 18.896-.867-.579-3.811-3.234-6.542-5.902-22.272-21.745-43.729-34.421-73.208-43.249-2.687-.804-5.49-1.766-6.229-2.138-17.972-9.02-13.651-36.976 6.179-39.979 5.388-.816 6.484-.74 11.947.84Zm-56.583 65.572c95.225 6.246 160.221 96.168 136.519 188.87-23.536 92.045-126.062 139.685-211.629 98.334-20.015-9.672-41.473-26.566-46.047-36.253-6.137-12.995 2.933-26.881 17.906-27.418 6.914-.249 10.752 1.346 16.67 6.931 48.543 45.794 122.429 41.018 163.573-10.579 49.175-61.667 19.346-154.527-56.58-176.143-38.591-10.986-77.107-.864-108.224 28.442-11.554 10.882-26.666 8.881-33.19-4.395-4.114-8.374-2.145-20.817 3.771-23.822.619-.314 2.501-1.895 4.184-3.516 29.11-28.022 71.467-43.179 113.047-40.451Zm-2.916 70.509c42.785 3.885 74.545 39.766 73.209 82.707-1.36 43.678-36.46 77.935-79.854 77.935-51.599 0-89.414-48.06-77.799-98.877 8.806-38.525 45.422-65.308 84.444-61.765Zm-194.51 7.836c9.266 2.275 15.693 12.007 14.39 21.791-.167 1.256-.823 4.319-1.457 6.807-7.597 29.775-7.587 56.35.033 86.699 1.816 7.235 1.81 11.005-.03 15.581-5.978 14.864-26.566 17.708-36.806 5.086-5.855-7.217-11.574-38.895-11.58-64.141-.006-22.286 5.27-54.486 10.04-61.271 6.425-9.139 15.616-12.956 25.41-10.552Zm62.895 17.623c13.665 2.156 21.116 14.185 17.562 28.354-4.692 18.713-4.737 33.358-.158 52.332 2.394 9.923 1.087 15.951-4.798 22.116-11.508 12.061-29.811 6.475-34.173-10.43-5.83-22.595-6.462-45.103-1.881-66.963 2.526-12.058 4.272-16.835 7.233-19.796 4.248-4.248 10.703-6.482 16.215-5.613Zm120.614 13.779c-30.63 4.259-46.59 38.884-29.646 64.318 22.337 33.524 74.976 17.402 74.976-22.963 0-23.811-22.682-44.504-45.33-41.355Zm150.935 164.88c16.466 3.641 23.26 23.176 12.397 35.653-9.269 10.646-29.505 26.431-46.031 35.906-17.922 10.276-48.083 22.002-57.802 22.472-18.223.883-29.292-19.677-18.145-33.703 3.14-3.952 6.3-5.783 13.971-8.093 30.256-9.111 50.421-21.118 74.466-44.342 7.712-7.449 13.454-9.592 21.144-7.893Z" clip-rule="evenodd"/><circle cx="434.5" cy="434.5" r="77.5" fill="#e91f63" style="stroke-width:.302734"/><path fill="#fff" d="M425.077 383.035h-35.382a1.514 1.514 0 0 0 0 3.027h32.77c.235-.346.477-.693.727-1.038l1.108-1.53z" style="stroke-width:.302734"/><path fill="#fff" fill-opacity=".7" d="M414.02 402.627a209.462 209.462 0 0 0-.82 2.205h-37.43a1.514 1.514 0 0 1 0-3.027h38.595l-.109.196z" style="stroke-width:.302734"/><path fill="#fff" fill-opacity=".3" d="M409.98 420.271h-40.265a1.514 1.514 0 0 0 0 3.028h39.85l.026-.131.01-.045c.187-.955.31-1.593.387-2.094a31.968 31.968 0 0 1-.007-.758z" style="stroke-width:.302734"/><path fill="#fff" d="M411.238 439.041H368.2a1.514 1.514 0 0 0 0 3.027h45.341a47.373 47.373 0 0 0-.91-1.146 15.756 15.756 0 0 1-1.394-1.881z" style="stroke-width:.302734"/><path fill="#fff" fill-opacity=".6" d="M422.95 457.508h-50.208a1.514 1.514 0 0 0 0 3.027h51.827a186.596 186.596 0 0 0-.904-1.726 1609.327 1609.327 0 0 1-.715-1.301z" style="stroke-width:.302734"/><path fill="#fff" d="M431.847 476.277h-46.995a1.514 1.514 0 0 0 0 3.028h48.221a229.097 229.097 0 0 0-1.226-3.028zm16.36-102.063c-.593 2.65-4.773-.583-5.566 2.416-4.681-3.297-.287 3.569-.907 4.002l-.038-.008-.371-.112c-.231-.138-.56-.362-1.029-.795-4.15 2.15-5.404 8.068-9.75 10.635-3.452 4.765-5.167 10.326-8.025 15.473-1.903 5.057-3.702 10.135-3.432 15.62-.448 4.333-2.816 9.88.477 13.61 4.823 5.852 8.423 12.776 12.089 19.435 5.731 10.793 10.419 22.138 14.341 33.648.902-2.5.33 5.446 1.953 6.309.166-3.997.605-10.315 1.172-15.18.545-12.904-3.392-25.428-3.271-38.289.031-.537.053-1.091.085-1.638l.306-1.557-.19-.037c.447-6.279 1.482-12.972 6.867-16.838 5.451-3.688 12.452-3.51 18.54-5.62 1.357-.48 2.749-.81 4.131-.967.012-.002.028.009.038.007 4.025-.424 8.067.41 11.88 1.827.057.022.127.055.183.076.347.13.723.267 1.065.406 2.831.825 8.41 3.097 9.848 1.309-3.308-4.176-9.096-5.064-13.709-7.362-.74-.291-1.657-.63-2.588-.904l-4.546-2-1.118-.537-.008.038-16.373-6.66a8.319 8.319 0 0 0-.702-.85l16.134 5.314.014-.076c.558.245 1.117.465 1.692.649l-.007.037 11.272 4.47c1.87 1.151 3.912 2.134 5.904 2.666 3.236 1.141 6.5 6.952 7.535 7.408.496-5.346-4.27-8.723-8.309-11.11-4.585-3.468-12.18-4.863-11.687-11.853-.12-.517-.237-1.033-.406-1.545l-1.452-3.014.083-.023c-2.072-3.718-5.41-6.776-9.273-8.459-3.728-2.174-7.956-4.435-12.117-5.823-2.269 3.95-2.379-3.955-6.277-2.38-3.098-.238-2.843.643-4.714-1.719h.256zm19.325 16.692c1.102.187 2.313.634 3.491 1.319 3.128 1.821 4.834 4.704 3.823 6.438-1.01 1.733-4.38 1.65-7.506-.178-3.127-1.828-4.844-4.655-3.83-6.4.632-1.088 2.188-1.49 4.022-1.18z" style="stroke-width:.302734"/><path fill="#e91f63" d="M466.893 398.626c3.134 2.005 5.676 2.01 6.962 0 1.286-2.01-.044-4.352-3.178-6.357-3.134-2.006-5.828-2.01-7.115 0-1.286 2.01.196 4.352 3.33 6.357z" style="stroke-width:.302734"/><path fill="#fff" fill-rule="evenodd" d="M471.284 399.026c1.137-.001 1.765-.39 2.036-.812.27-.423.36-1.156-.116-2.189-.467-1.015-1.411-2.12-2.772-2.99-1.36-.871-2.76-1.265-3.877-1.264-1.137.001-1.765.39-2.035.813-.27.422-.36 1.155.115 2.188.468 1.015 1.412 2.121 2.772 2.991 1.36.87 2.76 1.264 3.877 1.263zm3.31.003c-1.286 2.01-4.869 2.014-8.003.009-3.134-2.005-4.632-5.26-3.346-7.27 1.286-2.01 4.87-2.015 8.003-.01 3.135 2.005 5.03 6.005 3.346 7.27z" clip-rule="evenodd" style="stroke-width:.302734"/></svg>