<svg width="512" height="512" fill="none" xmlns="http://www.w3.org/2000/svg">
<ellipse cx="245.5" cy="255.5" rx="235.5" ry="240.5" fill="#fff"/>
<path fill-rule="evenodd" clip-rule="evenodd" d="M246.336.269c-49.848 2.482-94.18 17.036-133.471 43.817C-19.977 134.635-37.5 323.632 76.403 437.376c113.886 113.73 302.932 94.911 392.178-39.042 85.454-128.263 39.695-302.53-97.458-371.152C332.705 7.96 287.533-1.782 246.336.269Zm75.139 40.575c35.603 10.288 68.251 29.515 92.938 54.734 5.718 5.843 7.996 10.47 8.269 16.799.737 17.095-19.165 28.372-33.354 18.896-.867-.579-3.811-3.234-6.542-5.902-22.272-21.745-43.729-34.421-73.208-43.249-2.687-.804-5.49-1.766-6.229-2.138-17.972-9.02-13.651-36.976 6.179-39.979 5.388-.816 6.484-.74 11.947.84Zm-56.583 65.572c95.225 6.246 160.221 96.168 136.519 188.87-23.536 92.045-126.062 139.685-211.629 98.334-20.015-9.672-41.473-26.566-46.047-36.253-6.137-12.995 2.933-26.881 17.906-27.418 6.914-.249 10.752 1.346 16.67 6.931 48.543 45.794 122.429 41.018 163.573-10.579 49.175-61.667 19.346-154.527-56.58-176.143-38.591-10.986-77.107-.864-108.224 28.442-11.554 10.882-26.666 8.881-33.19-4.395-4.114-8.374-2.145-20.817 3.771-23.822.619-.314 2.501-1.895 4.184-3.516 29.11-28.022 71.467-43.179 113.047-40.451Zm-2.916 70.509c42.785 3.885 74.545 39.766 73.209 82.707-1.36 43.678-36.46 77.935-79.854 77.935-51.599 0-89.414-48.06-77.799-98.877 8.806-38.525 45.422-65.308 84.444-61.765Zm-194.51 7.836c9.266 2.275 15.693 12.007 14.39 21.791-.167 1.256-.823 4.319-1.457 6.807-7.597 29.775-7.587 56.35.033 86.699 1.816 7.235 1.81 11.005-.03 15.581-5.978 14.864-26.566 17.708-36.806 5.086-5.855-7.217-11.574-38.895-11.58-64.141-.006-22.286 5.27-54.486 10.04-61.271 6.425-9.139 15.616-12.956 25.41-10.552Zm62.895 17.623c13.665 2.156 21.116 14.185 17.562 28.354-4.692 18.713-4.737 33.358-.158 52.332 2.394 9.923 1.087 15.951-4.798 22.116-11.508 12.061-29.811 6.475-34.173-10.43-5.83-22.595-6.462-45.103-1.881-66.963 2.526-12.058 4.272-16.835 7.233-19.796 4.248-4.248 10.703-6.482 16.215-5.613Zm120.614 13.779c-30.63 4.259-46.59 38.884-29.646 64.318 22.337 33.524 74.976 17.402 74.976-22.963 0-23.811-22.682-44.504-45.33-41.355Zm150.935 164.88c16.466 3.641 23.26 23.176 12.397 35.653-9.269 10.646-29.505 26.431-46.031 35.906-17.922 10.276-48.083 22.002-57.802 22.472-18.223.883-29.292-19.677-18.145-33.703 3.14-3.952 6.3-5.783 13.971-8.093 30.256-9.111 50.421-21.118 74.466-44.342 7.712-7.449 13.454-9.592 21.144-7.893Z" fill="#049CFC"/>
</svg>
