<svg width="512" height="512" xmlns="http://www.w3.org/2000/svg" xmlns:svg="http://www.w3.org/2000/svg">
<circle cx="255.56683" cy="256.55693" fill="white" id="svg_1" r="254.14359"/>
 <g id="svg_2" transform="matrix(2.42206, 0, 0, 2.42304, -54.4509, 1.1236)">
  <path d="m128.22121,0c-22.03188,0.04678 -43.49345,7.00727 -61.35906,19.90017l23.90268,23.90268c11.27745,-6.89859 24.23629,-10.55973 37.45638,-10.58221c39.77241,-0.00008 72.01434,32.24184 72.01426,72.01426c-0.03183,13.21538 -3.69956,26.1672 -10.60151,37.43708l23.94799,23.94799c12.8888,-17.87595 19.8404,-39.34715 19.87417,-61.38507c0,-58.11963 -47.11529,-105.2349 -105.23491,-105.2349l0,0z" fill="#ABC2AB" id="svg_14"/>
  <path d="m189.58027,190.56963l-23.90269,-23.90268c-11.27745,6.89859 -24.23628,10.55974 -37.45637,10.58221c-39.77242,0.00008 -72.01434,-32.24185 -72.01426,-72.01426c0.03182,-13.21538 3.69954,-26.1672 10.60151,-37.43708l-23.948,-23.94799c-12.88882,17.87594 -19.84038,39.34715 -19.87415,61.38507c0,58.11962 47.11527,105.2349 105.2349,105.2349c22.03188,-0.0468 43.49344,-7.00726 61.35906,-19.90017l0,0z" fill="#478061" id="svg_15"/>
  <circle cx="128.20439" cy="105.2349" fill="#ABC2AB" id="svg_3" r="33.50335"/>
 </g>
</svg>
