<svg xmlns="http://www.w3.org/2000/svg" width="512" height="512" fill="none"><defs><clipPath id="a"><path fill="#fff" d="M0 0h512v512H0z"/></clipPath></defs><g clip-path="url(#a)"><circle cx="256" cy="256" r="256" fill="#fff"/><path fill="#FBFBFB" fill-rule="evenodd" d="M329.42 97.193c-7.533 7.919-21.234 90.863-17.736 107.374 2.002 9.452 9.254 9.02 12.955-.771 7.456-19.724 15.703-83.947 12.887-100.367-1.225-7.147-4.698-9.819-8.106-6.236Zm72.286 13.266c-13.061 6.016-50.433 66.144-57.842 93.061-3.49 12.682 1.356 21.322 9.088 16.201 12.309-8.154 59.609-98.742 56.03-107.308-1.145-2.739-3.941-3.49-7.276-1.954Zm-198.773 10.986c-24.608 5.278-28.652 27.822-14.115 78.707 2.798 9.797 2.652 10.42-2.437 10.39-6.372-.037-6.92-.768-13.581-18.116-16.343-42.569-35.016-57.085-52.054-40.466-12.527 12.222-13.589 32.512-3.445 65.854l1.687 5.546-4.054 11.946c-12.281 36.186-16.35 55.519-17.64 83.762-4.575 100.241 67.894 123.959 197.106 64.508 88.465-40.702 123.978-69.272 118.008-94.936-6.252-26.879-29.347-44.823-79.608-61.856-32.109-10.881-57.345-16.069-87.319-17.949l-4.759-.3-.242-5.6c-.133-3.081-.346-10.67-.472-16.864-.995-48.476-13.197-69.746-37.075-64.626Z" clip-rule="evenodd"/><path fill="#0444AC" fill-rule="evenodd" d="M239.574.29C96.755 9.488-10.922 134.067.648 276.718 11.98 416.46 133.48 521.092 273.389 511.595c142.463-9.67 249.509-133.967 237.963-276.312C500.054 95.977 379.005-8.687 239.574.291Zm94.483 95.912c4.939 2.554 5.226 21.425.859 56.43-5.84 46.801-13.293 66.462-21.385 56.415-4.923-6.111-1.938-40.945 7.149-83.393 5.46-25.514 8.414-32.018 13.377-29.452Zm73.359 14.147c4.236 2.967.068 14.771-17.682 50.077-25.961 51.639-39.507 68.594-45.897 57.444-5.084-8.87 7.55-39.534 30.961-75.15 16.854-25.641 27.352-36.06 32.618-32.371Zm-192.347 11.078c16.442 4.83 24.119 24.731 24.939 64.644.126 6.194.339 13.783.472 16.864l.242 5.6 4.759.3c29.974 1.88 55.21 7.068 87.319 17.949 50.26 17.033 73.356 34.977 79.608 61.856 5.385 23.153-21.927 47.763-90.914 81.919-55.977 27.713-86.77 38.703-121.243 43.269-79.235 10.493-113.102-30.227-100.574-120.922 2.02-14.619 6.819-32.734 15.257-57.6l4.054-11.946-1.688-5.546c-12.341-40.571-7.422-65.745 14.084-72.067 13.494-3.965 28.439 12.878 41.416 46.679 6.661 17.348 7.209 18.079 13.581 18.116 5.089.03 5.235-.593 2.437-10.39-12.252-42.89-11.171-65.213 3.62-74.717 5.971-3.838 16.727-5.742 22.631-4.008Z" clip-rule="evenodd"/></g><circle cx="434.5" cy="434.5" r="77.5" fill="#e91f63" style="stroke-width:.302734"/><path fill="#fff" d="M425.077 383.035h-35.382a1.514 1.514 0 0 0 0 3.027h32.77c.235-.346.477-.693.727-1.038l1.108-1.53z" style="stroke-width:.302734"/><path fill="#fff" fill-opacity=".7" d="M414.02 402.627a209.462 209.462 0 0 0-.82 2.205h-37.43a1.514 1.514 0 0 1 0-3.027h38.595l-.109.196z" style="stroke-width:.302734"/><path fill="#fff" fill-opacity=".3" d="M409.98 420.271h-40.265a1.514 1.514 0 0 0 0 3.028h39.85l.026-.131.01-.045c.187-.955.31-1.593.387-2.094a31.968 31.968 0 0 1-.007-.758z" style="stroke-width:.302734"/><path fill="#fff" d="M411.238 439.041H368.2a1.514 1.514 0 0 0 0 3.027h45.341a47.373 47.373 0 0 0-.91-1.146 15.756 15.756 0 0 1-1.394-1.881z" style="stroke-width:.302734"/><path fill="#fff" fill-opacity=".6" d="M422.95 457.508h-50.208a1.514 1.514 0 0 0 0 3.027h51.827a186.596 186.596 0 0 0-.904-1.726 1609.327 1609.327 0 0 1-.715-1.301z" style="stroke-width:.302734"/><path fill="#fff" d="M431.847 476.277h-46.995a1.514 1.514 0 0 0 0 3.028h48.221a229.097 229.097 0 0 0-1.226-3.028zm16.36-102.063c-.593 2.65-4.773-.583-5.566 2.416-4.681-3.297-.287 3.569-.907 4.002l-.038-.008-.371-.112c-.231-.138-.56-.362-1.029-.795-4.15 2.15-5.404 8.068-9.75 10.635-3.452 4.765-5.167 10.326-8.025 15.473-1.903 5.057-3.702 10.135-3.432 15.62-.448 4.333-2.816 9.88.477 13.61 4.823 5.852 8.423 12.776 12.089 19.435 5.731 10.793 10.419 22.138 14.341 33.648.902-2.5.33 5.446 1.953 6.309.166-3.997.605-10.315 1.172-15.18.545-12.904-3.392-25.428-3.271-38.289.031-.537.053-1.091.085-1.638l.306-1.557-.19-.037c.447-6.279 1.482-12.972 6.867-16.838 5.451-3.688 12.452-3.51 18.54-5.62 1.357-.48 2.749-.81 4.131-.967.012-.002.028.009.038.007 4.025-.424 8.067.41 11.88 1.827.057.022.127.055.183.076.347.13.723.267 1.065.406 2.831.825 8.41 3.097 9.848 1.309-3.308-4.176-9.096-5.064-13.709-7.362-.74-.291-1.657-.63-2.588-.904l-4.546-2-1.118-.537-.008.038-16.373-6.66a8.319 8.319 0 0 0-.702-.85l16.134 5.314.014-.076c.558.245 1.117.465 1.692.649l-.007.037 11.272 4.47c1.87 1.151 3.912 2.134 5.904 2.666 3.236 1.141 6.5 6.952 7.535 7.408.496-5.346-4.27-8.723-8.309-11.11-4.585-3.468-12.18-4.863-11.687-11.853-.12-.517-.237-1.033-.406-1.545l-1.452-3.014.083-.023c-2.072-3.718-5.41-6.776-9.273-8.459-3.728-2.174-7.956-4.435-12.117-5.823-2.269 3.95-2.379-3.955-6.277-2.38-3.098-.238-2.843.643-4.714-1.719h.256zm19.325 16.692c1.102.187 2.313.634 3.491 1.319 3.128 1.821 4.834 4.704 3.823 6.438-1.01 1.733-4.38 1.65-7.506-.178-3.127-1.828-4.844-4.655-3.83-6.4.632-1.088 2.188-1.49 4.022-1.18z" style="stroke-width:.302734"/><path fill="#e91f63" d="M466.893 398.626c3.134 2.005 5.676 2.01 6.962 0 1.286-2.01-.044-4.352-3.178-6.357-3.134-2.006-5.828-2.01-7.115 0-1.286 2.01.196 4.352 3.33 6.357z" style="stroke-width:.302734"/><path fill="#fff" fill-rule="evenodd" d="M471.284 399.026c1.137-.001 1.765-.39 2.036-.812.27-.423.36-1.156-.116-2.189-.467-1.015-1.411-2.12-2.772-2.99-1.36-.871-2.76-1.265-3.877-1.264-1.137.001-1.765.39-2.035.813-.27.422-.36 1.155.115 2.188.468 1.015 1.412 2.121 2.772 2.991 1.36.87 2.76 1.264 3.877 1.263zm3.31.003c-1.286 2.01-4.869 2.014-8.003.009-3.134-2.005-4.632-5.26-3.346-7.27 1.286-2.01 4.87-2.015 8.003-.01 3.135 2.005 5.03 6.005 3.346 7.27z" clip-rule="evenodd" style="stroke-width:.302734"/></svg>