<svg width="512" height="512" fill="none" xmlns="http://www.w3.org/2000/svg">
<defs>
<clipPath id="a">
<path fill="#fff" d="M0 0h512v512H0z"/>
</clipPath>
</defs>
<g clip-path="url(#a)">
<circle cx="256" cy="256" r="256" fill="#fff"/>
<path fill-rule="evenodd" clip-rule="evenodd" d="M329.42 97.193c-7.533 7.919-21.234 90.863-17.736 107.374 2.002 9.452 9.254 9.02 12.955-.771 7.456-19.724 15.703-83.947 12.887-100.367-1.225-7.147-4.698-9.819-8.106-6.236Zm72.286 13.266c-13.061 6.016-50.433 66.144-57.842 93.061-3.49 12.682 1.356 21.322 9.088 16.201 12.309-8.154 59.609-98.742 56.03-107.308-1.145-2.739-3.941-3.49-7.276-1.954Zm-198.773 10.986c-24.608 5.278-28.652 27.822-14.115 78.707 2.798 9.797 2.652 10.42-2.437 10.39-6.372-.037-6.92-.768-13.581-18.116-16.343-42.569-35.016-57.085-52.054-40.466-12.527 12.222-13.589 32.512-3.445 65.854l1.687 5.546-4.054 11.946c-12.281 36.186-16.35 55.519-17.64 83.762-4.575 100.241 67.894 123.959 197.106 64.508 88.465-40.702 123.978-69.272 118.008-94.936-6.252-26.879-29.347-44.823-79.608-61.856-32.109-10.881-57.345-16.069-87.319-17.949l-4.759-.3-.242-5.6c-.133-3.081-.346-10.67-.472-16.864-.995-48.476-13.197-69.746-37.075-64.626Z" fill="#FBFBFB"/>
<path fill-rule="evenodd" clip-rule="evenodd" d="M239.574.29C96.755 9.488-10.922 134.067.648 276.718 11.98 416.46 133.48 521.092 273.389 511.595c142.463-9.67 249.509-133.967 237.963-276.312C500.054 95.977 379.005-8.687 239.574.291Zm94.483 95.912c4.939 2.554 5.226 21.425.859 56.43-5.84 46.801-13.293 66.462-21.385 56.415-4.923-6.111-1.938-40.945 7.149-83.393 5.46-25.514 8.414-32.018 13.377-29.452Zm73.359 14.147c4.236 2.967.068 14.771-17.682 50.077-25.961 51.639-39.507 68.594-45.897 57.444-5.084-8.87 7.55-39.534 30.961-75.15 16.854-25.641 27.352-36.06 32.618-32.371Zm-192.347 11.078c16.442 4.83 24.119 24.731 24.939 64.644.126 6.194.339 13.783.472 16.864l.242 5.6 4.759.3c29.974 1.88 55.21 7.068 87.319 17.949 50.26 17.033 73.356 34.977 79.608 61.856 5.385 23.153-21.927 47.763-90.914 81.919-55.977 27.713-86.77 38.703-121.243 43.269-79.235 10.493-113.102-30.227-100.574-120.922 2.02-14.619 6.819-32.734 15.257-57.6l4.054-11.946-1.688-5.546c-12.341-40.571-7.422-65.745 14.084-72.067 13.494-3.965 28.439 12.878 41.416 46.679 6.661 17.348 7.209 18.079 13.581 18.116 5.089.03 5.235-.593 2.437-10.39-12.252-42.89-11.171-65.213 3.62-74.717 5.971-3.838 16.727-5.742 22.631-4.008Z" fill="#0444AC"/>
</g>
</svg>
